<svg width="801" height="523" viewBox="0 0 801 523" fill="none" xmlns="http://www.w3.org/2000/svg">
<g clip-path="url(#clip0_203_238)">
<path d="M332.986 70.4348C335.786 64.7898 340.271 60.1038 343.011 54.4288C345.751 48.7538 346.285 41.1577 341.719 36.8137C337.842 33.1257 331.768 33.0737 327.132 30.4017C315.319 23.5957 315.332 1.97675 301.832 0.108747C295.265 -0.799253 289.323 4.12474 285.354 9.43574C281.385 14.7467 278.222 20.9418 272.717 24.6358C266.485 28.8178 258.429 28.9998 251.509 31.9048C238.242 37.4738 231.286 51.7948 225.47 64.9568C221.723 73.4348 217.891 82.5797 219.629 91.6847C215.85 94.0357 217.534 100.36 221.306 102.722C225.078 105.084 229.814 105.032 234.145 106.055C243.245 108.205 250.701 115.455 254.235 124.112C256.989 130.862 257.552 138.273 258.084 145.543L260.85 183.391C261.26 189.004 261.798 194.969 265.215 199.441C268.632 203.913 276.03 205.787 279.87 201.674C283.54 197.743 281.887 191.519 281.813 186.141C281.739 180.763 286.6 174.067 291.184 176.88L292.801 173.212C303.271 169.463 312.439 162.776 319.208 153.952C325.976 145.128 330.059 134.541 330.966 123.457C332.133 105.601 325.027 86.4578 332.986 70.4348Z" fill="#E6E6E6"/>
<path d="M343.683 183.645C344.695 182.691 345.412 181.469 345.752 180.121C346.091 178.773 346.038 177.357 345.599 176.038C345.159 174.72 344.352 173.554 343.272 172.68C342.192 171.805 340.884 171.257 339.503 171.102L339.52 171.708C337.549 172.858 335.302 173.449 333.02 173.416C330.746 173.38 328.483 173.738 326.332 174.475C325.263 174.864 324.336 175.567 323.674 176.493C323.012 177.418 322.646 178.523 322.623 179.661C322.748 180.533 323.081 181.362 323.595 182.078C324.109 182.793 324.788 183.374 325.575 183.772C327.154 184.549 328.849 185.064 330.594 185.296C335.094 186.143 340.356 186.783 343.683 183.645Z" fill="#E6E6E6"/>
<path d="M431.364 70.7316C433.249 69.4512 434.849 67.7957 436.064 65.8686C436.653 64.8937 436.933 63.7637 436.867 62.6269C436.802 61.4901 436.394 60.3996 435.698 59.4986C434.28 58.2685 432.456 57.6095 430.579 57.6496C425.483 57.2691 420.362 57.8731 415.494 59.4286L430.488 72.7126L431.364 70.7316Z" fill="#E6E6E6"/>
<path d="M406.368 82.2473C408.388 84.4773 407.744 87.9363 407.168 90.8903C406.592 93.8443 406.523 97.5353 409.068 99.1473C411.268 100.547 414.361 99.4043 415.968 97.3533C417.408 95.1673 418.285 92.6597 418.522 90.0533C419.314 86.2628 419.672 82.3946 419.588 78.5233C419.492 74.6236 418.116 70.8637 415.672 67.8233C413.938 65.8454 411.627 64.46 409.066 63.8616C406.504 63.2631 403.819 63.4816 401.387 64.4863L403.709 64.3713C402.021 66.5388 400.741 68.995 399.931 71.6203C399.544 72.9393 399.517 74.338 399.852 75.6711C400.188 77.0042 400.874 78.2231 401.84 79.2013C403.222 80.3923 405.141 80.8933 406.368 82.2473Z" fill="#E6E6E6"/>
<path d="M520.308 44.8501L520.72 43.5781C518.992 44.5765 517.66 46.1382 516.947 48.0016C516.235 49.865 516.184 51.9167 516.803 53.8131C518.132 52.7657 519.157 51.3829 519.773 49.8074C520.389 48.232 520.573 46.5207 520.308 44.8501Z" fill="#E6E6E6"/>
<path d="M497.861 63.0529C500.06 61.8078 501.936 60.0646 503.34 57.9633C504.744 55.8621 505.635 53.4611 505.944 50.9529C506.182 49.3938 506.001 47.7994 505.421 46.3329C505.123 45.6047 504.649 44.9614 504.042 44.4604C503.436 43.9593 502.714 43.616 501.943 43.4609L501.003 44.9409C499.654 43.7799 497.389 44.9739 496.822 46.6609C496.456 48.4121 496.608 50.2319 497.26 51.8979C497.91 53.5741 497.881 55.4381 497.178 57.0929C496.42 58.0661 495.567 58.9618 494.633 59.7669C494.176 60.1825 493.878 60.7438 493.789 61.3548C493.701 61.9659 493.827 62.5887 494.147 63.1169C495.028 64.1289 496.686 63.7049 497.861 63.0529Z" fill="#E6E6E6"/>
<path d="M488.292 54.7778C489.098 53.3297 489.48 51.6832 489.392 50.0278L487.335 49.3828C486.019 49.9155 484.853 50.7589 483.935 51.8408C483.656 52.1202 483.442 52.4578 483.309 52.8295C483.176 53.2011 483.127 53.5975 483.165 53.9904C483.203 54.3833 483.328 54.7629 483.53 55.102C483.732 55.4411 484.006 55.7314 484.334 55.952C484.661 56.1725 485.033 56.318 485.423 56.3779C485.813 56.4378 486.212 56.4107 486.59 56.2984C486.969 56.1862 487.318 55.9917 487.612 55.7288C487.907 55.4659 488.139 55.1412 488.294 54.7778H488.292Z" fill="#E6E6E6"/>
<path d="M588.811 44.375C588.997 44.531 589.182 44.691 589.368 44.848C589.532 44.814 589.688 44.748 589.855 44.731L588.811 44.375Z" fill="#E6E6E6"/>
<path d="M585.514 62.4266L591.178 57.8446C592.182 57.1347 593.037 56.2359 593.695 55.1986C594.146 54.2166 594.34 53.1367 594.26 52.0594C594.18 50.9821 593.829 49.9426 593.239 49.0376C592.194 47.4336 590.885 46.0182 589.367 44.8516C587.7 45.2458 586.234 46.2382 585.25 47.6406C584.265 49.043 583.828 50.758 584.023 52.4606C584.364 54.6266 585.723 56.9416 584.614 58.8326C584.182 59.5686 583.438 60.0696 582.94 60.7626C582.442 61.4556 582.28 62.5626 582.965 63.0696C583.725 63.6356 584.777 63.0226 585.514 62.4266Z" fill="#E6E6E6"/>
<path d="M589.644 71.7779C590.346 71.8159 591.048 71.7023 591.702 71.4448C592.357 71.1874 592.948 70.7921 593.436 70.2859C595.96 68.2181 598.168 65.7924 599.99 63.0859L587.25 67.1209L588.574 68.6699C587.393 69.4379 588.265 71.5129 589.644 71.7779Z" fill="#E6E6E6"/>
<path d="M601.551 80.5174C601.811 81.1799 602.28 81.7393 602.887 82.11C603.494 82.4808 604.206 82.6425 604.913 82.5704C605.618 82.4766 606.294 82.2293 606.893 81.8459C607.492 81.4625 608 80.9523 608.38 80.3514C609.026 79.3992 609.406 78.2916 609.481 77.1433C609.555 75.995 609.321 74.8476 608.803 73.82C608.286 72.7924 607.503 71.9217 606.535 71.2982C605.568 70.6747 604.452 70.3209 603.302 70.2734L604.475 72.0654C604.774 75.1244 600.616 77.5894 601.551 80.5174Z" fill="#E6E6E6"/>
<path d="M684.062 114.019C685.211 114.877 686.607 115.338 688.04 115.335C689.474 115.331 690.867 114.863 692.012 114C692.755 113.366 693.358 112.586 693.785 111.708C694.211 110.83 694.452 109.873 694.492 108.897C694.532 107.922 694.37 106.949 694.016 106.039C693.662 105.129 693.124 104.302 692.436 103.609L690.266 104.82C689.063 104.047 687.606 103.771 686.203 104.049C684.8 104.328 683.56 105.14 682.743 106.314C682.011 107.546 681.741 108.998 681.983 110.41C682.225 111.822 682.962 113.102 684.062 114.019Z" fill="#E6E6E6"/>
<path d="M709.292 116.88C710.349 116.573 711.31 116 712.082 115.216C712.854 114.432 713.411 113.462 713.701 112.401L709.482 111.847C708.309 110.961 706.943 110.364 705.495 110.106C704.77 109.997 704.028 110.141 703.396 110.514C702.764 110.886 702.279 111.465 702.022 112.153C701.933 112.738 701.994 113.336 702.202 113.89C702.409 114.445 702.754 114.937 703.205 115.32C704.002 116.079 704.979 116.622 706.045 116.895C707.111 117.168 708.229 117.163 709.292 116.881V116.88Z" fill="#E6E6E6"/>
<path d="M691.873 125.311C691.947 125.997 692.215 126.648 692.646 127.188C693.076 127.727 693.652 128.133 694.304 128.358C695.017 128.696 695.815 128.813 696.595 128.692C697.375 128.571 698.101 128.219 698.678 127.681C698.933 127.394 699.115 127.049 699.21 126.677C699.305 126.305 699.31 125.916 699.224 125.541C699.139 125.167 698.965 124.818 698.718 124.525C698.47 124.231 698.157 124 697.802 123.852L694.639 123.277C693.415 122.639 691.853 123.931 691.873 125.311Z" fill="#E6E6E6"/>
<path d="M508.323 147.556L505.875 145.32C506.526 146.228 507.36 146.99 508.323 147.556Z" fill="#E6E6E6"/>
<path d="M489.621 134.389C491.128 141.389 498.668 147.089 505.512 144.989L505.873 145.319C503.694 142.336 503.325 137.919 503.834 134.086C504.779 127.511 507.365 121.279 511.353 115.966C515.341 110.653 520.603 106.43 526.653 103.686C528.31 103.169 529.792 102.203 530.935 100.896C531.91 99.4703 531.546 97.0233 529.866 96.6203C528.953 96.5147 528.032 96.7265 527.257 97.2203L514.537 103.48C508.112 106.642 501.56 109.895 496.514 114.975C491.468 120.055 488.114 127.389 489.621 134.389Z" fill="#E6E6E6"/>
<path d="M284.296 375.095C272.445 366.611 259.464 359.827 245.732 354.942C237.292 351.942 228.223 349.652 219.432 351.356C214.609 352.353 210.09 354.474 206.242 357.547C202.393 360.619 199.323 364.556 197.282 369.038C195.315 373.552 194.39 378.451 194.576 383.371C194.762 388.291 196.053 393.107 198.354 397.46C202.409 405.06 209.432 411.112 211.78 419.399C213.363 424.986 212.613 430.935 211.851 436.692L207.181 471.987C205.764 482.698 204.381 493.845 207.774 504.103C211.167 514.361 220.842 523.403 231.592 522.315L233.722 522.155C226.611 517.32 224.622 507.309 226.735 498.975C228.848 490.641 234.226 483.575 239.472 476.761L286.181 416.108C292.481 407.928 299.143 397.818 295.781 388.056C293.87 382.506 289.068 378.512 284.296 375.095Z" fill="#E6E6E6"/>
<path d="M178.189 323.985C176.612 323.451 174.947 324.638 174.02 326.021C173.271 327.506 172.39 328.921 171.389 330.25C168.964 332.75 164.544 332.25 161.928 329.95C159.312 327.65 158.179 324.093 157.671 320.65C157.062 316.515 157.325 311.902 160.054 308.737C162.863 305.478 167.481 304.604 171.73 303.927C176.119 303.227 181.036 302.645 184.63 305.257C186.895 306.902 188.215 309.557 190.313 311.41C192.411 313.263 196.143 313.965 197.722 311.654C198.136 310.835 198.345 309.928 198.331 309.01C198.318 308.093 198.083 307.192 197.646 306.385C196.759 304.777 196.225 302.999 196.08 301.168C196.186 298.627 198.226 296.608 200.314 295.155C202.402 293.702 204.759 292.449 206.129 290.307C207.814 287.671 207.635 284.276 208.68 281.328C211.209 274.192 220.237 271.018 222.866 263.918C223.5 262.424 223.571 260.752 223.066 259.21C221.966 256.382 218.99 256.937 218.808 253.481C218.633 250.175 221.391 246.932 224.194 245.552C228.058 243.652 232.562 243.803 236.868 243.687C241.174 243.571 245.812 242.999 248.968 240.072C249.991 239.018 250.78 237.759 251.282 236.379C251.785 234.999 251.991 233.529 251.887 232.064C251.782 230.599 251.369 229.172 250.675 227.878C249.981 226.583 249.022 225.45 247.859 224.552C245.504 222.926 242.528 222.36 240.237 220.646C237.383 218.511 236.037 214.954 233.81 212.168C231.962 210.046 229.846 208.173 227.516 206.595L221.795 202.35C218.347 199.792 214.76 197.169 210.565 196.257C206.37 195.345 201.374 196.635 199.273 200.379C198.445 202.047 197.992 203.877 197.947 205.74C197.756 210.125 197.939 214.518 198.494 218.872L199.533 229.386C199.843 232.528 199.51 236.67 196.46 237.486C189.694 239.295 191.977 229.286 190.477 226.226C188.177 221.535 177.627 219.282 173.115 217.326C170.297 216.105 167.324 214.757 165.623 212.201C163.505 209.019 163.94 204.689 165.601 201.247C167.262 197.805 169.967 195.003 172.425 192.076C174.93 189.093 177.212 185.929 179.491 182.769L187.42 171.774C190.81 167.074 194.373 161.337 192.448 155.874C192.031 155.143 191.407 154.551 190.655 154.172C189.903 153.794 189.056 153.646 188.22 153.747C187.385 153.847 186.597 154.193 185.956 154.739C185.316 155.285 184.851 156.008 184.619 156.818C183.775 159.769 186.026 163.536 183.873 165.723C183.135 166.317 182.212 166.632 181.265 166.614C180.318 166.596 179.407 166.245 178.692 165.623C177.296 164.335 176.233 162.729 175.592 160.941C172.983 155.141 170.441 149.308 167.762 143.541C166.915 141.718 166.032 138.597 163.462 138.904C161.235 139.171 160.032 142.417 160.109 144.304C160.222 147.046 161.737 149.496 162.895 151.984C164.053 154.472 164.863 157.459 163.595 159.891C161.985 162.97 157.906 163.662 154.433 163.56C147.887 163.362 141.472 161.669 135.68 158.612C135.529 161.829 135.378 165.047 135.226 168.265L121.396 162.476L118.71 161.352C114.821 159.724 110.928 158.095 106.924 156.773C104.651 156.023 102.347 155.373 100.044 154.724L95.8443 153.54C93.0814 152.561 90.1509 152.143 87.2243 152.31C84.1493 152.696 81.4073 154.348 78.5633 155.582C72.2193 158.336 64.0133 155.565 57.2143 155.516C54.5174 151.579 50.8765 148.381 46.6244 146.214C42.3724 144.048 37.645 142.982 32.8747 143.114C28.1043 143.246 23.4433 144.572 19.3178 146.971C15.1923 149.37 11.734 152.765 9.25933 156.845C8.06408 158.912 6.99964 161.052 6.07232 163.253L3.30431 169.453C1.95131 172.486 0.568309 175.681 0.834309 178.991C1.10031 182.301 3.6343 185.683 6.9583 185.653C-0.872698 189.198 -2.50169 201.604 4.14731 207.053C5.98831 208.561 8.24731 209.548 9.90331 211.253C11.1541 212.545 11.9907 214.18 12.3056 215.951C12.6206 217.721 12.3996 219.545 11.671 221.189C10.9424 222.833 9.7395 224.222 8.21639 225.177C6.69328 226.133 4.91945 226.612 3.12232 226.553C7.76153 228.346 12.8716 228.513 17.6179 227.026C22.3641 225.539 26.4659 222.487 29.2533 218.368C32.0963 213.917 33.3313 208.356 37.1993 204.759C42.3213 199.996 50.7813 200.365 56.6883 204.111C62.5953 207.857 66.3323 214.234 68.9033 220.739C72.2713 229.264 74.4273 239.005 81.6033 244.707C85.0733 247.464 89.4673 249.015 92.5353 252.214C96.9033 256.77 97.6583 263.647 97.5603 269.958C97.4623 276.269 96.7823 282.817 99.0813 288.695C101.38 294.573 107.97 299.408 113.881 297.195C112.188 302.219 112.241 307.667 114.03 312.658C115.82 317.648 119.241 321.889 123.741 324.692L120.511 304.657C125.877 306.168 129.356 311.373 131.364 316.573C133.372 321.773 134.434 327.398 137.346 332.152C141.931 339.638 150.234 342.864 158.68 342.836C167.804 342.805 171.268 338.455 177.28 332.048C178.488 330.955 179.405 329.578 179.948 328.042C180.193 327.267 180.15 326.43 179.827 325.685C179.504 324.939 178.922 324.335 178.189 323.985Z" fill="#E6E6E6"/>
<path d="M204.025 323.65L188.725 321.25L196.746 326.072C198.974 327.555 201.397 328.723 203.946 329.542C205.224 329.944 206.572 330.079 207.905 329.939C209.238 329.798 210.528 329.386 211.695 328.726L211.042 327.478C210.016 324.873 206.787 324.084 204.025 323.65Z" fill="#E6E6E6"/>
<path d="M200.561 352.001L200.596 351.912C200.287 351.4 199.833 350.992 199.291 350.741C198.749 350.49 198.145 350.406 197.555 350.502C196.38 350.712 195.179 350.731 193.998 350.56C193.248 350.266 192.579 349.798 192.047 349.193C191.515 348.588 191.135 347.865 190.94 347.084C190.433 345.559 190.283 343.927 189.706 342.427C189.289 341.24 188.552 340.192 187.578 339.397C186.604 338.602 185.429 338.092 184.183 337.922C182.933 337.821 181.693 338.217 180.732 339.023C179.771 339.83 179.167 340.982 179.049 342.231C179.147 343.516 179.555 344.759 180.239 345.853L181.889 349.027C182.354 349.975 182.889 350.887 183.489 351.757C184.463 353.098 185.736 354.194 187.207 354.958C188.679 355.721 190.308 356.131 191.966 356.155C193.624 356.178 195.264 355.815 196.757 355.094C198.249 354.373 199.553 353.313 200.565 352L200.561 352.001Z" fill="#E6E6E6"/>
<path d="M170.776 80.6031C174.659 82.8921 179.522 84.4701 181.367 88.5831L182.432 88.9271L178.949 93.2551C177.514 95.0381 176.005 97.0252 176.039 99.3132C176.085 102.465 179.117 104.842 182.18 105.585C185.448 106.258 188.85 105.692 191.725 103.997C194.6 102.303 196.743 99.6005 197.738 96.4151C198.102 95.0861 198.253 93.7082 198.572 92.3692C199.503 89.1911 200.908 86.1717 202.741 83.4131L233.677 31.3681C234.961 29.2071 236.285 26.6232 235.319 24.3022C234.803 23.3207 234.006 22.516 233.029 21.9918C232.052 21.4677 230.94 21.248 229.838 21.3612C227.637 21.629 225.514 22.3436 223.599 23.4612C222.748 21.9666 221.547 20.7009 220.1 19.7727C218.652 18.8445 217.001 18.2815 215.288 18.1322C211.862 17.8677 208.416 18.1677 205.088 19.0202C197.568 20.1549 190.317 22.646 183.688 26.3722C180.061 28.2052 176.07 30.4722 175.018 34.3952C173.724 39.2232 177.895 44.1442 182.697 45.5322C187.499 46.9202 192.625 45.7542 197.486 44.5862C198.035 46.9424 197.806 49.4133 196.833 51.6284C195.86 53.8436 194.195 55.6837 192.088 56.873C189.981 58.0624 187.545 58.5368 185.146 58.2253C182.747 57.9138 180.513 56.8331 178.78 55.1452C175.296 51.7532 173.59 45.8632 168.806 44.9882C164.038 44.1152 160.248 49.2012 159.195 53.9332C158.165 59.0297 158.724 64.3194 160.794 69.0887C162.865 73.8581 166.349 77.8776 170.776 80.6051V80.6031Z" fill="#E6E6E6"/>
<path d="M230.584 164.084C228.287 157.612 225.268 151.419 221.584 145.622C218.794 141.037 215.35 136.884 211.361 133.294C207.714 130.145 203.522 127.69 198.992 126.049C194.592 124.459 189.699 123.673 185.254 125.123C180.809 126.573 177.027 130.706 177.117 135.381C177.217 140.55 181.739 144.593 186.453 146.717C191.167 148.841 196.41 149.765 200.853 152.402C203.877 154.236 206.404 156.784 208.212 159.824C210.02 162.863 211.054 166.3 211.223 169.832L212.343 171.684C209.806 172.524 207.439 173.811 205.356 175.484C204.324 176.336 203.535 177.444 203.069 178.698C202.603 179.952 202.477 181.307 202.702 182.625C203.479 185.755 206.675 187.551 209.565 188.983L225.586 196.918C222.867 188.81 231.769 181.265 232.262 172.728C232.281 169.761 231.71 166.82 230.581 164.076L230.584 164.084Z" fill="#E6E6E6"/>
<path d="M96.3052 142.195C99.5452 144.711 104.525 143.534 107.493 140.703C110.461 137.872 111.906 133.843 113.254 129.969C112.762 133.804 112.809 137.688 113.393 141.509C113.698 143.42 114.395 145.247 115.442 146.874C116.489 148.501 117.862 149.893 119.475 150.962C120.94 151.764 122.518 152.337 124.156 152.662C131.771 154.396 139.729 153.827 147.02 151.029L147.085 148.536C143.422 148.954 140.651 144.936 140.409 141.258C140.167 137.58 141.502 133.972 141.62 130.287C141.738 126.602 139.962 122.297 136.334 121.642C136.969 122.918 137.2 124.356 136.998 125.766C136.795 127.176 136.168 128.491 135.199 129.535C134.231 130.58 132.967 131.305 131.577 131.614C130.186 131.923 128.735 131.801 127.415 131.264C123.215 129.557 121.691 124.441 118.446 121.276C116.441 119.493 113.954 118.342 111.296 117.969C108.639 117.595 105.93 118.015 103.511 119.176C101.123 120.395 99.0274 122.118 97.3699 124.226C95.7124 126.333 94.5323 128.776 93.9112 131.384C92.9242 135.173 93.2162 139.796 96.3052 142.195Z" fill="#E6E6E6"/>
<path d="M196.283 115.937L196.433 115.693C195.533 113.081 192.725 111.55 189.989 111.162C187.231 110.98 184.462 111.071 181.721 111.435C178.956 111.793 176.153 111.175 173.793 109.689C171.91 108.281 170.837 106.066 169.331 104.259C167.825 102.452 165.388 100.967 163.201 101.831C160.833 102.766 160.201 106.085 161.35 108.357C162.703 110.537 164.744 112.204 167.15 113.094C176.267 117.279 186.525 118.28 196.279 115.937H196.283Z" fill="#E6E6E6"/>
<path d="M165.163 123.771C164.407 124.327 163.895 125.153 163.734 126.077C163.573 127 163.775 127.951 164.297 128.73C164.82 129.508 165.624 130.055 166.54 130.255C167.456 130.455 168.415 130.294 169.215 129.804L170.015 130.593C171.078 128.693 171.515 126.141 170.157 124.438C169.552 123.732 168.709 123.273 167.787 123.15C166.866 123.027 165.932 123.249 165.164 123.772L165.163 123.771Z" fill="#E6E6E6"/>
<path d="M155.816 130.592C155.828 129.912 155.634 129.244 155.259 128.677C154.884 128.11 154.346 127.669 153.716 127.414C153.287 127.34 152.848 127.354 152.425 127.455C152.002 127.556 151.603 127.741 151.253 128C150.904 128.258 150.61 128.585 150.39 128.961C150.17 129.336 150.028 129.752 149.973 130.184C149.907 131.063 150.023 131.946 150.313 132.779C150.602 133.612 151.06 134.376 151.658 135.025C152.006 135.547 152.46 135.989 152.992 136.323C153.523 136.657 154.119 136.874 154.74 136.961C155.992 137.002 157.269 135.693 156.761 134.548L154.849 134.511C155.438 133.285 155.768 131.951 155.817 130.592H155.816Z" fill="#E6E6E6"/>
<path d="M118.431 111.018L120.537 112.725C121.753 113.777 123.066 114.71 124.46 115.511C126.897 116.862 129.763 117.213 132.454 116.49C133.782 116.112 134.994 115.405 135.977 114.434C136.961 113.464 137.684 112.262 138.081 110.938C138.92 107.775 137.551 104.49 136.211 101.505C135.905 100.651 135.4 99.8815 134.739 99.2604C134.4 98.9597 133.968 98.7854 133.515 98.7672C133.062 98.749 132.617 98.8879 132.256 99.1604C131.993 99.4869 131.819 99.875 131.749 100.288C131.679 100.701 131.716 101.125 131.856 101.519C132.144 102.306 132.276 103.141 132.244 103.978C132.11 104.804 131.244 105.584 130.481 105.242L130.359 108.052C126.714 106.207 124.786 101.298 120.729 100.814C119.818 100.706 118.895 100.849 118.061 101.229C117.226 101.609 116.512 102.211 115.996 102.969C115.481 103.728 115.183 104.613 115.136 105.528C115.088 106.444 115.294 107.355 115.729 108.162C116.432 109.282 117.35 110.252 118.429 111.016L118.431 111.018Z" fill="#E6E6E6"/>
<path d="M109.748 98.8823C110.591 98.3041 111.259 97.5043 111.676 96.5711C112.094 95.6378 112.246 94.6074 112.115 93.5933C112.014 93.1022 111.806 92.6393 111.506 92.2377C111.206 91.836 110.821 91.5054 110.379 91.2693C109.937 91.0332 109.448 90.8974 108.947 90.8717C108.447 90.8459 107.946 90.9308 107.482 91.1203C106.441 91.8993 105.709 93.022 105.417 94.2893L102.535 102.419L104.15 101.244C106.148 100.814 108.048 100.013 109.75 98.8823H109.748Z" fill="#E6E6E6"/>
<path d="M128.457 82.2481C128.745 81.8843 128.951 81.4618 129.058 81.0102C129.166 80.5586 129.173 80.0889 129.08 79.6342C128.986 79.1795 128.794 78.7508 128.517 78.3783C128.24 78.0057 127.885 77.6985 127.476 77.4781L125.457 77.2891C124.998 77.4052 124.572 77.6273 124.215 77.9377C123.857 78.248 123.577 78.6378 123.397 79.076C123.217 79.5141 123.142 79.9883 123.179 80.4605C123.216 80.9327 123.362 81.3897 123.607 81.795C123.853 82.2002 124.189 82.5423 124.591 82.7939C124.992 83.0454 125.446 83.1994 125.918 83.2434C126.39 83.2875 126.865 83.2204 127.306 83.0475C127.747 82.8747 128.141 82.6009 128.457 82.2481Z" fill="#E6E6E6"/>
<path d="M147.036 85.3658C148.92 86.2658 151.305 87.1258 152.944 85.8318C153.43 85.3923 153.791 84.8327 153.991 84.2093C154.191 83.5859 154.224 82.9207 154.085 82.2808C153.791 81.0041 153.223 79.8067 152.419 78.7718C149.913 75.173 146.728 72.0978 143.043 69.7188L142.132 70.9028C140.86 74.2028 139.632 78.0638 141.406 81.1278C142.603 83.1918 144.883 84.3388 147.036 85.3658Z" fill="#E6E6E6"/>
<path d="M161.07 88.3087L164.593 89.9027C164.248 89.3002 163.722 88.8218 163.09 88.5356C162.457 88.2494 161.751 88.17 161.07 88.3087Z" fill="#E6E6E6"/>
<path d="M151.576 99.3912L149.911 99.9402C148.495 102.266 149.111 105.24 149.768 107.883C150.184 109.554 151.082 111.609 152.802 111.533C154.476 111.459 155.216 109.433 155.537 107.786C156.039 106 156.093 104.118 155.695 102.306C155.469 101.409 154.929 100.623 154.174 100.088C153.419 99.554 152.498 99.3068 151.576 99.3912Z" fill="#E6E6E6"/>
<path d="M125.029 91.561L126.261 92.061C126.549 92.0204 126.817 91.8856 127.021 91.6777C127.226 91.4697 127.356 91.2 127.392 90.9105C127.428 90.621 127.367 90.3278 127.219 90.0762C127.072 89.8247 126.845 89.6289 126.575 89.5192C126.304 89.4095 126.005 89.392 125.724 89.4694C125.443 89.5468 125.195 89.7148 125.019 89.9474C124.843 90.18 124.748 90.4641 124.75 90.7558C124.752 91.0475 124.85 91.3305 125.029 91.561Z" fill="#E6E6E6"/>
<path d="M187.131 185.76C186.534 185.773 185.949 185.929 185.425 186.214C184.901 186.499 184.452 186.906 184.117 187.4C183.782 187.893 183.57 188.46 183.498 189.053C183.426 189.645 183.497 190.246 183.705 190.806C184.915 193.406 189.081 193.422 190.932 191.226C191.406 190.602 191.746 189.887 191.93 189.125C192.114 188.363 192.138 187.572 192.001 186.8C191.863 186.029 191.567 185.294 191.132 184.643C190.696 183.991 190.13 183.437 189.47 183.016L187.131 185.76Z" fill="#E6E6E6"/>
<path d="M247.133 247.461C246.648 247.59 246.195 247.815 245.799 248.122C245.403 248.43 245.073 248.813 244.828 249.25C244.583 249.688 244.428 250.169 244.373 250.667C244.317 251.165 244.362 251.67 244.505 252.15L247.964 252.39L251.478 250.626C251.407 250.13 251.237 249.653 250.979 249.224C250.721 248.794 250.379 248.421 249.974 248.126C249.569 247.83 249.109 247.619 248.621 247.505C248.133 247.391 247.627 247.375 247.134 247.46L247.133 247.461Z" fill="#E6E6E6"/>
<path d="M233.077 251.736C232.087 252.438 231.292 253.381 230.767 254.476C230.242 255.571 230.005 256.781 230.077 257.993C230.19 259.201 230.684 260.343 231.488 261.252C232.293 262.161 233.365 262.79 234.551 263.049C235.748 263.236 236.971 262.962 237.974 262.282C238.976 261.602 239.683 260.566 239.951 259.385C240.536 255.808 236.691 253.185 235.309 249.836L233.077 251.736Z" fill="#E6E6E6"/>
<path d="M367.408 228.111C367.773 230.797 365.353 233.149 365.263 235.858C365.156 239.072 368.655 241.573 371.855 241.258C373.443 240.983 374.946 240.343 376.246 239.389C377.545 238.434 378.605 237.191 379.343 235.758L379.412 235.458L374.736 230.172C372.822 228.008 370.792 225.545 370.867 222.657C370.904 221.233 371.467 219.857 371.433 218.43C371.358 217.406 371.129 216.398 370.755 215.442C370.333 214.182 369.755 212.763 368.5 212.342C366.925 211.81 365.335 213.206 364.583 214.689C363.906 216.057 363.578 217.571 363.626 219.096C363.674 220.621 364.097 222.111 364.858 223.434C365.768 224.975 367.166 226.334 367.408 228.111Z" fill="#E6E6E6"/>
<path d="M352.713 237.558C353.054 237.742 353.43 237.85 353.817 237.875C354.204 237.9 354.591 237.841 354.953 237.702C356.342 237.465 357.677 236.98 358.894 236.27C359.497 235.905 359.992 235.388 360.329 234.769C360.666 234.151 360.833 233.454 360.813 232.75C360.603 231.863 360.134 231.059 359.467 230.439C358.799 229.819 357.962 229.412 357.063 229.268C356.438 229.048 355.77 228.985 355.115 229.085C354.461 229.185 353.841 229.445 353.311 229.841C352.15 230.931 352.288 232.78 352.511 234.356L352.266 234.767C352.056 235.74 351.913 236.95 352.713 237.558Z" fill="#E6E6E6"/>
<path d="M598.067 352.335L597.055 349.82C596.593 350.958 596.765 352.123 598.067 352.335Z" fill="#E6E6E6"/>
<path d="M800.46 175.983C796.133 171.289 793.484 168.583 790.752 162.764C789.265 159.555 787.007 156.764 784.178 154.64C781.35 152.517 778.04 151.126 774.544 150.593C765.568 149.114 756.395 151.456 747.311 150.987C732.759 150.235 719.637 142.43 705.702 138.173C697.899 135.988 689.954 134.351 681.923 133.273L668.04 131.073C652.871 128.673 637.606 126.273 622.252 126.587C617.825 126.679 611.652 125.348 612.012 120.934C612.453 115.452 622.312 116.171 624.212 111.009C625.386 107.816 622.577 104.463 619.496 103.019C616.415 101.575 612.859 101.141 610.063 99.2021C607.267 97.2631 605.735 92.7691 608.305 90.5391L586.937 101.493C581.015 104.529 574.399 108.478 573.353 115.05C569.784 115.993 566.662 118.162 564.533 121.177C560.527 121.198 557.378 125.044 556.717 128.996C556.056 132.948 557.257 136.947 558.445 140.773C556.992 137.989 555.445 135.1 552.887 133.283C550.329 131.466 546.426 131.121 544.243 133.377C542.002 135.692 542.526 139.577 544.111 142.383C545.696 145.189 548.132 147.453 549.627 150.307C554.299 159.221 545.833 171.771 535.819 170.778C536.49 161.573 537.162 152.369 537.834 143.164C538.258 140.333 538.018 137.441 537.134 134.718C536.041 132.083 533.244 129.918 530.46 130.541C525.455 131.66 525.882 138.992 527.96 143.679C530.038 148.366 532.118 154.884 527.867 157.755C525.122 159.609 521.401 158.464 518.438 156.984C515.475 155.504 512.305 153.684 509.066 154.372C505.827 155.06 503.79 160.015 506.652 161.682L492.414 159.208C492.179 160.605 491.653 161.937 490.871 163.119C490.089 164.3 489.068 165.304 487.873 166.066C486.679 166.828 485.338 167.331 483.937 167.542C482.536 167.754 481.107 167.669 479.741 167.293L478.341 161.5L476.258 160.92C478.438 161.527 475.027 170.72 471.969 177.744C467.858 177.262 461.851 177.169 461.169 175.991C457.887 170.35 458.276 156.914 452.569 153.74C449.709 152.149 446.775 150.699 443.769 149.39C442.19 148.639 440.522 148.091 438.805 147.76C435.305 147.208 431.772 148.294 428.392 149.368C424.399 150.636 420.312 151.952 417.006 154.525C414.182 156.974 411.762 159.852 409.834 163.054L390.249 192.04C388.304 194.62 386.773 197.488 385.713 200.54C385.213 202.058 385.047 203.665 385.225 205.253C385.404 206.841 385.923 208.371 386.747 209.74C387.615 211.082 388.91 212.093 390.423 212.61C391.935 213.126 393.578 213.119 395.086 212.589C396.978 211.77 398.873 209.914 400.748 210.771C402.168 211.42 402.523 213.287 402.374 214.841C402.013 216.363 401.985 217.945 402.291 219.479C403.145 221.899 406.429 222.74 408.771 221.693C411.049 220.449 412.756 218.37 413.531 215.893C415.788 210.105 415.558 203.7 416.12 197.512C416.682 191.324 418.373 184.707 423.251 180.859C424.711 179.707 426.857 178.877 428.36 179.972C428.923 180.483 429.312 181.158 429.474 181.901C429.635 182.644 429.56 183.419 429.26 184.118C428.631 185.5 427.812 186.787 426.826 187.942C425.159 190.287 423.993 192.95 423.399 195.765C422.806 198.58 422.798 201.487 423.377 204.305L424.377 204.922C428.177 203.935 433.271 205.702 438.321 207.396C434.655 208.486 431.428 210.706 429.099 213.739C423.262 221.929 419.037 229.679 407.49 229.582C404.751 229.559 402.035 229.017 399.295 229.011C396.53 228.84 393.805 229.747 391.695 231.542C389.618 233.576 388.976 236.672 387.195 238.972C384.859 241.997 380.954 243.227 377.388 244.6C374.782 245.6 372.035 246.958 370.837 249.481C370.085 251.55 369.912 253.786 370.337 255.946C370.737 259.767 371.449 264.113 374.691 266.175C375.903 266.807 377.229 267.192 378.591 267.308C379.954 267.423 381.326 267.266 382.627 266.846C385.999 266.026 389.296 264.481 392.759 264.712C398.196 265.074 402.673 270.293 402.728 275.741C402.756 278.499 401.951 281.662 403.779 283.728C405.497 285.669 408.904 285.323 410.679 283.439C411.506 282.437 412.075 281.248 412.336 279.976C412.598 278.703 412.544 277.386 412.179 276.139C411.423 273.655 410.261 271.313 408.739 269.209C410.548 268.74 412.464 268.912 414.16 269.696C415.857 270.48 417.229 271.827 418.045 273.509C419.253 276.192 418.863 279.287 419.245 282.209C419.627 285.131 421.406 288.367 424.345 288.536C425.305 288.563 426.245 288.253 427.001 287.66C427.756 287.066 428.281 286.227 428.483 285.288C428.513 283.808 428.432 282.327 428.241 280.859C428.341 279.414 428.99 278.062 430.056 277.08C431.121 276.098 432.522 275.561 433.971 275.579C433.077 277.231 432.785 279.142 433.147 280.985C433.509 282.828 434.501 284.488 435.953 285.679C438.188 287.409 441.143 287.795 443.928 288.279C446.713 288.763 449.683 289.527 451.48 291.708C454.474 295.341 450.811 296.978 450.24 300.055C449.54 303.833 452.695 309.411 453.907 313.025L470.616 336.4C471.859 338.295 473.326 340.033 474.984 341.578C480.484 346.3 489.546 345.834 494.819 340.862C497.376 338.275 499.036 334.937 499.556 331.338C500.076 327.738 499.428 324.066 497.707 320.862C494.449 314.931 487.992 311.262 484.807 305.288C490.113 309.681 496.628 312.36 503.49 312.971C515.63 315.438 527.165 320.275 537.433 327.206C537.915 337.934 542.031 348.179 549.105 356.259C550.377 347.103 554.645 338.627 561.243 332.153C565.534 327.968 571.397 324.594 577.284 325.72C583.171 326.846 587.637 334.352 584.076 339.174L593.027 339.84L597.041 349.82C597.279 349.121 597.735 348.517 598.341 348.096C598.948 347.674 599.674 347.459 600.412 347.48C603.205 347.902 605.164 350.5 607.821 351.46C612.829 353.269 618.183 348.26 618.831 342.973C619.479 337.686 616.964 332.585 614.522 327.854C619.918 328.854 625.489 328.258 630.552 326.141C635.615 324.023 639.95 320.475 643.028 315.931C646.106 311.387 647.791 306.045 647.879 300.557C647.967 295.07 646.453 289.676 643.522 285.036C649.328 278.938 656.161 273.907 663.709 270.174C670.694 266.723 678.334 264.355 684.439 259.514C690.544 254.673 694.825 246.268 691.888 239.052C689.814 233.952 684.611 230.494 683.054 225.215C680.8 217.573 687.647 209.669 695.382 207.76C703.117 205.851 711.194 208.198 718.814 210.526C717.643 202.686 726.731 195.336 734.153 198.12L743.479 194.344C739.879 202.289 732.067 207.344 726.326 213.911C720.585 220.478 717.165 231.174 723.163 237.511L748.953 214.136L775.929 189.685L774.641 185.901C783.161 182.669 792.323 179.996 800.46 175.983Z" fill="#E6E6E6"/>
<path d="M353.94 280.848C353.594 281.348 353.409 281.942 353.412 282.551C353.415 283.159 353.606 283.752 353.957 284.248C354.419 284.64 355.003 284.859 355.609 284.868C356.215 284.876 356.804 284.673 357.276 284.293C358.199 283.505 358.919 282.507 359.377 281.383C359.823 282.247 360.525 282.952 361.386 283.404C362.248 283.855 363.227 284.03 364.192 283.905C366.118 283.615 367.943 282.854 369.505 281.69C370.743 280.964 371.837 280.014 372.73 278.89C373.172 278.324 373.476 277.662 373.617 276.958C373.758 276.254 373.732 275.527 373.542 274.834C373.077 273.772 372.355 272.842 371.441 272.128L364.617 265.828L363.847 265.597C363.445 265.17 362.962 264.829 362.426 264.593C361.889 264.358 361.311 264.233 360.725 264.227C360.139 264.221 359.558 264.333 359.017 264.557C358.475 264.781 357.985 265.112 357.575 265.53C356.162 267.111 356.155 269.474 356.374 271.583C356.593 273.692 356.926 275.939 355.987 277.84C355.452 278.928 354.54 279.791 353.94 280.848Z" fill="#E6E6E6"/>
<path d="M485.921 352.62C477.081 350.652 468.989 346.195 462.602 339.775C456.214 333.354 451.798 325.24 449.876 316.39C449.038 312.214 448.658 307.651 445.876 304.422C443.186 301.296 438.792 300.168 434.668 300.168C430.544 300.168 426.479 301.117 422.368 301.374C415.168 301.823 407.547 299.922 402.402 294.874C399.965 292.483 398.121 289.446 395.275 287.559C391.45 285.024 386.375 285.026 382.021 286.459C377.167 288.059 373.281 292.437 367.973 291.834C362.453 291.207 356.055 289.256 353.891 296.525C353.268 298.618 353.48 300.913 352.691 302.949C351.475 306.087 348.246 307.856 345.691 310.049C340.547 314.464 337.813 321.172 336.891 327.888C335.969 334.604 336.683 341.425 337.391 348.166C337.776 351.802 338.282 355.715 340.78 358.386C344.262 362.109 350.104 361.965 355.18 361.545L372.88 360.083C376.061 359.82 379.686 359.709 381.951 361.958C383.308 363.306 383.882 365.258 385.076 366.751C386.147 368.023 387.618 368.894 389.248 369.223C390.879 369.552 392.572 369.318 394.053 368.561C392.855 370.699 392.202 373.099 392.154 375.549C392.105 377.999 392.661 380.423 393.773 382.606C394.885 384.79 396.518 386.666 398.528 388.068C400.538 389.469 402.862 390.353 405.296 390.642L405.751 390.929C401.973 397.399 398.051 404.664 399.62 411.991C400.963 418.273 406.166 423.31 407.02 429.677C407.801 435.519 404.752 441.494 406.101 447.232C407.467 453.042 413.335 457.093 419.288 457.526C425.241 457.959 431.088 455.318 435.701 451.526C440.314 447.734 443.878 442.855 447.391 438.026C449.56 435.047 451.785 431.946 452.53 428.336C453.323 424.495 452.404 420.236 454.272 416.79C456.426 412.813 461.539 411.322 464.119 407.608C467.461 402.798 465.492 396.249 466.231 390.439C468.072 376.068 486.336 367.107 485.921 352.62Z" fill="#E6E6E6"/>
<path d="M483.282 401.708C482.782 403.953 480.682 405.431 478.682 406.561C476.682 407.691 474.476 408.831 473.455 410.892C472.41 413.003 472.887 415.519 473.434 417.81C474.572 422.577 475.911 427.289 477.453 431.946C480.442 426.298 483.052 420.457 485.265 414.462C486.202 412.23 486.781 409.864 486.979 407.452C487.071 406.245 486.908 405.031 486.502 403.89C486.096 402.75 485.456 401.706 484.622 400.828L483.282 401.708Z" fill="#E6E6E6"/>
<path d="M606.215 376.7L598.684 368.007C596.967 366.025 595.01 363.907 592.409 363.578L591.338 364.262L597.867 379.809C598.638 382.175 599.994 384.308 601.81 386.009C603.758 387.54 606.917 387.834 608.542 385.963C609.066 385.262 609.396 384.435 609.5 383.566C609.603 382.697 609.476 381.816 609.132 381.011C608.423 379.412 607.435 377.952 606.214 376.699L606.215 376.7Z" fill="#E6E6E6"/>
<path d="M630.539 382.248C631.488 381.918 632.358 381.394 633.092 380.709C633.827 380.025 634.411 379.194 634.806 378.271C635.584 376.421 636.098 374.471 636.332 372.479L637.619 364.695L637.058 364.551C636.513 364.289 635.892 364.234 635.309 364.396C634.726 364.557 634.222 364.925 633.889 365.43C633.257 366.46 632.779 367.578 632.469 368.747C632.31 369.331 632.021 369.871 631.624 370.328C631.227 370.784 630.732 371.145 630.175 371.384C628.16 371.992 626.252 369.857 624.149 369.94C623.3 370.048 622.512 370.44 621.914 371.054C621.316 371.667 620.944 372.465 620.858 373.318C620.736 375.038 621.224 376.747 622.235 378.144C624.028 380.927 627.356 383.164 630.539 382.248Z" fill="#E6E6E6"/>
<path d="M644.417 387.173L650.202 371.938C647.858 373.637 646.062 375.985 645.034 378.692C644.006 381.398 643.792 384.346 644.417 387.173Z" fill="#E6E6E6"/>
<path d="M673.939 374.891L672.769 374.941C672.246 375.975 671.968 377.115 671.957 378.274C671.946 379.433 672.202 380.579 672.705 381.623C673.732 383.704 675.225 385.519 677.069 386.928C679.927 389.287 683.189 391.108 686.696 392.304C691.84 393.804 697.159 394.624 702.516 394.741L711.703 395.341C713.162 395.441 715.049 395.251 715.454 393.847C715.789 392.687 714.801 391.597 713.878 390.818C705.775 383.999 695.953 379.541 685.486 377.932C681.514 377.324 677.305 377.076 673.939 374.891Z" fill="#E6E6E6"/>
<path d="M706.628 415.323L700.021 408.916C697.879 406.839 694.67 404.638 692.215 406.334C690.804 407.309 690.369 409.21 689.173 410.439C688.445 411.092 687.565 411.553 686.614 411.78C685.663 412.007 684.669 411.993 683.725 411.739C681.844 411.21 680.066 410.367 678.466 409.246L673.001 405.855L667.344 402.344L663.088 406.48C663.273 404.445 660.559 403.122 658.68 403.927C657.787 404.428 657.018 405.123 656.431 405.962C655.844 406.801 655.454 407.762 655.29 408.773C654.977 410.793 654.431 412.77 653.663 414.665C651.502 418.802 646.256 420.027 641.64 420.72C637.024 421.413 631.796 422.389 629.325 426.349C627.267 429.649 627.884 433.882 628.571 437.708L631.171 452.183C631.294 453.937 631.998 455.599 633.171 456.909C635.456 458.926 638.996 457.7 641.785 456.47C647.615 453.666 653.872 451.853 660.298 451.105C666.781 450.38 673.305 452.051 678.64 455.805C681.948 458.324 684.47 461.81 687.975 464.047C690.39 465.5 693.104 466.382 695.912 466.627C698.719 466.872 701.545 466.473 704.175 465.46C709.445 463.361 713.807 459.472 716.493 454.476C718.878 450.07 720.075 445.119 719.966 440.111C719.857 435.102 718.445 430.208 715.871 425.911C713.241 422.011 710.137 418.455 706.628 415.323Z" fill="#E6E6E6"/>
<path d="M700.134 474.296C699.605 474.937 699.296 475.731 699.252 476.562C699.207 477.392 699.43 478.214 699.887 478.909C700.847 480.284 702.31 481.226 703.959 481.53C705.592 481.822 707.257 481.898 708.91 481.757L708.96 480.522C708.519 478.354 707.519 476.34 706.06 474.678C704.465 473.162 701.646 472.696 700.134 474.296Z" fill="#E6E6E6"/>
<path d="M756.847 475.625L756.058 475.336L750.42 483.836C749.409 485.36 748.353 487.19 748.97 488.912C749.7 490.95 752.399 491.547 754.496 491.012C756.096 490.577 757.538 489.695 758.654 488.469C759.769 487.243 760.513 485.725 760.796 484.092C761.029 482.45 760.78 480.775 760.079 479.272C759.378 477.769 758.255 476.502 756.847 475.625Z" fill="#E6E6E6"/>
<path d="M771.179 466.625L765.991 462.5C765.924 464.413 765.855 466.327 765.783 468.24H765.588C766.784 469.289 767.914 470.413 768.97 471.603C770.185 472.636 772.222 473.103 773.26 471.903C773.571 471.47 773.747 470.955 773.767 470.422C773.787 469.89 773.649 469.363 773.372 468.908C772.801 468.008 772.055 467.232 771.179 466.625Z" fill="#E6E6E6"/>
<path d="M677.444 287.187C675.267 287.119 672.857 286.987 671.17 288.364C670.615 288.861 670.128 289.428 669.722 290.052L669.127 290.885C668.237 292.051 667.46 293.299 666.809 294.612C666.469 295.228 666.264 295.91 666.21 296.611C666.156 297.313 666.252 298.018 666.494 298.678C666.633 298.994 666.84 299.276 667.1 299.503C667.361 299.73 667.667 299.897 667.999 299.993C668.331 300.088 668.68 300.109 669.021 300.055C669.362 300.001 669.687 299.872 669.973 299.678C670.903 298.816 670.686 297.253 671.39 296.197C671.7 295.8 672.098 295.48 672.552 295.262C673.007 295.045 673.506 294.936 674.01 294.944C675.015 294.97 676.016 295.083 677.001 295.282C679.73 295.656 682.509 295.241 685.01 294.086C687.511 292.931 689.629 291.085 691.114 288.765C692.6 286.445 693.39 283.748 693.392 280.994C693.393 278.239 692.607 275.541 691.125 273.219L690.95 272.684C689.443 272.627 687.963 273.1 686.768 274.021C685.574 274.941 684.74 276.252 684.412 277.724C683.925 280.261 684.957 283.207 683.42 285.282C682.123 287.028 679.621 287.255 677.444 287.187Z" fill="#E6E6E6"/>
<path d="M696.931 260.295L696.599 260.266C694.652 260.621 692.783 261.318 691.078 262.323C690.519 262.582 690.072 263.036 689.82 263.599C689.746 263.897 689.747 264.21 689.824 264.508C689.901 264.806 690.05 265.081 690.259 265.307C690.682 265.753 691.177 266.125 691.723 266.407C692.537 266.95 693.436 267.352 694.383 267.597C694.859 267.714 695.356 267.712 695.83 267.59C696.304 267.467 696.74 267.229 697.099 266.897C697.436 266.434 697.668 265.903 697.778 265.341C697.888 264.779 697.874 264.2 697.736 263.645C697.581 262.504 697.311 261.381 696.93 260.295H696.931Z" fill="#E6E6E6"/>
<path d="M663.376 287.835C663.897 287.001 664.266 286.082 664.468 285.12L665.077 282.88L662.907 281.562C661.871 282.102 660.915 282.784 660.066 283.587C659.645 283.993 659.312 284.481 659.088 285.021C658.864 285.561 658.755 286.142 658.766 286.727C658.796 287.311 659.023 287.868 659.41 288.307C659.797 288.746 660.321 289.041 660.896 289.145C661.388 289.159 661.875 289.047 662.31 288.817C662.745 288.588 663.113 288.25 663.378 287.835L663.376 287.835Z" fill="#E6E6E6"/>
<path d="M426.971 86.0323C426.113 86.5673 426.355 87.8603 426.703 88.8093L427.903 92.0793L428.462 89.9633C428.953 89.1424 429.169 88.1865 429.08 87.2343C428.887 86.3033 427.778 85.5323 426.971 86.0323Z" fill="#E6E6E6"/>
<path d="M694.434 441.062C722.048 441.062 744.434 418.677 744.434 391.062C744.434 363.448 722.048 341.062 694.434 341.062C666.819 341.062 644.434 363.448 644.434 391.062C644.434 418.677 666.819 441.062 694.434 441.062Z" fill="#0C9017"/>
<mask id="mask0_203_238" style="mask-type:luminance" maskUnits="userSpaceOnUse" x="644" y="341" width="101" height="101">
<path d="M694.434 441.062C722.048 441.062 744.434 418.677 744.434 391.062C744.434 363.448 722.048 341.062 694.434 341.062C666.819 341.062 644.434 363.448 644.434 391.062C644.434 418.677 666.819 441.062 694.434 441.062Z" fill="white"/>
</mask>
<g mask="url(#mask0_203_238)">
<path d="M707.55 388.932C708.219 386.752 708.27 384.429 707.698 382.221C707.126 380.013 705.953 378.007 704.31 376.425C702.667 374.844 700.617 373.749 698.389 373.261C696.161 372.774 693.842 372.914 691.688 373.665C689.535 374.417 687.632 375.75 686.19 377.518C684.749 379.285 683.826 381.418 683.523 383.679C683.221 385.939 683.551 388.239 684.476 390.324C685.402 392.408 686.887 394.195 688.767 395.486L681.236 414.363L718.236 411.228C718.236 411.228 699.486 401.166 699.25 397.146C701.205 396.57 702.986 395.518 704.435 394.085C705.883 392.651 706.954 390.881 707.55 388.932Z" fill="#FFD4AF"/>
<path d="M718.286 410.036L721.441 408.578C722.577 408.795 723.625 409.339 724.457 410.143C725.288 410.948 725.867 411.977 726.121 413.105C727.196 417.172 732.105 438.961 732.105 438.961C732.939 439.849 733.498 440.958 733.716 442.156C733.934 443.354 733.801 444.589 733.333 445.713C733.333 445.713 733.907 450.048 732.105 450.7C730.303 451.352 718.232 460.671 718.232 460.671L718.286 410.036Z" fill="#3F3D56"/>
<path d="M708.782 404.365L700.626 399.398C698.745 408.758 689.041 409.272 687.16 399.913L681.16 404.366L668.5 408.586L670.341 457.67L696.041 457.596V457.67H719.6L721.441 408.586L708.782 404.365Z" fill="#3F3D56"/>
<path d="M671.658 410.036L668.503 408.578C667.367 408.795 666.319 409.339 665.488 410.143C664.656 410.948 664.078 411.977 663.823 413.105C662.748 417.172 664.744 440.688 664.744 440.688C663.91 441.576 663.351 442.685 663.133 443.883C662.915 445.081 663.048 446.316 663.516 447.44C663.516 447.44 662.942 451.775 664.744 452.427C666.546 453.079 671.659 453.369 671.659 453.369L671.658 410.036Z" fill="#3F3D56"/>
<path d="M684.114 380.079L683.177 389.635C683.177 389.635 673.348 370.563 685.568 367.036C685.568 367.036 684.378 365.424 686.105 364.888C687.832 364.352 704.211 361.78 705.516 369.798C705.516 369.798 714.072 375.098 711.483 380.774L708.432 387.444L705.67 387.597C705.67 387.597 705.592 374.897 701.37 375.321C697.148 375.745 684.114 380.079 684.114 380.079Z" fill="#090814"/>
</g>
<path d="M479.5 224C507.39 224 530 201.614 530 174C530 146.386 507.39 124 479.5 124C451.61 124 429 146.386 429 174C429 201.614 451.61 224 479.5 224Z" fill="#DF1523"/>
<mask id="mask1_203_238" style="mask-type:luminance" maskUnits="userSpaceOnUse" x="429" y="124" width="101" height="100">
<path d="M479.5 224C507.39 224 530 201.614 530 174C530 146.386 507.39 124 479.5 124C451.61 124 429 146.386 429 174C429 201.614 451.61 224 479.5 224Z" fill="white"/>
</mask>
<g mask="url(#mask1_203_238)">
<path d="M473.037 179.473L472.537 187.625L487.76 188.397L483.046 177.656L473.037 179.473Z" fill="#FFD4AF"/>
<path d="M472.145 186.406C476.225 188.55 482.752 187.964 490.145 186.406L491.301 246.776C491.301 246.776 467.201 254.584 459.244 244.476L464.399 192.823L472.144 186.411L472.145 186.406Z" fill="#F6F6F6"/>
<path d="M485.505 183.266L496.479 189.766C498.5 190.962 500.065 192.797 500.927 194.981C501.789 197.166 501.898 199.575 501.238 201.829L492.757 230.796C492.757 230.796 506.568 254.524 502.081 256.617C491.996 261.317 476.947 260.176 476.947 260.176L480.31 203.366L485.51 183.266H485.505Z" fill="#3F3D56"/>
<path d="M472.622 186.195L460.213 191.016L457.282 226.816L449.074 255.654C462.974 260.728 461.674 258.364 461.674 258.364L463.974 208.605L472.615 186.205L472.622 186.195Z" fill="#3F3D56"/>
<path d="M454.499 255.041L454.541 254.841L467.225 196.174C467.373 195.528 467.393 194.86 467.283 194.206C467.173 193.553 466.935 192.928 466.584 192.367C466.232 191.805 465.773 191.319 465.234 190.935C464.694 190.55 464.084 190.276 463.438 190.128C462.793 189.98 462.124 189.96 461.471 190.07C460.818 190.18 460.193 190.418 459.632 190.769C459.07 191.121 458.584 191.58 458.199 192.119C457.815 192.659 457.541 193.269 457.393 193.915L443.459 251.193L454.496 255.045L454.499 255.041Z" fill="#3F3D56"/>
<path d="M479.641 181.638C486.462 181.638 491.991 176.108 491.991 169.288C491.991 162.467 486.462 156.938 479.641 156.938C472.82 156.938 467.291 162.467 467.291 169.288C467.291 176.108 472.82 181.638 479.641 181.638Z" fill="#FFD4AF"/>
<path d="M473.767 153.289C471.047 154.245 469.49 154.789 468.067 156.166C465.659 158.486 465.261 161.587 464.892 164.466C464.34 167.307 464.568 170.244 465.551 172.966C466.001 174.102 468.187 179.166 472.369 179.804C473.19 179.93 475.119 179.963 474.563 179.552C469.419 175.752 467.224 173.462 467.404 167.609C467.516 163.972 473.073 160.046 476.372 159.34C477.165 159.178 477.983 159.19 478.771 159.373C479.559 159.557 480.298 159.909 480.938 160.404C483.711 162.681 483.593 172.095 486.517 174.063C487.717 174.873 486.917 169.175 487.766 170.099C489.438 171.922 488.366 174.712 488.066 175.777C486.641 180.82 485.148 177.091 483.757 181.397C482.257 186.046 495.435 189.177 495.883 190.215C496.663 192.021 485.517 200.59 488.577 202.076C492.46 203.963 495.521 201.506 497.326 203.612C498.335 204.789 497.789 206.037 499.612 209.7C500.207 210.9 500.506 211.494 500.768 211.473C502.014 211.373 504.033 201.395 500.768 192.104C499.398 188.204 498.056 184.385 494.461 181.397C492.561 179.817 490.961 179.249 490.51 177.405C489.861 174.769 492.555 173.645 493.094 169.488C493.463 166.645 493.722 162.578 492.717 159.972C491.769 157.51 490.946 155.372 488.792 153.437C488.274 152.972 484.098 149.809 479.67 149.719C477.632 149.678 476.133 152.457 473.77 153.288L473.767 153.289Z" fill="#090814"/>
<path d="M492.88 190.136C494.767 189.87 496.686 190.33 498.246 191.425C499.807 192.519 500.894 194.165 501.286 196.03C504.126 209.53 509.223 238.3 501.218 238.78C494.326 239.073 487.426 238.44 480.703 236.897L483.215 222.453L491.379 221.616L486.579 199.154C486.363 198.145 486.357 197.103 486.562 196.091C486.766 195.08 487.177 194.121 487.768 193.275C488.359 192.429 489.118 191.714 489.997 191.174C490.876 190.634 491.857 190.281 492.879 190.136H492.88Z" fill="#3F3D56"/>
</g>
<path d="M147.973 200.398C157.877 200.398 167.56 203.336 175.796 208.838C184.031 214.341 190.45 222.163 194.24 231.314C198.031 240.465 199.023 250.534 197.09 260.249C195.158 269.963 190.388 278.887 183.384 285.89C176.381 292.894 167.457 297.664 157.743 299.596C148.028 301.529 137.959 300.537 128.808 296.746C119.657 292.956 111.835 286.537 106.333 278.301C100.83 270.066 97.8926 260.383 97.8926 250.478C97.8926 237.196 103.169 224.458 112.561 215.067C121.952 205.675 134.691 200.398 147.973 200.398Z" fill="#FFBF26"/>
<mask id="mask2_203_238" style="mask-type:luminance" maskUnits="userSpaceOnUse" x="97" y="200" width="101" height="101">
<path d="M147.874 300.36C175.477 300.36 197.855 277.983 197.855 250.379C197.855 222.776 175.477 200.398 147.874 200.398C120.27 200.398 97.8926 222.776 97.8926 250.379C97.8926 277.983 120.27 300.36 147.874 300.36Z" fill="white"/>
</mask>
<g mask="url(#mask2_203_238)">
<path d="M150.924 240.839C155.703 240.839 159.578 236.965 159.578 232.185C159.578 227.406 155.703 223.531 150.924 223.531C146.144 223.531 142.27 227.406 142.27 232.185C142.27 236.965 146.144 240.839 150.924 240.839Z" fill="#FFD4AF"/>
<path d="M143.45 234.148C143.45 234.148 143.056 246.343 141.09 247.916C139.124 249.489 148.171 256.177 148.171 256.177L154.071 246.736V238.082L143.45 234.148Z" fill="#FFD4AF"/>
<path d="M147.383 250.673L142.607 243.461L139.907 247.132L135.973 258.147L139.12 301.025L157.609 301.419L159.969 252.246L154.069 245.165L147.383 250.673Z" fill="#F2F2F2"/>
<path d="M167.446 253.424L170.593 253.031C170.593 253.031 171.379 253.424 171.773 256.178C172.167 258.932 176.885 283.322 176.885 283.322L170.591 313.222L163.51 303.781L167.839 287.26L163.511 270.732L167.446 253.424Z" fill="#090814"/>
<path d="M127.321 253.031H124.961L119.061 284.895L124.568 309.679L130.076 300.631L128.502 290.796L129.286 282.142L132.041 277.028L127.321 253.031Z" fill="#090814"/>
<path d="M145.811 232.187L147.385 231.793C147.385 231.793 148.565 225.104 151.319 225.893C154.073 226.682 161.154 227.467 161.154 224.319C161.154 221.171 154.465 218.419 150.533 218.811C146.601 219.203 139.911 220.387 140.304 226.287C140.684 230.294 141.672 234.219 143.236 237.928L143.443 234.428L145.811 232.187Z" fill="#090814"/>
<path d="M170.201 253.033L157.613 247.919L154.663 245.755L145.812 284.897L139.912 267.197L141.682 244.578L125.357 253.036L130.867 279.788L131.654 290.016L129.294 298.277C129.294 298.277 121.033 304.177 123.787 310.472C126.541 316.767 129.687 317.161 129.687 317.161C129.687 317.161 143.062 304.573 143.85 301.426C144.638 298.279 145.817 292.772 145.817 292.772C145.817 292.772 152.506 317.949 160.372 317.555C168.238 317.161 168.24 308.901 168.24 308.901L166.273 300.247L163.122 291.188L164.696 276.24L170.201 253.033Z" fill="#090814"/>
</g>
<circle cx="410" cy="354" r="10" fill="#FFBF26"/>
<circle cx="131" cy="142" r="10" fill="#DF1523"/>
<circle cx="635" cy="293" r="7" fill="#DF1523"/>
<circle cx="707" cy="155" r="7" fill="#FFBF26"/>
<circle cx="235" cy="458" r="7" fill="#0C9017"/>
<circle cx="386" cy="250" r="7" fill="#0C9017"/>
</g>
<defs>
<clipPath id="clip0_203_238">
<rect width="800.46" height="522.403" fill="white"/>
</clipPath>
</defs>
</svg>
