<svg width="88" height="221" viewBox="0 0 88 221" fill="none" xmlns="http://www.w3.org/2000/svg">
<path d="M71.5 13L12 70.5L78 211" stroke="#44425D" stroke-width="4"/>
<path d="M78 221C72.4772 221 68 216.523 68 211C68 205.477 72.4772 201 78 201C83.5228 201 88 205.477 88 211C88 216.523 83.5228 221 78 221Z" fill="#DF1523"/>
<path d="M15 84C6.71573 84 0 77.2843 0 69C0 60.7157 6.71573 54 15 54C23.2843 54 30 60.7157 30 69C30 77.2843 23.2843 84 15 84Z" fill="#F3BC19"/>
<path d="M72.5 21C66.701 21 62 16.299 62 10.5C62 4.70101 66.701 0 72.5 0C78.299 0 83 4.70101 83 10.5C83 16.299 78.299 21 72.5 21Z" fill="#0C9017"/>
</svg>
