<svg width="646" height="530" viewBox="0 0 646 530" fill="none" xmlns="http://www.w3.org/2000/svg">
<g clip-path="url(#clip0_200_53)">
<path d="M102.493 301.849C141.308 290.598 198.401 320.742 231.937 288.837C333.473 192.237 347.077 300.691 392.585 329.302L392.113 331.889C337.388 240.285 268.084 89.1286 232.18 291.617C223.186 342.34 131.557 294.525 89.9133 308.789L89.0524 306.093C93.4498 304.585 97.9301 303.17 102.493 301.849Z" fill="#F6F6F6"/>
<path d="M550.987 346.894C512.897 360.397 454.138 333.645 422.527 367.457C326.816 469.832 306.89 362.36 259.786 336.461L260.106 333.85C320.097 422.096 398.126 568.938 422.121 364.696C428.132 313.534 522.402 355.906 563.14 339.23L564.157 341.871C559.855 343.633 555.465 345.308 550.987 346.894Z" fill="#F6F6F6"/>
<path d="M-13.1231 327.55C11.0261 295.146 74.7382 284.705 82.2084 239.024C104.826 100.714 181.151 178.956 234.703 174.288L235.889 176.635C183.966 187.126 131.472 209.415 84.0807 241.093C41.2526 269.719 5.62308 304.164 -18.9611 340.678L-21.2751 339.048C-18.68 335.191 -15.9627 331.359 -13.1231 327.55Z" fill="#F6F6F6"/>
<path d="M664.902 314.469C642.69 348.23 579.697 362.382 574.913 408.421C560.426 547.817 479.654 474.175 426.467 481.969L425.146 479.695C476.365 466.184 527.466 440.862 572.923 406.465C614.003 375.383 647.556 338.912 669.961 301.022L672.367 302.514C670.002 306.516 667.513 310.501 664.902 314.469Z" fill="#F6F6F6"/>
<path d="M274.222 314.768C274.222 314.768 197.222 121.768 274.222 225.768C351.222 329.768 370.722 225.768 370.722 225.768L382.222 233.184V314.768H274.222Z" fill="#0C9017" stroke="#0C9017"/>
<path d="M269 247C342.262 236.232 348.663 172.96 297.5 94L409 143.417V247H269Z" fill="#FFBF26"/>
<path d="M202.721 514.442H209.667L212.973 487.648H202.721V514.442Z" fill="#FFD4AF"/>
<path d="M200.454 509.686L211.552 509.023V513.778L222.103 521.065C222.624 521.425 223.017 521.942 223.223 522.541C223.43 523.139 223.439 523.788 223.251 524.393C223.062 524.998 222.686 525.526 222.175 525.902C221.665 526.277 221.049 526.479 220.415 526.479H207.203L204.925 521.776L204.036 526.479H199.055L200.454 509.686Z" fill="#2F2E41"/>
<path d="M115.658 508.542L122.112 511.111L135.092 487.44L125.567 483.648L115.658 508.542Z" fill="#FFD4AF"/>
<path d="M115.312 503.281L125.868 506.77L124.109 511.188L131.217 521.86C131.568 522.387 131.742 523.013 131.712 523.646C131.683 524.278 131.452 524.885 131.053 525.377C130.654 525.869 130.109 526.221 129.496 526.381C128.883 526.541 128.235 526.501 127.647 526.266L115.371 521.38L114.995 516.168L112.429 520.209L107.801 518.366L115.312 503.281Z" fill="#2F2E41"/>
<path d="M188.719 434.716L177.135 380.659L159.047 440.72L130.406 497.674L130.254 497.976L121.182 493.091C119.901 469.966 122.942 448.295 134.065 429.346L139.331 377.334C139.493 375.557 143.421 333.835 155.861 326.436L159.504 318.129L195.739 309.18L195.871 309.328C199.355 313.244 201.657 318.069 202.509 323.241L213.336 388.833L213.342 388.87L210.439 434.628L214.41 502.135H200.041C191.152 485.409 187.378 462.936 188.719 434.716Z" fill="#2F2E41"/>
<path d="M399.358 202.274C400.419 202.282 401.465 202.522 402.423 202.977C403.382 203.433 404.228 204.093 404.904 204.912C405.579 205.73 406.067 206.687 406.333 207.714C406.599 208.741 406.636 209.814 406.443 210.858L420.345 219.904L416.908 229.693L397.455 216.642C395.724 216.201 394.215 215.139 393.214 213.66C392.213 212.18 391.79 210.384 392.024 208.613C392.259 206.842 393.135 205.218 394.486 204.05C395.838 202.882 397.571 202.25 399.358 202.274Z" fill="#FFD4AF"/>
<path d="M404.309 226.066L414.231 214.609L427.053 220.556L453.254 241.407C456.689 241.809 482.753 245.172 482.274 254.744C482.262 255.863 482.008 256.966 481.53 257.977C481.052 258.988 480.36 259.884 479.503 260.603C475.389 263.999 468.26 263.035 467.994 262.995L450.936 262.142C450.044 262.357 440.785 264.484 435.884 261.44C434.397 260.516 404.309 226.066 404.309 226.066Z" fill="#3F3D56"/>
<path d="M432.925 518.692L424.798 518.691L420.932 487.344H432.926L432.925 518.692Z" fill="#FFD4AF"/>
<path d="M434.998 526.57L408.793 526.569V526.237C408.793 523.532 409.868 520.938 411.781 519.025C413.693 517.112 416.288 516.038 418.993 516.038L423.78 512.406L432.711 516.038L434.999 516.038L434.998 526.57Z" fill="#2F2E41"/>
<path d="M522.128 512.325L514.294 514.489L502.221 485.302L513.783 482.109L522.128 512.325Z" fill="#FFD4AF"/>
<path d="M526.224 519.368L500.964 526.345L500.876 526.026C500.156 523.418 500.501 520.631 501.835 518.278C503.17 515.925 505.384 514.199 507.992 513.478L511.639 508.703L521.215 509.826L523.42 509.217L526.224 519.368Z" fill="#2F2E41"/>
<path d="M433.282 328.977L494.693 332.11L494.713 332.165C498.391 342.383 499.25 353.404 497.199 364.068L499.079 379.734L508.479 428.612L521.012 491.275C521.012 491.275 537.304 495.662 515.998 503.182C494.693 510.701 499.079 506.315 502.212 500.675C505.346 495.035 486.86 431.432 486.86 431.432L464.301 380.674L442.369 433.312L439.862 491.589C439.862 491.589 446.442 499.422 427.643 502.555C408.844 505.688 409.784 499.735 414.17 495.349C418.556 490.962 422.316 432.685 422.316 432.685L426.703 377.541C426.703 377.541 425.449 345.582 433.282 328.977Z" fill="#2F2E41"/>
<path d="M493.331 257.388L488.393 244.437L472.493 228.776L452.356 227.195L437.556 240.446L433.371 253.628C438.86 279.044 438.747 302.452 430.97 325.13C430.418 326.698 430.214 328.367 430.373 330.022C430.532 331.677 431.05 333.277 431.891 334.71C432.732 336.144 433.876 337.377 435.242 338.324C436.609 339.27 438.165 339.907 439.803 340.19C462.616 344.024 505.097 349.772 502.171 338.829C498.3 324.353 484.834 293.195 489.822 276.72C491.637 270.996 492.78 265.079 493.226 259.091L493.331 257.388Z" fill="#3F3D56"/>
<path d="M459.039 227.14C468.965 227.14 477.011 219.094 477.011 209.168C477.011 199.242 468.965 191.195 459.039 191.195C449.113 191.195 441.066 199.242 441.066 209.168C441.066 219.094 449.113 227.14 459.039 227.14Z" fill="#FFD4AF"/>
<path d="M454.134 226.199L467.833 225.5C469.589 225.411 471.505 225.256 472.781 224.048C473.468 223.302 473.997 222.424 474.334 221.468C475.601 218.526 476.867 215.584 478.102 212.629C479.809 208.54 481.485 204.224 481.05 199.815C480.947 197.801 480.103 195.897 478.679 194.47C477.953 193.782 477.019 193.354 476.023 193.253C475.028 193.152 474.027 193.384 473.178 193.912C472.966 192.518 472.441 191.189 471.641 190.028C470.841 188.866 469.787 187.902 468.56 187.207C466.081 185.838 463.25 185.238 460.428 185.483C456.334 185.747 452.425 187.288 449.251 189.889C448.359 190.712 447.406 191.467 446.4 192.148C445.894 192.486 445.325 192.718 444.726 192.829C444.128 192.939 443.514 192.927 442.92 192.792C442.332 192.635 441.821 192.27 441.482 191.766C441.142 191.261 440.996 190.651 441.071 190.047C440.107 190.768 439.445 191.823 439.216 193.006C438.987 194.189 439.206 195.414 439.832 196.444C439.121 196.742 438.345 196.851 437.579 196.76C436.813 196.67 436.084 196.382 435.462 195.927C434.796 196.258 434.206 196.724 433.73 197.296C433.254 197.867 432.903 198.532 432.699 199.248C432.495 199.963 432.443 200.713 432.545 201.45C432.648 202.187 432.903 202.894 433.295 203.527C433.687 204.159 434.207 204.702 434.821 205.122C435.435 205.542 436.13 205.83 436.861 205.965C437.592 206.101 438.344 206.083 439.068 205.911C439.792 205.74 440.472 205.419 441.065 204.97C441.896 206.134 441.587 207.717 441.478 209.144C441.37 210.571 441.753 212.344 443.128 212.738C444.988 213.271 446.494 210.768 448.428 210.794C448.905 210.833 449.366 210.989 449.768 211.248C450.17 211.508 450.503 211.862 450.735 212.281C451.191 213.122 451.503 214.033 451.658 214.976L454.134 226.121" fill="#2F2E41"/>
<path d="M378.508 237.194C379.568 237.15 380.625 237.339 381.604 237.748C382.583 238.157 383.461 238.776 384.175 239.561C384.889 240.346 385.422 241.278 385.737 242.291C386.052 243.304 386.141 244.374 385.998 245.426L400.321 253.791L397.36 263.735L377.299 251.637C375.549 251.279 373.991 250.292 372.92 248.862C371.849 247.432 371.339 245.659 371.488 243.879C371.637 242.098 372.434 240.435 373.728 239.202C375.021 237.97 376.722 237.256 378.508 237.194Z" fill="#FFD4AF"/>
<path d="M395.373 268.412L384.676 256.836L392.091 245.749L400.084 252.455L408.822 254.545L421.152 259.221C422.869 256.218 436.188 233.563 444.804 237.759C445.829 238.208 446.743 238.874 447.486 239.711C448.229 240.548 448.781 241.535 449.106 242.606C450.616 247.722 446.933 253.902 446.792 254.131L439.316 269.486C439.163 270.391 437.488 279.743 432.765 283.057C432.098 283.545 431.336 283.889 430.529 284.068C429.721 284.246 428.886 284.255 428.075 284.093C413.4 281.318 403.059 277.026 397.782 271.566C396.852 270.618 396.043 269.559 395.373 268.412Z" fill="#3F3D56"/>
<path d="M205.091 228.657C203.444 225.116 206.057 221.162 206.99 217.349C208.73 210.234 203.827 202.532 197.18 200.066C190.534 197.601 182.896 199.662 177.187 203.975C171.59 208.204 167.655 210.196 163.8 216.172C162.507 218.175 161.138 224.396 160.894 226.796C160.649 229.196 161.891 231.946 164.154 232.472C163.937 232.9 163.842 233.379 163.879 233.858C163.915 234.336 164.083 234.796 164.362 235.186C164.642 235.576 165.023 235.882 165.465 236.07C165.906 236.259 166.391 236.322 166.866 236.254C171.198 235.418 179.156 237.718 179.156 237.718C186.575 238.143 193.994 238.567 201.413 238.992C203.314 239.101 205.287 239.2 206.995 238.15C207.467 237.873 207.875 237.497 208.188 237.048C208.502 236.6 208.714 236.088 208.812 235.549C209.246 232.739 206.226 231.099 205.091 228.657Z" fill="#2F2E41"/>
<path d="M210.694 254.643L209.07 265.449L206.496 282.57L206.059 288.913L202.856 335.406L194.032 342.193C188.923 346.123 182.545 348.035 176.117 347.563C169.689 347.092 163.659 344.27 159.178 339.636L148.463 334.477C154.206 328.827 153.138 302.644 153.138 302.644L153.073 251.217L167.598 246.333L172.383 236.914H189.546L193.837 246.926L201.625 250.488L205.173 252.118L210.694 254.643Z" fill="#E6E6E6"/>
<path d="M181.674 237.087C189.689 237.087 196.186 230.589 196.186 222.575C196.186 214.56 189.689 208.062 181.674 208.062C173.659 208.062 167.162 214.56 167.162 222.575C167.162 230.589 173.659 237.087 181.674 237.087Z" fill="#FFD4AF"/>
<path d="M173.383 218.022C169.549 218.028 165.807 216.847 162.671 214.642L162.566 214.569C162.566 212.715 162.932 210.88 163.641 209.167C164.35 207.454 165.39 205.898 166.701 204.588C168.012 203.277 169.568 202.237 171.28 201.528C172.993 200.818 174.828 200.453 176.682 200.453H182.444C184.286 200.455 186.109 200.82 187.809 201.528C189.509 202.236 191.053 203.271 192.352 204.576C193.651 205.881 194.681 207.43 195.381 209.133C196.081 210.836 196.438 212.661 196.432 214.502C196.42 215.343 196.08 216.146 195.485 216.74C194.89 217.333 194.087 217.672 193.247 217.682L173.714 218.019C173.604 218.021 173.493 218.022 173.383 218.022Z" fill="#2F2E41"/>
<path d="M215.862 284.477L202.717 284.584L201.751 307.981L191.07 321.057C189.771 321.276 188.557 321.849 187.564 322.714C186.57 323.579 185.835 324.702 185.439 325.959C185.044 327.216 185.003 328.558 185.322 329.836C185.641 331.114 186.307 332.28 187.247 333.203C188.187 334.127 189.364 334.772 190.647 335.069C191.931 335.366 193.272 335.302 194.521 334.885C195.771 334.467 196.881 333.712 197.729 332.704C198.577 331.695 199.129 330.472 199.325 329.169L214.038 308.773L215.862 284.477Z" fill="#FFD4AF"/>
<path d="M146.55 285.174L133.075 278.875L118.361 297.092L101.993 301.231C100.819 300.633 99.5027 300.371 98.1892 300.473C96.8756 300.576 95.6161 301.04 94.5497 301.814C93.4832 302.588 92.6514 303.641 92.1461 304.858C91.6408 306.075 91.4817 307.408 91.6863 308.709C91.891 310.011 92.4514 311.231 93.3057 312.234C94.16 313.237 95.2749 313.984 96.5273 314.393C97.7797 314.803 99.1208 314.858 100.403 314.553C101.684 314.247 102.857 313.594 103.79 312.664L127.758 305.047L146.55 285.174Z" fill="#FFD4AF"/>
<path d="M188.936 235.961L193.96 229.692C194.503 229.143 194.856 228.435 194.968 227.671C194.995 226.905 194.273 226.085 193.545 226.325C192.869 226.548 188.975 216.792 188.263 216.794C187.526 216.796 187.285 215.812 187.276 215.075C187.24 212.281 189.512 215.281 190.263 212.589C191.014 209.897 193.941 212.212 196.464 211.01C198.987 209.807 202.415 210.353 203.974 212.673C205.131 214.392 205.088 216.626 204.935 218.693C204.578 223.488 203.857 228.249 202.776 232.935C202.511 234.086 202.116 235.372 201.055 235.892C200.471 236.123 199.842 236.217 199.216 236.166L191.48 236.128" fill="#2F2E41"/>
<path d="M200.989 209.014C204.939 209.014 208.141 205.812 208.141 201.863C208.141 197.913 204.939 194.711 200.989 194.711C197.04 194.711 193.838 197.913 193.838 201.863C193.838 205.812 197.04 209.014 200.989 209.014Z" fill="#2F2E41"/>
<path d="M217.072 284.251C216.3 285.595 214.655 286.132 213.153 286.547C211.122 287.112 210.529 287.684 208.498 288.249C207.689 288.477 206.874 288.706 206.059 288.914C204.721 289.274 203.362 289.554 201.99 289.75C200.838 289.915 199.479 289.915 198.729 289.021C198.23 288.253 198.03 287.33 198.164 286.425C198.457 275.44 198.752 264.455 199.05 253.47L199.673 253.685C199.953 253.5 200.244 253.333 200.545 253.184C201.977 252.455 203.566 252.089 205.172 252.119C206.091 252.126 207.005 252.268 207.883 252.541C209.246 252.973 210.498 253.698 211.553 254.664C212.608 255.629 213.439 256.814 213.99 258.133C214.703 260.126 215.043 262.233 214.991 264.348C214.998 264.67 214.998 264.992 215.005 265.314C215.048 268.06 213.654 270.806 213.697 273.552C213.664 274.325 213.771 275.098 214.011 275.833C214.297 276.563 214.855 277.171 215.07 277.929C215.284 278.68 214.934 279.71 214.154 279.767C214.705 279.708 215.261 279.803 215.761 280.041C216.262 280.278 216.686 280.65 216.988 281.114C217.29 281.578 217.458 282.117 217.473 282.671C217.488 283.224 217.349 283.771 217.072 284.251Z" fill="#E6E6E6"/>
<path d="M153.133 251.281C154.563 251.367 155.957 251.768 157.214 252.454C158.472 253.141 159.562 254.097 160.407 255.253C161.253 256.41 161.833 257.739 162.105 259.146C162.378 260.552 162.336 262.002 161.984 263.39C161.237 265.71 160.062 267.87 158.52 269.758L153.713 276.448C153.225 277.048 152.85 277.731 152.606 278.464C152.403 279.223 152.483 280.045 152.206 280.779C151.929 281.514 151.037 282.13 150.375 281.709C150.852 281.99 151.242 282.397 151.502 282.886C151.763 283.375 151.883 283.926 151.849 284.479C151.816 285.032 151.63 285.564 151.313 286.018C150.996 286.472 150.559 286.83 150.052 287.051C148.626 287.674 146.987 287.118 145.534 286.562L139.631 284.303C137.532 283.554 135.486 282.662 133.508 281.635C132.487 281.074 131.396 280.266 131.323 279.103C131.267 278.197 132.032 277.501 132.416 276.679C137.224 266.387 144.293 258.197 153.073 251.219L153.133 251.281Z" fill="#E6E6E6"/>
<path d="M643.941 529.233L1.19113 529.54C0.87594 529.539 0.573962 529.414 0.35141 529.19C0.128858 528.967 0.00390625 528.665 0.00390625 528.35C0.00390625 528.034 0.128858 527.732 0.35141 527.509C0.573962 527.286 0.87594 527.16 1.19113 527.159L643.941 526.852C644.256 526.852 644.558 526.978 644.781 527.201C645.003 527.425 645.128 527.727 645.128 528.042C645.128 528.357 645.003 528.66 644.781 528.883C644.558 529.106 644.256 529.232 643.941 529.233Z" fill="#CACACA"/>
<path d="M85.959 335.343L97.1445 300L189.147 329.117L199.179 335.532C208.909 353.225 207.163 361.226 188.925 367.93C148.777 327.632 126.215 326.101 85.959 335.343Z" fill="#C22F2F"/>
</g>
<defs>
<clipPath id="clip0_200_53">
<rect width="645.131" height="529.537" fill="white"/>
</clipPath>
</defs>
</svg>
