<svg width="856" height="582" viewBox="0 0 856 582" fill="none" xmlns="http://www.w3.org/2000/svg">
<g clip-path="url(#clip0_200_99)">
<path d="M519.742 326.234C521.201 326.234 522.6 326.814 523.631 327.845C524.663 328.877 525.242 330.276 525.242 331.734V384.941H630.742C632.201 384.941 633.6 385.52 634.631 386.551C635.663 387.583 636.242 388.982 636.242 390.441C636.242 391.899 635.663 393.298 634.631 394.33C633.6 395.361 632.201 395.941 630.742 395.941H525.242V579.941H514.242V331.734C514.242 330.276 514.822 328.877 515.853 327.845C516.885 326.814 518.284 326.234 519.742 326.234Z" fill="#E6E6E6"/>
<path d="M226.148 578.696L206.316 579.244C203.303 579.399 200.323 578.563 197.83 576.865C195.676 575.263 194.688 573.097 195.121 570.923L199.024 551.31C199.759 547.61 204.294 544.813 209.804 544.66L220.756 544.358C226.267 544.206 230.948 546.748 231.887 550.402L236.866 569.77C237.418 571.918 236.551 574.134 234.489 575.853C232.094 577.686 229.164 578.685 226.148 578.696Z" fill="#3F3D56"/>
<path d="M346.777 578.134L326.945 578.682C323.932 578.836 320.952 578.001 318.459 576.303C316.305 574.701 315.317 572.535 315.75 570.36L319.653 550.747C320.388 547.047 324.923 544.25 330.433 544.098L341.385 543.796C346.896 543.643 351.577 546.186 352.516 549.84L357.495 569.207C358.047 571.355 357.18 573.572 355.118 575.29C352.723 577.124 349.793 578.122 346.777 578.134Z" fill="#3F3D56"/>
<path d="M157.281 411.629C156.375 411.238 155.63 410.55 155.168 409.678C154.706 408.807 154.556 407.803 154.742 406.834C154.928 405.865 155.439 404.989 156.191 404.35C156.943 403.711 157.89 403.348 158.876 403.321L384.344 397.095C384.913 397.08 385.478 397.176 386.01 397.379C386.541 397.582 387.027 397.887 387.44 398.278C387.853 398.669 388.185 399.137 388.417 399.656C388.649 400.175 388.777 400.735 388.793 401.303C388.823 402.451 388.397 403.564 387.608 404.398C386.819 405.232 385.731 405.719 384.584 405.752L159.115 411.978C158.486 411.997 157.86 411.878 157.281 411.629Z" fill="#908F9A"/>
<path d="M240.492 336.986L176.043 338.766L182.052 556.363L246.501 554.583L240.492 336.986Z" fill="#E6E6E6"/>
<path d="M207.93 280.121C195.873 280.463 186.673 301.33 186.895 309.473L187.302 324.214L230.961 323.009L230.554 308.267C230.325 300.125 219.988 279.798 207.93 280.121Z" fill="#908F9A"/>
<path d="M176.878 428.878C174.625 428.938 172.44 428.101 170.804 426.553C169.167 425.004 168.211 422.869 168.146 420.616L167.484 396.625C167.421 394.372 168.257 392.186 169.806 390.548C171.356 388.911 173.492 387.956 175.746 387.894C177.999 387.832 180.185 388.667 181.823 390.217C183.46 391.766 184.415 393.903 184.477 396.156L185.14 420.147C185.199 422.4 184.363 424.584 182.814 426.221C181.265 427.858 179.13 428.813 176.878 428.878Z" fill="#908F9A"/>
<path d="M193.233 339.286L192.928 323.431L197.086 323.328L197.391 339.132L201.16 569.478L197.001 569.593" fill="#706F7B"/>
<path d="M247.882 376.359L173.144 378.423C166.005 369.718 165.357 332.631 180.254 325.572L186.097 315.652L231.139 313.453L236.403 323.898C243.814 330.204 247.635 367.06 247.882 376.359Z" fill="#D9D9D9"/>
<path d="M219.752 358.577L200.852 359.099C197.204 359.199 194.104 354.468 193.94 348.552C193.777 342.637 196.612 337.741 200.259 337.641L219.159 337.119C222.806 337.018 225.907 341.75 226.07 347.665C226.234 353.58 223.399 358.476 219.752 358.577Z" fill="#908F9A"/>
<path d="M183.152 465.57L144.193 493.09L137.387 555.14L182.835 539.955L183.152 465.57Z" fill="#D9D9D9"/>
<path d="M364.902 334.322L300.453 336.102L306.462 553.699L370.911 551.919L364.902 334.322Z" fill="#E6E6E6"/>
<path d="M397.133 273.913C401.798 273.913 405.58 268.841 405.58 262.585C405.58 256.329 401.798 251.258 397.133 251.258C392.468 251.258 388.686 256.329 388.686 262.585C388.686 268.841 392.468 273.913 397.133 273.913Z" fill="#FFBF26"/>
<path d="M331.083 277.488C319.025 277.831 309.826 298.697 310.047 306.84L310.454 321.582L354.113 320.376L353.706 305.634C353.477 297.492 343.141 277.165 331.083 277.488Z" fill="#908F9A"/>
<path d="M343.567 344.248L343.262 328.393L347.42 328.289L347.725 344.094L351.494 574.44L347.335 574.555" fill="#706F7B"/>
<path d="M371.034 373.734L296.296 375.798C294.992 367.921 296.678 331.165 303.407 322.947L309.249 313.027L354.291 310.828L359.555 321.273C372.854 322.357 377.506 358.476 371.034 373.734Z" fill="#D9D9D9"/>
<path d="M342.995 359.254L324.095 359.776C320.448 359.877 317.326 354.403 317.138 347.575C316.949 340.747 319.764 335.108 323.411 335.008L342.311 334.486C345.958 334.385 349.079 339.859 349.268 346.687C349.456 353.515 346.642 359.154 342.995 359.254Z" fill="#908F9A"/>
<path d="M368.087 449.664L405.75 478.932L409.716 541.229L365.01 523.985L368.087 449.664Z" fill="#D9D9D9"/>
<path d="M349.981 130.481C309.568 130.481 263.124 85.6349 222.032 106.943C97.617 171.456 114.743 63.5026 79 23.3537L80.1735 21C107.233 124.218 131.716 288.692 222.572 104.205C245.331 57.9909 320.027 129.425 363.996 127.317L364.072 130.147C359.429 130.371 354.732 130.482 349.981 130.481Z" fill="#F6F6F6"/>
<path d="M468.181 137.984C435.966 162.383 371.865 154.675 351.973 196.47C291.745 323.016 240.219 226.619 187.486 216.194L187 213.609C239.79 217.988 296.414 211.194 350.751 193.962C399.855 178.39 443.666 155.226 477.443 127L479.212 129.209C475.646 132.191 471.969 135.116 468.181 137.984Z" fill="#F6F6F6"/>
<path d="M104.133 161.913C108.798 161.913 112.58 156.841 112.58 150.585C112.58 144.329 108.798 139.258 104.133 139.258C99.4676 139.258 95.6855 144.329 95.6855 150.585C95.6855 156.841 99.4676 161.913 104.133 161.913Z" fill="#FFBF26"/>
<path d="M366.133 69.9128C370.798 69.9128 374.58 64.8413 374.58 58.5853C374.58 52.3293 370.798 47.2578 366.133 47.2578C361.468 47.2578 357.686 52.3293 357.686 58.5853C357.686 64.8413 361.468 69.9128 366.133 69.9128Z" fill="#FFBF26"/>
<path d="M181.47 207.629C177.608 210.202 173.656 204.078 177.592 201.619C181.454 199.046 185.406 205.17 181.47 207.629Z" fill="#E6E6E6"/>
<path d="M324.47 6.62918C320.608 9.20237 316.656 3.07794 320.592 0.619005C324.454 -1.95405 328.406 4.17039 324.47 6.62918Z" fill="#E6E6E6"/>
<path d="M408.75 125.801L406.293 125.262L406.831 122.804L405.193 122.445L404.654 124.903L402.197 124.365L401.838 126.003L404.295 126.542L403.757 128.999L405.395 129.358L405.934 126.9L408.391 127.439L408.75 125.801Z" fill="#E6E6E6"/>
<path d="M183.534 43.4359C189.445 43.4359 194.237 38.6443 194.237 32.7336C194.237 26.8228 189.445 22.0312 183.534 22.0312C177.624 22.0312 172.832 26.8228 172.832 32.7336C172.832 38.6443 177.624 43.4359 183.534 43.4359Z" fill="#D9D9D9"/>
<path d="M261.815 19.1913C249.758 19.5338 240.558 40.4005 240.779 48.5432L241.186 63.2848L284.845 62.0792L284.438 47.3376C284.21 39.195 273.873 18.8679 261.815 19.1913Z" fill="#908F9A"/>
<path d="M287.812 577.407L267.98 577.955C264.967 578.11 261.987 577.274 259.494 575.576C257.34 573.974 256.352 571.808 256.785 569.633L260.688 550.021C261.424 546.321 265.958 543.524 271.468 543.371L282.421 543.069C287.931 542.917 292.612 545.459 293.551 549.113L298.53 568.481C299.082 570.628 298.215 572.845 296.154 574.564C293.758 576.397 290.828 577.396 287.812 577.407Z" fill="#3F3D56"/>
<path d="M296.656 113.033L232.207 114.812L244.353 554.661L308.802 552.881L296.656 113.033Z" fill="#E6E6E6"/>
<path d="M270.868 325.95L270.562 310.095L274.721 309.992L275.026 325.796L278.795 556.142L274.635 556.257" fill="#706F7B"/>
<path d="M309.344 153.288L222.018 155.7C220.496 146.496 222.465 103.55 230.327 93.9474L232.481 82.4854L292.778 80.8203L295.933 91.9914C304.591 99.3594 309.056 142.422 309.344 153.288Z" fill="#D9D9D9"/>
<path d="M294.686 82.1744L232.463 83.8926C230.166 83.956 228.27 82.7502 228.227 81.1993C228.221 80.9758 228.254 80.7531 228.324 80.5408L237.989 50.7656C238.403 49.4906 240.05 48.5542 241.973 48.5011L283.237 47.3617C285.16 47.3087 286.857 48.1527 287.34 49.4029L298.634 78.5993C299.211 80.0926 297.877 81.6466 295.654 82.0702C295.335 82.1308 295.011 82.1656 294.686 82.1744Z" fill="#D9D9D9"/>
<path d="M238.6 323.926C238.038 323.686 237.507 323.378 237.019 323.011C236.319 322.52 235.741 321.875 235.328 321.126C234.916 320.377 234.68 319.544 234.64 318.69L232.379 236.812C232.286 233.423 235.604 230.572 239.777 230.456L295.48 228.918C299.653 228.802 303.123 231.467 303.217 234.856L305.478 316.734C305.484 317.589 305.295 318.434 304.925 319.205C304.554 319.975 304.013 320.651 303.341 321.18C301.853 322.392 299.998 323.065 298.079 323.09L242.377 324.627C241.082 324.671 239.793 324.432 238.6 323.926Z" fill="#E6E6E6"/>
<path d="M274.253 76.9074L255.353 77.4294C251.706 77.5301 248.622 73.4095 248.48 68.2451C248.337 63.0808 251.189 58.7963 254.836 58.6956L273.736 58.1737C277.383 58.073 280.467 62.1936 280.61 67.3579C280.752 72.5222 277.901 76.8067 274.253 76.9074Z" fill="#908F9A"/>
<path d="M721.01 562.53H699.01V402.653C717.412 401.333 731.242 395.698 731.242 388.945C731.242 381.213 713.11 374.945 690.742 374.945C668.375 374.945 650.242 381.213 650.242 388.945C650.242 395.763 664.342 401.439 683.01 402.687V562.53H661.01C658.888 562.53 656.853 563.373 655.353 564.873C653.852 566.373 653.01 568.408 653.01 570.53C653.01 572.652 653.852 574.686 655.353 576.187C656.853 577.687 658.888 578.53 661.01 578.53H721.01C723.131 578.53 725.166 577.687 726.666 576.187C728.167 574.686 729.01 572.652 729.01 570.53C729.01 568.408 728.167 566.373 726.666 564.873C725.166 563.373 723.131 562.53 721.01 562.53Z" fill="#D9D9D9"/>
<path d="M676.848 481.366L669.621 489.241L635.807 465.115L646.472 453.492L676.848 481.366Z" fill="#FFD4AF"/>
<path d="M658.368 502.148C658.439 503.909 658.859 505.638 659.603 507.236C660.347 508.833 661.401 510.268 662.703 511.455L663.022 511.751L672.499 501.422L686.32 486.359L676.117 476.992L674.275 479.005L674.083 479.212L664.901 483.555L662.955 484.48L662.622 484.635L661.89 492.5V492.507C660.692 493.8 659.765 495.318 659.16 496.973C658.555 498.629 658.286 500.387 658.368 502.148Z" fill="#2F2E41"/>
<path d="M714.288 559.923L704.061 563.03L687.211 525.062L702.305 520.477L714.288 559.923Z" fill="#FFD4AF"/>
<path d="M686.801 578.644L686.926 579.065L719.902 569.048L715.877 555.797L713.273 556.588L712.999 556.67L700.74 555.545L700.377 555.516L695.738 561.915C692.335 562.949 689.481 565.292 687.805 568.429C686.129 571.566 685.768 575.24 686.801 578.644Z" fill="#2F2E41"/>
<path d="M629.956 361.125C629.956 361.125 564.662 424.167 605.94 443.681H618.698C621.471 434.666 625.734 426.18 631.31 418.573C632.515 416.996 637.031 417.316 638.285 415.779C645.942 406.392 654.243 398.33 659.976 398.651L658.605 442.209L656.385 457.746C655.219 465.778 688.112 535.907 688.112 535.907L708.786 527.782C708.786 527.782 687.246 470.02 686.994 461.693L704.256 370.131L629.956 361.125Z" fill="#2F2E41"/>
<path d="M624.513 364.238C624.845 364.713 625.28 365.107 625.785 365.392C626.617 365.863 627.519 366.197 628.456 366.384C643.157 369.721 691.182 376.638 703.648 373.338C705.18 372.939 706.179 372.377 706.504 371.637C707.548 369.299 707.414 359.422 706.8 347.495C706.689 345.261 704.226 342.841 704.078 340.503C703.974 338.75 706.186 337.1 706.068 335.317C705.254 323.257 704.203 310.968 703.501 303.199C703.057 298.205 702.753 295.083 702.753 295.083L710.337 247.266L709.982 246.681L709.582 246.481L685.13 234.377L683.798 230.974C683.412 229.994 682.741 229.152 681.872 228.557C681.003 227.962 679.975 227.642 678.922 227.637L662.815 227.57C661.98 227.566 661.155 227.761 660.41 228.139C659.665 228.517 659.021 229.068 658.532 229.746L654.166 235.79L625.312 254.287L625.423 254.627L638.962 295.83L639.029 299.041V299.049L639.532 324.87L638.134 328.369L639.709 334.111C639.709 334.111 638.984 340.821 635.1 345.808C631.578 350.336 627.095 355.056 625.067 358.889V358.896C623.943 361.012 623.566 362.847 624.513 364.238Z" fill="#3F3D56"/>
<path d="M602.805 439.938L606.295 444.348C606.295 444.348 638.393 466.804 639.495 468.903L644.567 473.703L656.841 460.582L650.458 452.582C645.35 446.179 638.751 441.127 631.237 437.866L621.455 429.188L602.805 439.938Z" fill="#2F2E41"/>
<path d="M718.425 379.134L712.58 322.556L711.037 299.271L727.397 296.312C727.397 296.312 726.749 312.962 728.893 322.356C731.008 331.626 729.173 377.892 729.042 379.129C730.244 380.203 731.091 381.617 731.471 383.183C731.852 384.75 731.748 386.395 731.173 387.9C730.598 389.406 729.58 390.702 728.253 391.617C726.926 392.531 725.352 393.021 723.74 393.022C722.129 393.023 720.554 392.534 719.226 391.621C717.898 390.708 716.879 389.413 716.303 387.908C715.726 386.402 715.621 384.757 716 383.191C716.379 381.624 717.225 380.21 718.425 379.134Z" fill="#FFD4AF"/>
<path d="M698.943 293.443L703.501 303.195L705.092 306.591L709.375 329.023L711.514 331.295L713.356 338.627L714.222 338.449L729.833 335.216L734.383 334.276C735.408 332.568 735.812 330.557 735.527 328.585C735.241 326.613 734.283 324.799 732.814 323.452C732.504 323.171 732.245 322.897 732.252 322.638C732.511 307.034 731.557 278.542 722.937 266.815C720.2 263.094 718.557 259.387 716.167 256.798C716.16 256.79 716.16 256.783 716.153 256.783L710.337 247.261L709.982 246.676L709.583 246.477L698.943 293.443Z" fill="#3F3D56"/>
<path d="M672.128 228.564C683.964 228.564 693.559 218.97 693.559 207.134C693.559 195.298 683.964 185.703 672.128 185.703C660.292 185.703 650.697 195.298 650.697 207.134C650.697 218.97 660.292 228.564 672.128 228.564Z" fill="#FFD4AF"/>
<path d="M697.575 202.523C698.203 198.922 698.692 194.253 696.894 190.103C695.374 186.61 691.574 183.335 687.349 183.777C687.549 182.988 687.527 182.16 687.285 181.383C687.042 180.606 686.589 179.912 685.976 179.378C684.601 178.298 682.997 177.544 681.288 177.173C677.317 176.006 673.204 174.796 668.957 174.774C664.19 174.748 659.966 176.381 657.376 179.26L657.313 179.353L656.537 181.207C656.433 181.455 656.276 181.679 656.078 181.861C655.88 182.044 655.644 182.181 655.388 182.264C655.131 182.349 654.858 182.376 654.59 182.343C654.321 182.31 654.063 182.218 653.834 182.074C653.583 181.919 653.296 181.833 653.001 181.823C652.706 181.814 652.414 181.881 652.154 182.019C651.893 182.157 651.673 182.361 651.515 182.61C651.357 182.859 651.267 183.145 651.254 183.44L651.212 184.231L650.1 183.787C649.821 183.675 649.517 183.638 649.22 183.682C648.922 183.726 648.642 183.849 648.408 184.038C648.173 184.226 647.994 184.474 647.887 184.755C647.781 185.037 647.751 185.341 647.802 185.638L647.95 186.579C647.71 186.535 647.465 186.541 647.228 186.594C646.991 186.647 646.767 186.748 646.57 186.89C646.287 187.098 646.078 187.39 645.972 187.724C645.866 188.058 645.869 188.417 645.98 188.75C646.843 191.211 648.317 193.413 650.264 195.149C651.138 195.939 652.117 196.605 653.173 197.127C653.392 197.238 653.62 197.342 653.857 197.441C662.398 201.103 671.536 203.173 680.821 203.549C679.943 205.224 679.375 207.044 679.146 208.921C679.019 209.986 679.187 211.066 679.63 212.043C680.073 213.02 680.775 213.857 681.66 214.463C682.044 214.682 682.447 214.867 682.864 215.014C683.263 215.161 683.649 215.34 684.019 215.549C684.561 215.877 685.007 216.342 685.312 216.898C685.616 217.453 685.769 218.08 685.754 218.713C685.739 219.347 685.557 219.965 685.226 220.506C684.895 221.046 684.428 221.49 683.871 221.792C683.871 221.792 685.465 223.739 685.721 223.706C686.737 223.475 687.655 222.932 688.346 222.153C692.987 217.646 696.092 211.046 697.575 202.523Z" fill="#2F2E41"/>
<path d="M855.157 580.35C855.157 580.554 855.118 580.756 855.04 580.945C854.962 581.134 854.847 581.305 854.703 581.45C854.559 581.594 854.387 581.708 854.198 581.786C854.01 581.864 853.808 581.904 853.603 581.903H1.55322C1.14128 581.903 0.746211 581.74 0.454926 581.448C0.16364 581.157 0 580.762 0 580.35C0 579.938 0.16364 579.543 0.454926 579.252C0.746211 578.96 1.14128 578.797 1.55322 578.797H853.603C853.808 578.796 854.01 578.836 854.198 578.914C854.387 578.992 854.559 579.106 854.703 579.25C854.847 579.395 854.962 579.566 855.04 579.755C855.118 579.944 855.157 580.146 855.157 580.35Z" fill="#CCCCCC"/>
<path d="M366.498 423.563C364.246 423.622 362.061 422.786 360.424 421.237C358.788 419.688 357.832 417.553 357.767 415.301L357.105 391.31C357.045 389.058 357.882 386.875 359.431 385.24C360.981 383.605 363.115 382.651 365.367 382.589C367.619 382.527 369.803 383.361 371.44 384.908C373.077 386.455 374.033 388.589 374.098 390.841L374.761 414.831C374.82 417.084 373.984 419.269 372.435 420.905C370.886 422.542 368.751 423.498 366.498 423.563Z" fill="#908F9A"/>
<path d="M603.602 368.421C596.188 368.273 556.362 367.13 549.832 367.411C549.462 366.118 537.082 381.983 536.781 382.082C536.58 382.294 536.434 382.551 536.354 382.832C536.274 383.112 536.264 383.408 536.323 383.694C536.382 383.979 536.51 384.246 536.695 384.472C536.88 384.698 537.117 384.875 537.385 384.989C538.113 385.432 602.317 384.244 603.095 384.399C603.432 384.393 603.76 384.293 604.042 384.109C604.324 383.926 604.548 383.666 604.689 383.36L605.118 382.399C605.163 380.755 605.701 372.351 605.218 370.914C605.336 370.645 605.386 370.35 605.362 370.056C605.339 369.762 605.243 369.479 605.082 369.232C604.922 368.985 604.703 368.781 604.445 368.639C604.186 368.498 603.897 368.423 603.602 368.421Z" fill="#E6E6E6"/>
<path opacity="0.17" d="M605.117 382.398C604.74 383.304 604.258 384.442 603.094 384.4L538.063 385.13C537.755 385.126 537.454 385.044 537.187 384.89C536.921 384.736 536.698 384.517 536.541 384.253C536.384 383.988 536.297 383.688 536.29 383.38C536.282 383.073 536.354 382.768 536.497 382.497L605.117 382.398Z" fill="black"/>
<path d="M550.136 367.216C549.436 366.006 532.049 279.978 530.598 279.259L518.728 264.738L517.667 263.94C516.192 263.129 512.653 263.677 512.971 265.931C515.76 279.301 533.697 355.449 534.09 367.321L536.249 382.445C536.288 382.703 536.38 382.949 536.519 383.169C536.659 383.388 536.843 383.576 537.06 383.721C537.276 383.865 537.521 383.962 537.777 384.006C538.034 384.05 538.297 384.039 538.549 383.975C539.168 383.909 539.759 383.682 540.263 383.317C540.768 382.953 541.169 382.463 541.426 381.896C541.588 381.362 550.948 367.526 550.136 367.216Z" fill="#E6E6E6"/>
<path opacity="0.17" d="M518.725 264.737L541.429 381.898C540.669 383.82 537.117 385.166 536.289 382.645C536.275 382.642 512.998 266.002 512.974 265.932C512.726 263.125 517.365 263.036 518.725 264.737Z" fill="black"/>
<path d="M519.408 269.531L530.938 285.603L543.88 347.068L537.864 352.316L519.408 269.531Z" fill="#3F3D56"/>
<path d="M596.158 376.711L599.348 376.841C599.398 375.906 599.552 374.981 599.808 374.081C600.288 371.801 600.718 369.091 598.728 369.101C597.378 368.971 596.918 370.681 596.678 372.541C596.616 373.942 596.442 375.337 596.158 376.711Z" fill="#2F2E41"/>
<path d="M577.859 372.42L580.009 372.5L581.049 372.54C581.029 371.4 581.559 369.05 580.269 368.47C580.064 368.381 579.843 368.337 579.619 368.34C578.409 368.27 578.049 369.19 577.939 370.25C577.869 370.89 577.899 371.57 577.879 372.1C577.879 372.21 577.869 372.32 577.859 372.42Z" fill="#2F2E41"/>
<path d="M571.488 372.162L573.648 372.252L574.678 372.292C574.658 370.982 575.348 368.122 573.248 368.082C571.308 367.972 571.558 370.442 571.508 371.842C571.508 371.952 571.498 372.062 571.488 372.162Z" fill="#2F2E41"/>
<path d="M565.119 371.912L567.269 371.992L568.309 372.032C568.289 370.732 568.979 367.872 566.879 367.832C564.939 367.712 565.189 370.182 565.139 371.592C565.139 371.702 565.129 371.812 565.119 371.912Z" fill="#2F2E41"/>
<path d="M558.748 371.654L560.908 371.744L561.938 371.784C561.918 370.474 562.608 367.624 560.508 367.574C558.568 367.464 558.818 369.934 558.768 371.334C558.768 371.444 558.758 371.554 558.748 371.654Z" fill="#2F2E41"/>
<path d="M552.379 371.398L554.529 371.478L555.569 371.518C555.549 370.318 556.129 367.808 554.589 367.378H554.579C554.436 367.336 554.288 367.316 554.139 367.318C553.957 367.302 553.774 367.319 553.599 367.368H553.589C552.249 367.718 552.439 369.818 552.399 371.078C552.399 371.188 552.389 371.298 552.379 371.398Z" fill="#2F2E41"/>
<path d="M589.729 370.717L592.919 370.847C592.919 370.727 592.918 370.597 592.928 370.447C593.007 369.686 593.021 368.92 592.969 368.157C592.859 367.317 592.498 366.657 591.488 366.637C590.458 366.577 590.048 367.237 589.888 368.087C589.851 368.231 589.825 368.378 589.808 368.527V368.537C589.728 369.317 589.779 370.157 589.729 370.717Z" fill="#2F2E41"/>
<path d="M583.359 370.458L586.549 370.588C586.617 369.729 586.637 368.868 586.609 368.008C586.519 367.128 586.169 366.408 585.119 366.388C584.059 366.318 583.649 367.038 583.489 367.928C583.339 368.788 583.419 369.818 583.359 370.458Z" fill="#2F2E41"/>
<path d="M576.988 370.208L577.938 370.248L580.178 370.338C580.168 369.858 580.258 369.158 580.268 368.468C580.277 368.261 580.27 368.054 580.248 367.848C580.168 366.918 579.838 366.148 578.748 366.128C577.638 366.068 577.248 366.838 577.108 367.778C576.968 368.618 577.048 369.588 576.988 370.208Z" fill="#2F2E41"/>
<path d="M589.789 376.459L592.979 376.579C592.969 375.279 593.649 372.419 591.549 372.379C589.449 372.249 589.909 375.149 589.789 376.459Z" fill="#2F2E41"/>
<path d="M583.418 376.201L586.608 376.331C586.598 375.021 587.278 372.161 585.178 372.121C583.078 372.001 583.538 374.901 583.418 376.201Z" fill="#2F2E41"/>
<path d="M577.049 375.947L580.239 376.067C580.229 375.137 580.579 373.417 580.009 372.497C579.884 372.293 579.707 372.127 579.496 372.016C579.285 371.905 579.047 371.854 578.809 371.867C578.481 371.833 578.152 371.914 577.879 372.097C576.859 372.767 577.149 374.887 577.049 375.947Z" fill="#2F2E41"/>
<path d="M570.68 375.69L573.87 375.82C573.86 374.89 574.2 373.18 573.65 372.25C573.525 372.043 573.347 371.874 573.134 371.761C572.921 371.649 572.68 371.596 572.44 371.61C572.112 371.574 571.783 371.655 571.51 371.84C570.49 372.53 570.78 374.64 570.68 375.69Z" fill="#2F2E41"/>
<path d="M564.309 375.439L567.499 375.559C567.489 374.629 567.839 372.909 567.269 371.989C567.144 371.786 566.967 371.619 566.756 371.509C566.544 371.398 566.307 371.346 566.069 371.359C565.741 371.325 565.412 371.406 565.139 371.589C564.119 372.259 564.409 374.379 564.309 375.439Z" fill="#2F2E41"/>
<path d="M557.939 375.182L561.129 375.312C561.12 374.382 561.459 372.672 560.909 371.742C560.786 371.534 560.608 371.365 560.394 371.252C560.181 371.139 559.94 371.087 559.699 371.102C559.372 371.066 559.042 371.148 558.769 371.332C557.749 372.022 558.039 374.132 557.939 375.182Z" fill="#2F2E41"/>
<path d="M551.568 374.932L554.758 375.052C554.748 374.122 555.088 372.412 554.528 371.482C554.405 371.277 554.228 371.11 554.016 370.999C553.805 370.888 553.567 370.837 553.328 370.852C553.001 370.817 552.672 370.898 552.398 371.082C551.378 371.762 551.668 373.872 551.568 374.932Z" fill="#2F2E41"/>
<path d="M587.596 365.683L611.909 314.262L621.101 292.812L606.654 284.586C606.654 284.586 601.732 300.505 596.589 308.653C591.514 316.694 577.871 360.94 577.583 362.15C576.093 362.764 574.824 363.816 573.945 365.167C573.066 366.518 572.617 368.104 572.659 369.715C572.701 371.326 573.23 372.887 574.178 374.191C575.126 375.494 576.448 376.479 577.968 377.016C579.487 377.552 581.134 377.614 582.691 377.194C584.247 376.774 585.639 375.891 586.682 374.663C587.726 373.435 588.372 371.918 588.535 370.315C588.698 368.711 588.37 367.096 587.596 365.683Z" fill="#FFD4AF"/>
<path d="M587.448 318.082L605.835 329.175L610.005 322.872L612.783 321.44L624.277 301.703L634.44 291.349L647.867 248.43L630.397 251.051L630.374 251.058C627.262 252.709 624.478 255.66 620.661 258.261C608.635 266.456 598.266 293.013 593.326 307.82C593.245 308.063 592.912 308.232 592.525 308.398C590.693 309.181 589.188 310.572 588.263 312.336C587.338 314.101 587.05 316.13 587.448 318.082Z" fill="#3F3D56"/>
<path d="M242.125 333.078L229.736 366.827L229.747 520.586L244.843 524.915L242.125 333.078Z" fill="#CCCCCC"/>
<path d="M301.996 333.805L315.257 367.221L319.236 520.929L304.257 525.648L301.996 333.805Z" fill="#CCCCCC"/>
<path d="M741.354 511.247C728.442 511.247 714.29 510.759 698.898 509.783C619.284 504.728 516.16 487.15 408.522 460.291C300.884 433.432 201.591 400.497 128.936 367.557C93.5435 351.51 66.38 336.32 48.2008 322.409C28.9537 307.682 20.5348 294.845 23.1768 284.256C28.3248 263.627 73.9078 259.114 111.241 258.961L111.254 261.961C59.9855 262.171 29.7399 270.348 26.088 284.983C21.4361 303.623 59.3746 332.724 130.175 364.824C202.671 397.692 301.78 430.563 409.248 457.381C516.715 484.197 619.65 501.744 699.088 506.789C776.667 511.717 823.831 503.852 828.483 485.211C832.344 469.734 806.884 446.936 756.793 421.013L758.172 418.349C794.569 437.185 836.818 464.2 831.394 485.938C828.751 496.526 815.288 503.902 791.379 507.86C777.749 510.116 761.008 511.247 741.354 511.247Z" fill="#0C9017"/>
<path d="M56.0578 491.596C45.8117 491.596 39.1505 489.05 36.2023 483.988C30.3883 474.008 40.1256 456.495 65.1432 431.938L67.2448 434.078C44.006 456.891 33.902 474.079 38.7941 482.479C41.8898 487.791 51.1027 489.695 65.4425 487.983C79.6779 486.283 98.5431 481.218 121.514 472.928C168.805 455.861 228.137 427.071 288.579 391.863C349.02 356.656 403.33 319.247 441.506 286.528C448.839 280.243 455.493 274.196 461.285 268.557C468.888 261.336 475.903 253.518 482.261 245.18C490.824 233.553 493.714 224.599 490.619 219.285C485.449 210.411 463.731 211.245 429.463 221.638L428.592 218.767C465.359 207.618 487.1 207.284 493.211 217.775C497.009 224.294 494.137 234.113 484.677 246.959C478.221 255.43 471.099 263.371 463.378 270.707C457.541 276.39 450.839 282.479 443.458 288.806C405.149 321.64 350.681 359.16 290.089 394.455C229.495 429.752 169.989 458.623 122.533 475.75C99.3479 484.117 80.2595 489.235 65.798 490.961C62.5666 491.364 59.3142 491.576 56.0578 491.596Z" fill="#DF1523"/>
</g>
<defs>
<clipPath id="clip0_200_99">
<rect width="855.157" height="581.907" fill="white"/>
</clipPath>
</defs>
</svg>
