<svg xmlns="http://www.w3.org/2000/svg" xmlns:xlink="http://www.w3.org/1999/xlink" id="flag-icons-af" viewBox="0 0 640 480"><g fill-rule="evenodd" stroke-width="1.333"><path fill="#000001" d="M0 0h640v480H0Z"/><path fill="#090" d="M426.7 0H640v480H426.7Z"/><path fill="#bf0000" d="M213.3 0h213.4v480H213.3Z"/></g><g fill="#fff" fill-rule="evenodd" stroke="#bd6b00" stroke-width=".5" transform="translate(1 27.3)scale(1.06346)"><path d="M319.5 225.8h8.3c0 3.2 2 6.6 4.5 8.5h-16c2.5-2.2 3.2-5 3.2-8.5Z"/><path stroke="none" d="m266.7 178.5 4.6 5 57 .2 4.6-5-14.6-.3-7-5h-23l-6.6 5.1Z"/><path d="M290 172.7h19.7c2.6-1.4 3.5-5.9 3.5-8.4 0-7.4-5.3-11-10.5-11.2q-1.4-.1-1.9-1.3c-.5-1.6-.4-2.7-1-2.6-.4 0-.3 1-.7 2.4q-.6 1.3-2 1.6c-6.4.3-10.6 5-10.5 11.1.1 4 .6 6.4 3.4 8.4Z"/><path stroke="none" d="M257.7 242.8H342l-7.5-6.1h-69.4Z"/><path d="m296.4 219.7 1.5 4.6h3.5l-2.8-4.6Zm-2 4.6 1 4.6h4l-1.5-4.6Zm7 0 2.8 4.6h5.9l-4.6-4.6Zm-34.5 10.4c3.1-2.9 5.1-5.3 5.1-8.8h7.6q0 3 1.8 3h7.7v-4.5h-5.6v-24.7c-.2-8.8 10.6-13.8 15-13.8h-26.3v-.8h55.3v.8H301c7.9 0 15.5 7.5 15.6 13.8v7h-1l-.1-6.9c0-6.9-8.7-13.3-15.7-13.1-6 .1-15.4 5.9-15.3 13v2.2l14.3.1-.1 2.5 2.2 1.4 4.5 1.4v3.8l3.2.9v3.7l3.8 1.7v3.8l2.5 1.5-.1 3.9 3.3 2.3h-7.8l4.9 5.5h-7.3l-3.6-5.5h-4.7l2.1 5.4h-5l-1.3-5.4h-6.2v5.8H267Zm22.2-15v4.6h5.3l-1-4.6H289Z"/><path fill="none" d="M289.4 211.7h3.3v7.6h-3.3Z"/><path fill="none" d="M284.7 219.8h3.2v-5.6c0-2.4 2.2-4.9 3.2-5 1.2 0 2.9 2.3 3 4.8v5.8h3.4v-14.4h-12.8Zm25.6 3.3h4v3.2h-4Zm-2.4-5.3h4v3.1h-4Zm-3.9-5.4h4v3.1h-4Zm-3.3-4.5h4v3.1h-4Z"/><path fill="none" d="m298 219.8 4.2.2 7.3 6.4v-3.8l-2.5-1.8v-3l-3.6-2v-3.3l-3.5-1.2V207l-1.7-1.5Z"/><path d="M315.4 210.3h1v7.1h-1Z"/><g id="af-a"><path d="M257.3 186.5c-1.2-2-2.7 2.8-7.8 6.3-2.3 1.6-4 5.9-4 8.7v5.8c-.1 1.1-1.4 3.8-.5 4.5 2.2 1.6 5.1 5.4 6.4 6.7 1.2 1 2.2-5.3 3-8 1-3 .6-6.7 3.2-9.4 1.8-2 6.4-3.8 6-4.6Z"/><path fill="#bf0000" d="M257 201.9a10 10 0 0 0-1.6-2.6 6 6 0 0 0-2.4-1.8 5 5 0 0 1-2.4-1.5l-.8-1.5v-2l-.3.3c-2.3 1.6-4 5.9-4 8.7v2.3q.2.8.6 1.3l1.1.8 2.7.7a7 7 0 0 1 2.6 2 11 11 0 0 1 1.8 2.6l.2-.8c.8-2.7.7-5.9 2.6-8.5Z"/><path fill="none" d="M249.8 192.4c-.5 3.3 1.4 4.5 3.2 5.1 1.8.7 3.3 2.6 4 4.4m-11.7 1.5c.8 3 2.8 2.6 4.6 3.2s3.7 3 4.5 4.8"/><path d="m255.6 184.5 1-.6 17.7 29.9-1 .6Z"/><path d="M257.5 183.3a2 2 0 1 1-4 0 2 2 0 1 1 4 0Zm15.2-24h7.2v1.6h-7.2Zm0 3.1h7.2v13.8h-7.2Zm-.4-5h8c.2-2.7-2.5-5.6-4-5.6-1.6.1-4.1 3-4 5.6Z"/><path fill="#bd6b00" stroke="none" d="M292.6 155.8c-1.5.6-2.7 2.3-3.4 4.3s-1 4.3-.6 6.1q.1 1 .5 1.5.3.5.6.5.5 0 .7-.3l.2-.8q-.2-3 .3-5.4a8 8 0 0 1 3-4.4q.4-.3.5-.7l-.3-.7q-.7-.5-1.5-.1m.2.4q.6-.2 1 .1l.1.2-.3.4a8 8 0 0 0-3.1 4.6 17 17 0 0 0-.3 5.6l-.2.6s0 .1-.2 0l-.4-.3-.4-1.2q-.4-2.9.7-6 1.1-2.9 3-4Z"/><path fill="#bd6b00" stroke="none" d="M295.2 157.7q-2.3 1.2-3 4.2a14 14 0 0 0-.3 5.9q.5 2 1.6 2 .5.2.8-.3t.2-1q-.6-2.5-.3-5.1.4-2.6 2.2-4.1.5-.4.5-.8l-.2-.6q-.7-.5-1.5-.2m.2.5q.6-.2 1 0l.1.3-.3.4a7 7 0 0 0-2.4 4.4q-.4 2.8.2 5.2v.8l-.5.1c-.3 0-1-.5-1.2-1.7-.3-1.7-.2-3.9.3-5.7q.8-2.9 2.8-3.8"/><path d="M272.3 187.4h8v11h-8Zm.5 17.4h7.7v2.4h-7.7Zm-.2 4.1h8v8.7h-8Zm-.6 10.5h8.7v4.9H272Zm1.1-16.6h7l1.4-2.4h-9.6Zm9.4-8.6.1-6h4.8a17 17 0 0 0-4.9 6Z"/><path fill="none" d="M273.6 196.7c0 1.3 1.5.8 1.5.1v-5.6c0-1 2.4-.8 2.4-.1v6c0 1 1.7.9 1.6 0v-7c0-2.2-5.5-2.1-5.5-.1Zm0 13.3h5.7v7h-5.7Z"/><path d="M277.2 213h2v1h-2Zm-3.5 0h2v1h-2Zm2-3h1.5v3h-1.5Zm0 4h1.5v3.1h-1.5ZM244 139c.4 5.5-1.4 8.6-4.3 8.1-.8-3 1-5.1 4.3-8.1Zm-6.5 12.3c-2.6-1.3-.7-11.5.3-15.8.7 5.5 2 13.3-.3 15.8Z"/><path d="M238.4 151.8c4.4 1.5 8-3.2 9.1-8.7-3.6 5-9.5 5-9 8.7Zm-3.3 5.1c-3.4-.9-1.4-11.7-.7-16 .7 4.5 3.1 14.5.7 16Zm1.2-.3c.2-3.7 3.9-2.7 6.5-4.7-.5 2-2 5.2-6.5 4.7Zm-4.2 5c-3.4-1-1.4-12.6-1.6-17.4 1 4.2 4.2 16.3 1.6 17.4Zm1.6-.5c2.8.9 6.5-1 6.8-4.3-2.5 1.7-6.3.4-6.8 4.3Z"/><path d="M229.5 166.7c-3.2.3-1.8-9.6-1.8-18.8 1.2 8.6 4.5 16.5 1.8 18.8Z"/><path d="M230.7 166.3c2.2 1 6.1-.7 7.2-4.4-4 1.7-6.6 0-7.2 4.4Zm25.6-22.2c-.6 4.9-2.6 7.7-5.5 7.2-.8-3 1.6-5 5.5-7.2Zm-7.8 12.4c4.9.7 6.6-3 10-7.9-4.7 3.4-10.2 4-10 8Z"/><path d="M247 156c-2.6-3.2 0-7.3 2-10.7-.4 5.1 1.3 8-2 10.7Zm-1 5.3c-.4-3.2 5-3.9 7.4-5.6-.9 1.8-2 6.7-7.5 5.6Z"/><path d="M244.8 161.3c-3.7-.4-2.2-6.7.5-10.1-1.1 4.8 2 8.1-.5 10.1Z"/><path d="M242 166.6c-4.2-2-1.5-7.2 0-10.3-.6 4.1 2.8 7.2 0 10.2Z"/><path d="M242.8 166c2.2 3 6.5-.8 7.4-5.2-3.7 3.1-6.5 2.6-7.4 5.3Zm-9.6 20.3c-.4-4.3 2.8-12 .5-16.2-.3-.6.7-2.1 1.4-1.2 1 1.5 2 5.7 2.5 4.1s.5-4.6 2-5.2c1-.3 2.3-.6 1.9 1-.4 1.4-1.2 3.4-.3 3.5.5 0 2-2 3.3-3 1-.8 2.6.6 1 1.8-4.8 4-9.5 5.9-12.3 15.2Zm-8.7 64.5c-.6 0-1.3-.3-.6.6 5.7 7 7.3 9 15.6 8 8.3-1.1 10.3-3.4 16.2-6.7a15 15 0 0 1 11.2-1c1.6.5 2.6.5 1.4-.7s-2.5-2.7-4-3.8a18 18 0 0 0-12.7-2.7c-6 1-11.1 4.9-17.2 6.4a25 25 0 0 1-9.9 0Zm47.8 12.5c1 .2 1.7 2.2 2.3.9.8-2.3.2-4-.8-3.9-1.2.3-3.1 3-1.5 3Z"/><path stroke="none" d="M220.6 183q-1.8-2 1-1.9c1.4 0 4.2 1 5.3.1 1-.7.5-3.7 1-5 .2-.9.7-2 2-.2 3.6 5.8 8 12.8 10 19.6 1 3.8 0 9.8-3.4 13.8 0-3.4-1.2-5.7-2.7-8.6-2-3.7-9.1-14-13.2-17.9Z"/><path d="M235.5 213.4c4 0 4.7-5.3 4.7-6.8-2 .4-5.4 3.7-4.7 6.8Zm34.5 51.9c2.8.6 2.7-6.2-.2-9.1 1.3 4.4-2 8.4.1 9Zm-1.2-.1c.2 3.2-8-.4-10-3 4.8 2.1 9.8.4 10 3Zm-3.5-4.6c.3 3.1-7 .3-9.3-2.1 4.9 1.6 9-.5 9.3 2Zm1.3.4c2.9.7 2.4-6.4-.4-8.8 1.4 4.7-1.8 8.1.4 8.8Zm-3-4.3c2.9.7 1.2-5.4-.9-7.8.4 4.4-1 7.5 1 7.8Zm-1.5 0c.3 3.2-5.4.8-7.6-2.3 4.8 1.5 7.3-.3 7.6 2.3Zm-1.5-2.5c1.8-1.3-.1-4.8-3.7-4.6.4 2.1 1.6 5.9 3.7 4.6Zm14 14.7c.1 3.2-8 1.6-10.6-1.8 5.2 1 10.3-.8 10.5 1.8Zm-32.4-5.8c.3 3.2-8.6-.4-10.8-3.4 4.7 1.6 10.5.8 10.8 3.4Zm5.4 1.3c1.9-1.3-1.9-4.7-5-5.5.4 2.1 3 6.8 5 5.6Zm.6 2.3c.2 2.9-9.5 1.3-12-1.4 8.3 1.5 11.7-1.1 12 1.4Z"/><path d="M252.8 268.6c1 2.7-8.3 2-11.6.5 5.3 0 10.8-2.4 11.6-.5Z"/><path d="M257.1 270.6c1 2.4-7.6 2.4-11.8 1 5.6 0 10.8-3.4 11.8-1Zm6.3 1.3c1.6 2.9-7.6 3.1-10.5 1.7 5.2-.7 9.2-4 10.5-1.7Zm-10.7-4.9c-2.9 1.8-2.7-3.6-5-7.3 3.6 3.3 7 5.6 5 7.3Z"/><path d="M257.9 269c-2.4 2.1-4.4-5.3-6.6-9.5 3.6 4 8.8 7.7 6.6 9.4Zm6.8 2c-2 2.4-8-7-10.2-12 3.3 3.9 11.8 10 10.2 12Zm-5.8 7.2c-1 3.6-16.2-3.4-18-7.1 8.8 4.6 18.2 3.6 18 7Zm-48.7-73.8c-.4-.5-1.4 0-1.2 1.1.3 1.5 2.5 9.2 6.3 11.8 2.7 2 17 5.1 23.4 6.5q5.3 1 8.9 5.3a94 94 0 0 0-3-9.8c-1.2-3-4.4-6.2-7.8-6.3-6.1-.3-14.1-.8-20-3.3a16 16 0 0 1-6.7-5.3Z"/><path d="M245.5 234.9c2 1.4 4.1-3.7 1.7-8.6-.1 4.7-3.8 6.3-1.7 8.6Z"/><path d="M247.4 239.6c2.7.8 3.5-4 1.8-7.8.3 4.1-4.3 6.6-1.8 7.8Z"/><path d="M249.5 243.4c2.6 1.3 3.5-3.6 1.7-7.1.2 4.5-3.7 5.9-1.7 7Z"/><path d="M248.4 243.7c-1 3-7-2.7-8-5.8 3.7 3.7 8.7 3.2 8 5.7Z"/><path d="M245.7 239c-1.2 3-8.7-5-10.4-8.7 3.7 3.7 11.2 6.5 10.4 8.6Z"/><path d="M244.2 234.3c-1.2 3.5-9.3-5.8-11.7-9.1 4 3.6 12.6 6.6 11.7 9.1Zm-.3-3.4c3-.6-.1-3-3.7-6.9-.1 4.1.5 7 3.7 6.9Z"/><path d="M239 228.5c1.3-1.3-1.1-1.9-4.1-5.3-.5 2.3 2.8 6.5 4.2 5.3Zm14 15.2c1.6 1 2.6-2.3.7-5.2-.5 3.2-2.1 4-.7 5.2Zm-34.2-20.3c-3.3 2-8.6-6-10-9.3 2.9 3.8 10.6 7.2 10 9.3Z"/><path d="M221.7 228c-1.9 2-7.7-3.5-9.7-6.3 3 2.7 10.5 3 9.7 6.3Z"/><path d="M224.8 232.2c-.6 2.8-9-3.5-11-6.5 3.6 3.5 11.6 3.2 11 6.5Z"/><path d="M223.5 235.3c-1.3 2.5-8.2-3.8-9.9-7 4.3 3.6 11 4.5 10 7ZM220 223c2.1-2.3 1.2-3.4-.4-7-.8 3.7-2.1 5.2.4 7Zm2.9 4.3c4 .2 0-4.6-1-8.7.4 4.6-1 8.3 1 8.7Z"/><path d="M225.4 231.1c2.7-.6 2-4.5-.2-9.2.5 5.1-2.3 8 .2 9.2Zm-1 7.7c-1 3-8.8-4-10-6.8 4 3.4 10.7 4.5 10 6.8Z"/><path d="M229.1 243.6c-1.1 3-9.3-3.2-11.8-6.6 4.9 4 12.4 3.6 11.8 6.6Z"/><path d="M233.9 248.5c-1.3 4.3-9.9-2.6-12.4-6 5.4 4.2 13 3 12.4 6Zm-8-11c2.3 1.1 3.2-5.4 1.9-10.1 0 5-4.7 8.8-2 10Z"/><path d="M229.8 242.7c2.8.8 2-6.3-.5-11-.3 4.7-2.3 9 .5 11Zm5 4.9c3 .1 1-6.1-1.6-9.6.4 4.5-1 9 1.6 9.6Zm-5.5 2.6c-1 1.6-3.2-1.3-7-3.5 3.4 1 7.4 2 7 3.5Zm-1.8-52.7c3-2.2.7-6.2 0-10-1 3.6-3.4 8.4 0 10Zm0 5.3c-4.5-.5-3.8-6.1-4-9.7 1.4 4.9 5 5.7 4 9.8Zm.6-.7c3.7-.2 3.5-4.4 3.7-8.6-1.9 3.9-4 4.5-3.7 8.6Z"/><path d="M228 207.3c-3 .3-4.4-2.6-5-7 2.7 4.1 5.1 2.8 5 7Zm1-.3c3.7.5 3-3.8 3-7-1.2 3-4.2 4-3 7Z"/><path d="M223.2 205.2c.3 2.8 2.1 7.6 5 6.5 1.1-3.4-2.6-4.1-5-6.5Z"/><path d="M229 212c-1.2-2.4 3-3.7 3.8-6.9.5 4.6.1 7.6-3.8 7Zm-11.9-29.2c2.3-2.4.3-6.4-.4-10.2-1 3.6-2.5 8.4.4 10.2Zm0 4.6c-4 .5-5-7.7-5.5-11.3 1.4 4.9 6 7 5.5 11.4Zm.8 0c2.8-1.5 2.2-4.7 3-7-1.8 2.9-3.6 3.3-3 7Z"/><path d="M217 192.8c-4.1.3-6.6-8.8-6.8-12.4 1.3 4.9 7.4 7.5 6.9 12.4Zm.9-.2c4-.9 3.5-3.5 2.9-7.6-1.3 4.2-3.5 3.3-2.9 7.6Z"/><path d="M217 198c-4.6.8-4.3-6.6-8-11.9 3.2 4 9 9 8 11.9Zm1-.3c3.6.2 4-5.1 3.8-7.3-.9 2.2-5 4.2-3.7 7.4Z"/><path d="M209.8 192.3c1.7 5.7 4.2 11.4 7.2 11 1.5-3.3-2.9-3.7-7.2-11Z"/><path d="M218.1 202.4c-1.2-2.5 3-3.7 3.8-6.9.5 4.6.1 7.6-3.8 6.9Zm-7.1-3.6c2.5 5.1 3.6 11 7 10.1 1.3-4-3.8-4.8-7-10.1Z"/><path d="M218.7 208c-1.5-2.8 2.7-3.7 3.8-7.4.5 4.8 0 8.3-3.8 7.3Zm7.2-34.5c2.4.6 5-2.1 4.1-6.2-2.8.6-4 3.2-4.1 6.2Zm-7.9-2.1c.2 1.2 1.7 1.3 1.2-.4a5 5 0 0 1 0-3.4 8 8 0 0 0 0-4.6c-.4-1-1.8-.4-1.2.4s.7 2.8.2 3.7q-.7 2.2-.2 4.3Zm22.9 16c-1 1.3-2.9.4-1.4-1.5 1.2-1.5 3-2.8 3-4.4.2-2 1.3-5 2.4-6.1s2.4.4 1.2 1.2c-1.3.8-2.2 4.4-2.1 5.8-.1 2-2 3.5-3.1 5Zm-3-2.3c-1 1.4-2.4.5-1.6-1.7.7-1.5.8-3.5 1.6-4.6 1.2-1.7 3-3.1 4.1-4.2 1.2-1 2 0 1 1a27 27 0 0 0-3.3 4c-1.4 2.2-.8 4-1.8 5.5Zm-15.7-7.2c-.1 2 1.5 2.4 1.4-.4 0-3-2.2-5.8-1-10.3.8-2.2.8-6.3.4-8.4s-2-.8-1.3.9c.6 2-.1 5.6-.6 7.5-1.5 5.4 1.2 8 1 10.7Zm4.3-11c-.2 1.9-1.8 2-1.3-.5q.6-2.9 0-5.3c-.6-2.1-.4-5.7 0-7.2.5-1.6 2-.7 1.4.5a10 10 0 0 0-.3 5.9c.6 2 .5 4.8.2 6.7ZM210.9 204c.8.9 2 .3 1-1-1-1-.7-1.2-1.3-2.4-.6-1.4-.5-2.1-1.2-3-.7-1-1.6 0-1 .7.8 1 .6 1.6 1 2.5 1 1.5.7 2.3 1.5 3.2Zm20.4 24.6a9 9 0 0 1 4.4 6.7 16 16 0 0 0 2 7.1c-2-.5-3-3.7-3.3-6.8-.3-3.2-2-4.5-3-7Zm5.1 5.9c1.7 3.1 4 4.3 4.2 6.6.2 2.7.4 2.8 1.1 5.4-2-.5-2.5-.7-3-4.7-.3-2.8-2.6-4.7-2.3-7.3Z"/><path stroke="none" d="M289 263.3c1 1.8 2 4.5 4 4 0-1.3-2.1-2.3-4-4m3 .6c3.7 1.6 7 1.2 7.5 3.6-3.6.4-5-1-7.6-3.6Zm-16.1-12.7a14 14 0 0 1 5 7.7 29 29 0 0 0 3.6 7.8 13 13 0 0 1-5.3-7.4c-.7-3-1.6-5.3-3.3-8Zm3.1 0c2.8 2.2 5.4 4.8 6.2 7.9.8 2.9 1.3 5.1 3.2 8-3-1.9-4.1-4.7-5-7.8-.7-3-2.5-5.2-4.4-8Zm9.2 7.3a1 1 0 0 1 .7-1.2l2.6-.8c1-.3 1.6.4 1.6.9v2q0 .9-.7.9-1.2 0-2.4.7-1 .5-1.5-.5Zm10.6 0q0-1-.6-1.2a5 5 0 0 0-2.4-.4q-1.3 0-1.1.6v2.1c0 .8 0 .8.4 1q1.3-.1 2.5.6.9.4 1.1-.6Z"/></g><use xlink:href="#af-a" width="100%" height="100%" x="-600" transform="scale(-1 1)"/><g stroke="none"><path d="M328.5 286.6q-.1 1.8 1 3.1a19 19 0 0 0-13.8 1.1c-1.8.8-4-1-1.9-2.7 3-2.3 9.7-1 14.7-1.5m-57.5 0a7 7 0 0 1-.4 3c4.4-1.7 9.1-.2 13.6 1.6 3 1.3 3.3-1 2.8-1.7a7 7 0 0 0-5-2.9Zm3.8-21.7q-2-.7-4 1.4c-4.3 4.2-9.4 8.3-13.5 11.6-1.5 1.3-3 3.7 3.4 6 .3.2 5 2 8 2 1.3 0 1.3 1.8 1 2.3-.5 1-.1 1.4-1.1 2.3-1.1 1 0 2.1 1 1.3 3.6-3.2 9.6-1.1 15.3.7 1.4.4 3.8.3 3.8-1.6s1.5-3.4 2.4-3.5c2.4.4 14 .5 17.5.1 2-.3 2.2 2.9 3.3 4 .8.9 3.7 1.1 5.8.2C321.7 289.9 327.7 289.9 330.2 291.7c1 .7 1.9 0 1.3-.7-.8-1-.7-1.6-1.1-2.4-1-2-.2-2.4.8-2.5 11-1.5 14.6-5.2 11.2-8.3-4.4-3.8-9.2-7.7-13.4-12.2-1.2-1.2-2-1.7-4.3-.7a67 67 0 0 1-25.3 5.9 76 76 0 0 1-24.6-5.8Z"/><path fill="#bd6b00" d="m326.6 265.5-1.6.4c-9 3.2-17.2 5.4-25.7 5.4-8.3 0-17-2.4-24.9-5.6a2 2 0 0 0-1.5 0q-.8.2-1.3.7a116 116 0 0 1-11.8 10.3c-.7.5-.6 1.8.5 2.2 8.3 3 16.4 8.5 39.6 8.3 23.5-.2 31.8-5.6 39.2-8.1q.8-.3 1.3-1l.1-.8-.6-.8c-4.3-3.5-8.8-6.3-11.8-10.4q-.5-.7-1.5-.5Zm0 .5q.9 0 1.1.3c3 4.3 7.7 7 11.9 10.5l.4.7v.4q-.3.5-1 .7c-7.6 2.6-15.7 8-39 8.2-23.2.2-31.2-5.3-39.5-8.3-.8-.4-.7-1.2-.4-1.4q6.4-4.9 11.8-10.4l1.1-.6h1.2a68 68 0 0 0 25 5.6c8.7 0 17-2.2 26-5.3l1.5-.4Z"/><path d="M269.7 114.6c0-1.4 2-1.5 1.8.4-.3 2.3 4.5 8.3 4.9 12 .3 2.5-1.5 4.6-3.2 6a7 7 0 0 1-6.8.5c-.9-.8-1.7-3.3-1-4.3.2-.3 1.3 3.7 3.7 3.7 3.3 0 6-2.5 6-4.7.2-3.8-5.3-9.8-5.4-13.6m9.5 9.4c.6-.4 1.4 1.3.8 1.7s-1.5-1.3-.8-1.8Zm1.5-3.5c-.3.2-.8 0-.7-.2a12 12 0 0 1 3.6-3.3c.4-.2 1 .4.8.7a11 11 0 0 1-3.7 2.8m12.6-10c.3-.6 2.1-1.3 2.6-1.7.4-.5.6.4.4.7-.3.7-1.9 1.7-2.6 1.8q-.6-.1-.4-.7Zm4.3.3a8 8 0 0 1 2.5-3.4c.5-.3 1.3 0 1.1.4a9 9 0 0 1-2.9 3.3c-.3.3-.8 0-.7-.3m-3.7 2.7q-.3.5.1.8 1 .3 2 0c.6-.4.3-2.9-.5-1.6-.6.8-1 .6-1.6.8m-7.3 5.6c-1.3-1 .4-2.4 1.7-1.4 2.7 2-4 9.8-7.6 13.4-.7.7-1.3-1-.4-1.9a34 34 0 0 0 6.7-7.6c.4-.5.7-1.6-.4-2.5m15.3-6.6c.1-1-1.6 0-1.6-1.3 0-.7 1.9-1.2 2.7-.4 1.3 1.4.3 3.7-2 3.9-1.8 0-5 2.7-4.5 3.2.5.7 5.4 1.1 8.3.7 1.8-.3 1.4 1.3-.4 1.5s-3.2 0-4.8.6c-2 .5-2.8 3-3.9 4-.2.2-.8-.8-.6-1.2.8-1.2 2-3 3.4-3.6.8-.3-2.4-.4-3.4-.7-.8-.2-.6-1.3-.3-1.9.4-.8 3.4-3.9 4.7-3.8 1.1 0 2.3-.3 2.4-1m5 .2 1.5-1.8c.3-.3.9 0 .8.8-.1.7-1 1.2-1.5 1.7-.5.3-1-.4-.7-.7Zm6.5-2.3c.9 0 1 1.6.2 1.8-.6.2-1-1.7-.2-1.8m-2.1 5c0 1.5.7 1.4 2 1.3s2.4 0 2.4-1.2c0-1.3-.7-2.5-1-1.6-.1.8-.3 2.2-.8 1.6-.4-.5-.2-.6-1 .2-.5.5-.5-.2-.8-.6-.2-.3-.8.2-.8.4Zm-9.2 7.2c-.3 1.9 0 4.5.9 4.5 1.2 0 3.6-4 4.8-6.2.7-1.2 1.8-1.4 1.3-.1-.7 1.9-.6 6 0 7.2.4.6 3-.6 3.4-1.5.8-1.7.1-4.8.4-6.7.1-1.2 1.3-1.5 1.2-.3l-.1 7.5c0 1 2.9 2.4 3.3-.6.2-1.8 1.2-3.7 0-5.7-.8-1.3 1.1-1.2 2.1.6.7 1.2-.6 3.2-.5 4.7 0 2.4-1.8 3.8-3.1 3.8-1.2 0-2-1.5-3-1.5s-2.2 1.7-3 1.6c-3.6-.2-1.7-5.3-2.8-5.4-1.2 0-2.5 5-4 4.9-1.4-.2-3-4.2-2.3-5.8.5-1.6 1.5-2 1.4-1m16.9-8c-1.7-1 0-3.7.9-2.8 1.6 2 3.2 6.5 4.4 6.9.7.2.6-3.4 1.1-5 .4-1.3 1.8-.9 1.6.7-.1.5-2 6.4-1.8 6.6a47 47 0 0 1 3.3 7.8c.3 1.2-1.1.4-1.3.2-.9-1.4-2.4-6.5-2.4-6.2l-1.7 7.7c-.2 1-1.7.8-1.3-1 .3-1.4 2.3-8.3 2.2-8.6a17 17 0 0 0-5-6.3"/><path d="M322 131.2c-.4 0-1.2 1 1.2 1.5 3.1.6 6.6-.5 7.6-3.6 1.3-3.7 2-7.2 2.7-8.5.8-1.5 1.8-1.4 1-3.6-.5-1.7-1.5-1.2-1.7-.3-.5 2.3-2.6 10-3.3 11.3q-1.8 3.8-7.5 3.2"/><path d="M328.4 119c-.4-.7-1.2 0-1 .7a1 1 0 0 0 1.2 1c.7 0 2.2.1 2.2-1 0-.8-.7-1.5-1.1-.6q-.8 1.1-1.3 0Zm.7-3c-.2.2 0 1.1.3 1a7 7 0 0 0 3.3-.8c.2-.2.1-.7-.2-.7-1 0-2.6 0-3.4.5m8.8 2.3c.8-1.2 2.8-1.3 2 .4l-6.3 12.3c-.8 1.4-1.4.7-.8-.4.7-1.4 4.9-12 5.1-12.3"/><path d="M330.2 133c-.2-.8-1.5-2-1.3.2.2 3.8 5.5 2.6 7 1.3s.3 4.3 2.2 4.9c1 .3 3-1.1 4-2.4 2.7-3.5 4.5-8.6 7-12 1-1.4-.5-2.4-1-1.3-2.4 3.8-5.2 11.6-8.3 13.6-2.5 1.6-1.7-2-1.8-3.2-.1-.8-1.1-2-2.4-.9a6 6 0 0 1-3.7 1.2c-.7 0-1.4 0-1.7-1.4"/><path d="M339.6 126c0-.3-1.1-.4-1 .7 0 .8 1 1 1.1 1 1.5-1.2-.3-.6-.1-1.8Zm-2.3 4.4c-.3 0-.6 1 .2 1.1l3.9-.2c.4 0 .6-.9-.4-.8-1.2 0-2.7-.3-3.7 0Zm-62-16.6c.5 0 1.6 1.4 1.5 1.9 0 .2-1.2 0-1.5-.3s-.2-1.6 0-1.6m-5.3 10.4c-1 .6.2 1.7 1 1.2 2.8-1.9 7-3.8 8-7.5.3-1.2 1.4-3.1 2.5-3.5C282.5 113.9 284.1 116.3 285.1 114.4c.6-1 2.7.7 3.2-.4.6-1.3.3-2 .3-3.4 0-.8-.7-1-1.2.3l-.1 1.6q-.4.4-1 .2c-.2-.2 0-.7-.6-1q-.4-.1-.8.2c-.7 1.3-1 2.5-2.1 1-.9-1-1.4-3.1-2-.3-.2 1-1.7 2.4-2.6 2.4-1.1 0-.8-3-3.2-2.5-1.3.3-1.2 2.7-1 3.5.3 1.3 4 .4 3.7 1.2-.6 2.7-4.4 5.4-7.7 7m-22.7 13.2c-.1.5.5 1.7 1.1 1.8.6 0 1-1.3.8-1.8C249 137.1 247.4 137.1 247.3 137.4m3.3 4.9c-.4-.4-1.6.7-.6 1.5.5.5 2.5 1.1 3 .2.8-1.2-.7-5.5 0-6 .5-.5 2.8 2.8 4 3 2.7.4 2-4.6 5-4.2 1.9.2 2.1-2.2 1.8-3.8-.2-1.5-2.6-3.6-3.7-4.6-1.4-1.2-2.1 1-1.2 1.6 1.2 1 3.3 2.9 3.6 4.1.1.6-1.4 1.8-2 1.5-1.4-.8-2.6-4-3.8-4.7-.4-.2-1.4.3-1 1.3.6 1.1 3 2.7 3.1 3.9.1 1-1 3.2-1.8 3.2s-3-2.7-3.7-4c-.4-.5-1.5-.5-1.7.4a22 22 0 0 0 .5 5.5c.2 1.6-.9 1.7-1.5 1.1m-4-8.6c-.4.4.8 1.2 1 1 .4-.4 2.1-2.3 1.8-3-.3-.6-2.6-2-3-1.3-.7 1.1 2.2 1.7 1.7 2Zm4.1-8.4s.8 2.5 1.4 1.4c.4-.7-1.4-1.4-1.4-1.4m1.2 4c-.2 0-1 .7-.5 1 .8.4 2.9.8 2.4-.7-.3-.9 3.2 0 2.3-2.4a4 4 0 0 0-1.7-1.7c-.4 0-1.5.5-.8.9.5.2 2 1.1 1.5 1.7-.7.6-1.1-.3-1.9-.1-.4 0-.1 1.2-.4 1.5 0 .2-.7-.4-.9-.3Zm5.5-9.5a4 4 0 0 0-1.2 2q.1.5.5.5a3 3 0 0 0 1.2-1.9c0-.3-.2-.8-.5-.6m2.8-.3c-.8-1 1-2.6 1.7-.5.5 1.3 5.5 7.9 6.5 10.1.8 1.5 0 2.1-.9 1-2.5-3.2-4.6-7.2-7.3-10.6m5.2.1c.9-1 2.7-3 2.2-4s-1.5-1-1.7-.7c-1 1.3.8 1 .5 1.4q-.8 1.3-1.3 2.6c-.1.3.1.9.3.7m77.8 3.2c-.7-.5.6-3 1.5-2 2.3 2.7 3.4 11.6 4.1 18.3 0 0-1 .9-1 .7 0-3.5-1.5-14.4-4.6-17m-53.1-8.6c-.8-1.8 1.1-2.4 1.4-1.2 1.3 5.8 4.5 10.2 7 14.1.7 1.2 0 2-1.7.8-1.2-.8-2.5-3.9-3-4-1.2-.2-3.8 5-9.1 3.5-1.4-.4-1.3-4.5-1.4-6.3 0-.9 1-1 1 4.263256414560601e-14 0 1.7 0 5.2 2.1 5.4 1.8 0 5.6-2.4 6.4-4.4s-1.9-5.9-2.7-8Z"/><path d="M344.6 138.4c.4-1.2 6.1-10.8 6.9-12.9.4-1 2 1.8.4 3.3-1.4 1.2-5.5 8-6.3 10.4-.4 1-1.4.5-1-.8"/><path d="M354.3 129.3c1-4 3.6.6 1.3 2.8-3.4 3.4-4.5 9.9-10 10.9-1.4.3-4-.7-4.8-1.3-.3-.2.2-1.6 1.1-.9 1.3 1 4.1 1.3 5.6.1a25 25 0 0 0 6.8-11.6m-57 12.7c-.3.3-1 .3-1.1.7-.3 1.4 0 2.2-.3 3.6s-1.3 1.4-1.2.3c0-1.4 1.3-3.5.4-3.6-.6-.1-1-.9-.4-1.3q1.5-.9 2.4-.4.5.3.2.7"/><path d="M296.5 140c-1.4 1.4-2.8 1.9-4.1 3.5-.6.6-.5 1.5-.9 2.4-.3.9-1.4 1-1.7.9-.5-.4-.4-2-1-1.2s-.9 2-1.7 2-2-1.5-1.3-1.5c2.3-.3 2.2-2 3-2.2 1-.1 1 1.5 1.7 1.2.4-.2.7-2.1 1.2-2.6 1.5-1.6 2.7-2.4 4.3-3.6.7-.6 1.3.5.5 1.2Zm5.3 5c-1.2.2-1 1.7-.6 1.8.5.3 1.4.4 1.7-1.3.2-.7.3 3.5 1.8 1.9 1-1 3.1.2 4-1 .7-.9 1-1.5.4-2.7-.2-.3-1-.2-1 .7s-.5 1.7-1.3 1.6c-.4-.1.2-1.9-.2-2.4h-.7c-.3.4.3 2.2-.6 2.4-1.2.2-.6-1.2-1-1.4-1.7-.8-1.8.2-2.5.3Zm9-3c.9-.2.6-.2 2-1.3.5-.4.6.8.5 1.3 0 .7-1 .2-1.3.9-.4.9-.2 3-.4 3.8 0 .4-.8.4-.8 2.842170943040401e-14-.2-1 .1-2 0-3.3 0-.4-.5-1.1 0-1.3Zm-5-2.5-.2 2.3c0 .5 1 .2 1 .1 0-.8.2-2 0-2.3q-.5-.3-.8-.1"/><path d="m299.5 130.2-1.4 5.6-2-3.8v3.9l-4.4-5.2 1.5 5.6-4-3.4 2.2 3.8-7-4.5 4.4 5.2-5.6-2.8 4 3.4-9-3.4 8.7 4.3a29 29 0 0 1 12.6-2.6q7.5.1 12.5 2.6l8.8-4.3-9 3.4 4-3.4-5.5 2.8 4.3-5.2-7 4.5 2.2-3.8-4 3.3 1.5-5.5-4.3 5.2V132l-2 3.8Z"/></g></g><path fill="#fff" d="m311.3 295-.3 2.6h-.4l-.1-1.8-.5-1.6-.5-1.3-1-1.4.8-2.2a7 7 0 0 1 1.5 2.4 9 9 0 0 1 .5 3.2m7-4.2q0 1-.5 1.5-.3.5-1.3.7l.4 1.5v2l-.1 1.3h-.4l-.1-1.3-.2-1-.4-1-.7-1.4-1-1.7.6-2 1 1q.4.3 1 .3 1.2 0 1.2-1.3h.4v1.4m6.4 4.8-.5 2.1q-.6 0-.8-.7l-.4-1.3-.1-1.7-1 .2a2 2 0 0 1-1.3-.4 1 1 0 0 1-.5-1q0-1.4.7-2.3.8-1 1.5-1.1.7 0 1 .4l.3.9v2q0 1.3.3 1.9 0 .4.8 1m-2-3.5q0-.9-.8-.8l-.6.1q-.2.1-.2.3 0 .5 1 .5Zm8.7 3-.3 2.6q-.8-.5-1.4-2l-1.3-4.1-1.8 5.5-.8.7v-2.5q.9-1 1-1.5l.8-1.7.5-2.7h.4l.9 2.7q.3 1 .9 1.6l1 1.4"/><path fill="#bf0000" d="M350.8 319.4q.6.6.7 1.2l.4 1.6-.8.1-1-1.5-1.1-1.2-1.7-1.5-2-1.7q-.6-.3-.6-.5l-.3-.8-.2-1.6 2.7 2.2 2.5 2.2Zm-9.5-5.8-.2 2H338l.3-2Zm8.4 8.9-7.6 2.3-1.3-2 6.5-2-.7-.8-.9-.6a1 1 0 0 1-.4 1l-1 .6a3 3 0 0 1-1.8 0 2 2 0 0 1-1.3-.7 4 4 0 0 1-.7-2.2q0-1.5.9-1.8 1.1-.3 3 .7a8 8 0 0 1 3 2.4Zm-5.8-4-.8-.3h-.6l-.5.3v.6l.5.2h.6l.4-.3Zm-8-1.6-.5 2-3.2-.3.5-2Zm7.5 7.7-1.7.4H340l-1.5-.4q-.5.8-1.5 1.2l-1.6.6-1.2.3-1-2 1.1-.3 1.3-.4.9-.5-1-.5h-.9l-.2.3h-.5q-.8-1.2-.3-2c.5-.8.9-.8 2-1a7 7 0 0 1 2.6-.2q1.2.1 1.5.9.2.3.2.7l-.4 1.2h1.1l1.7-.3Zm-8 1.8-1.6.3a3 3 0 0 1-2.2-.4 6 6 0 0 1-1.7-2.6l-.8-2.2a2 2 0 0 0-.8-1l-.9-.5.6-2.1q.9.4 1.4 1l1 1.7.5 1.5 1.1 2.2q.5.4 1 .3l1.7-.2Zm-7-7.5-1 1.9-3-.7 1-1.9Zm1.8 8.4-7.5.7-.4-2 6.2-.7-.6-.8-1-.6.5-2q1 .6 1.6 1.3.5.8.8 2.1Zm-6 1-2.2-.2-1.7-.5-1.3.4h-3.7l-1.2-.3q-.4-.3-.8-1a4 4 0 0 1-1.5 1l-1.7.1h-1.7l.2-2.1h1.7q1.2.1 2.1-.4a2 2 0 0 0 1.3-1.8l.7.1-.1 1.3q0 .4.3.7.4.3 1 .3h1.5q1.5 0 2-.2.9-.2 1-1.1l.1-.4s.3 0 .5-.2l.5-.2v.7l-.3 1.1 2 .5q.1-.3-.1-.7l-.3-.6.1-.3.3-.2 1-.9.5 1v1Zm-11.3-8.7-2 1.3-1.3-.9-1.4 1-1.9-1 1.8-1.3 1.5.8 1.5-1 1.8 1m-3 8.2-7.3-1.2.8-2 6.2 1q0-.6-.2-1l-.5-.8 1.6-1.7q.6.8.7 1.6t-.5 2.1Zm-6.1-1-1.6-.3q-1.3-.3-1.5-1.2-.3-.9.8-2.8l1.2-2q.4-.7.3-1.2l-.3-.7 2.2-1.6q.4.8.3 1.4 0 .8-.7 1.8l-.8 1.4a6 6 0 0 0-.9 2.2q0 .6.5.7l1.6.4Zm-3.8-8-2.5 1.1-1.8-1.7 2.6-1Zm-1 6.6-1.6 1.4-1.7.6-2.4-.1-2.8-.7a8 8 0 0 1-3.4-2q-.9-1.2 0-2.2a7 7 0 0 1 2-1.6q1.1-.7 3.8-1.6l.4.5-2.8 1.2q-.8.4-1.3 1t.2 1.6a11 11 0 0 0 6.3 2.2q1.8 0 2.3-.7.4-.4.5-1l.2-1.6 2.5-1.5-.1 1.5a4 4 0 0 1-1 1.6Z"/></svg>