<svg xmlns="http://www.w3.org/2000/svg" width="801" height="523" fill="none" viewBox="0 0 801 523"><g clip-path="url(#clip0_203_238)"><path fill="#e6e6e6" d="M332.986 70.435c2.8-5.645 7.285-10.331 10.025-16.006s3.274-13.271-1.292-17.615c-3.877-3.688-9.951-3.74-14.587-6.412-11.813-6.806-11.8-28.425-25.3-30.293-6.567-.908-12.509 4.016-16.478 9.327s-7.132 11.506-12.637 15.2c-6.232 4.182-14.288 4.364-21.208 7.269-13.267 5.569-20.223 19.89-26.039 33.052-3.747 8.478-7.579 17.623-5.841 26.728-3.779 2.35-2.095 8.675 1.677 11.037s8.508 2.31 12.839 3.333c9.1 2.15 16.556 9.4 20.09 18.057 2.754 6.75 3.317 14.161 3.849 21.431l2.766 37.848c.41 5.613.948 11.578 4.365 16.05s10.815 6.346 14.655 2.233c3.67-3.931 2.017-10.155 1.943-15.533s4.787-12.074 9.371-9.261l1.617-3.668a57.87 57.87 0 0 0 38.165-49.755c1.167-17.856-5.939-37 2.02-53.022"/><path fill="#e6e6e6" d="M343.683 183.645a7.29 7.29 0 0 0 1.916-7.607 7.29 7.29 0 0 0-6.096-4.936l.017.606a12.54 12.54 0 0 1-6.5 1.708 19.7 19.7 0 0 0-6.688 1.059 5.64 5.64 0 0 0-3.709 5.186 5.48 5.48 0 0 0 2.952 4.111 16.2 16.2 0 0 0 5.019 1.524c4.5.847 9.762 1.487 13.089-1.651"/><path fill="#e6e6e6" d="M431.364 70.732a16.55 16.55 0 0 0 4.7-4.863 5.645 5.645 0 0 0-.366-6.37 7.56 7.56 0 0 0-5.119-1.849 39.8 39.8 0 0 0-15.085 1.779l14.994 13.284Z"/><path fill="#e6e6e6" d="M406.368 82.247c2.02 2.23 1.376 5.69.8 8.643s-.645 6.645 1.9 8.257c2.2 1.4 5.293.257 6.9-1.794a15.9 15.9 0 0 0 2.554-7.3 51 51 0 0 0 1.066-11.53 17.78 17.78 0 0 0-3.916-10.7 12.6 12.6 0 0 0-14.285-3.337l2.322-.115a22.7 22.7 0 0 0-3.778 7.249 7.702 7.702 0 0 0 1.909 7.581c1.382 1.191 3.301 1.692 4.528 3.046"/><path fill="#e6e6e6" d="m520.308 44.85.412-1.272a8.7 8.7 0 0 0-3.917 10.235 9.51 9.51 0 0 0 3.505-8.963"/><path fill="#e6e6e6" d="M497.861 63.053a16.17 16.17 0 0 0 8.083-12.1 8.9 8.9 0 0 0-.523-4.62 4.77 4.77 0 0 0-3.478-2.872l-.94 1.48c-1.349-1.161-3.614.033-4.181 1.72a9.2 9.2 0 0 0 .438 5.237 6.9 6.9 0 0 1-.082 5.195 18.7 18.7 0 0 1-2.545 2.674 2.665 2.665 0 0 0-.486 3.35c.881 1.012 2.539.588 3.714-.064"/><path fill="#e6e6e6" d="M488.292 54.778a8.8 8.8 0 0 0 1.1-4.75l-2.057-.645a8.8 8.8 0 0 0-3.4 2.458 2.675 2.675 0 0 0 1.488 4.537 2.674 2.674 0 0 0 2.871-1.6Z"/><path fill="#e6e6e6" d="M588.811 44.375q.279.236.557.473c.164-.034.32-.1.487-.117Z"/><path fill="#e6e6e6" d="m585.514 62.427 5.664-4.582a9.4 9.4 0 0 0 2.517-2.646 6.39 6.39 0 0 0-.456-6.161 17 17 0 0 0-3.872-4.186 6.997 6.997 0 0 0-5.344 7.609c.341 2.166 1.7 4.48.591 6.372-.432.736-1.176 1.237-1.674 1.93s-.66 1.8.025 2.307c.76.566 1.812-.047 2.549-.643"/><path fill="#e6e6e6" d="M589.644 71.778a4.9 4.9 0 0 0 3.792-1.492 33.5 33.5 0 0 0 6.554-7.2l-12.74 4.035 1.324 1.549c-1.181.768-.309 2.843 1.07 3.108"/><path fill="#e6e6e6" d="M601.551 80.517a3.26 3.26 0 0 0 3.362 2.053 4.86 4.86 0 0 0 3.467-2.219 6.46 6.46 0 0 0-5.078-10.078l1.173 1.792c.299 3.06-3.859 5.524-2.924 8.452"/><path fill="#e6e6e6" d="M684.062 114.019a6.625 6.625 0 0 0 7.95-.019 7.09 7.09 0 0 0 2.004-7.961 7.1 7.1 0 0 0-1.58-2.43l-2.17 1.211a5.53 5.53 0 0 0-7.523 1.494 6.026 6.026 0 0 0 1.319 7.705"/><path fill="#e6e6e6" d="M709.292 116.88a6.427 6.427 0 0 0 4.409-4.479l-4.219-.554a9.3 9.3 0 0 0-3.987-1.741 3.2 3.2 0 0 0-3.473 2.047 3.46 3.46 0 0 0 .18 1.737 3.46 3.46 0 0 0 1.003 1.43 6.43 6.43 0 0 0 6.087 1.561Z"/><path fill="#e6e6e6" d="M691.873 125.311a3.63 3.63 0 0 0 2.431 3.047 3.94 3.94 0 0 0 4.374-.677 2.41 2.41 0 0 0 .546-2.14 2.4 2.4 0 0 0-1.422-1.689l-3.163-.575c-1.224-.638-2.786.654-2.766 2.034"/><path fill="#e6e6e6" d="m508.323 147.556-2.448-2.236a8 8 0 0 0 2.448 2.236"/><path fill="#e6e6e6" d="M489.621 134.389c1.507 7 9.047 12.7 15.891 10.6l.361.33c-2.179-2.983-2.548-7.4-2.039-11.233a39.56 39.56 0 0 1 22.819-30.4 9.4 9.4 0 0 0 4.282-2.79c.975-1.426.611-3.873-1.069-4.276a4 4 0 0 0-2.609.6l-12.72 6.26c-6.425 3.162-12.977 6.415-18.023 11.495s-8.4 12.414-6.893 19.414"/><path fill="#e6e6e6" d="M284.296 375.095a156.2 156.2 0 0 0-38.564-20.153c-8.44-3-17.509-5.29-26.3-3.586a31.3 31.3 0 0 0-13.19 6.191 31.3 31.3 0 0 0-8.96 11.491 32.78 32.78 0 0 0 1.072 28.422c4.055 7.6 11.078 13.652 13.426 21.939 1.583 5.587.833 11.536.071 17.293l-4.67 35.295c-1.417 10.711-2.8 21.858.593 32.116s13.068 19.3 23.818 18.212l2.13-.16c-7.111-4.835-9.1-14.846-6.987-23.18s7.491-15.4 12.737-22.214l46.709-60.653c6.3-8.18 12.962-18.29 9.6-28.052-1.911-5.55-6.713-9.544-11.485-12.961"/><path fill="#e6e6e6" d="M178.189 323.985c-1.577-.534-3.242.653-4.169 2.036a28 28 0 0 1-2.631 4.229c-2.425 2.5-6.845 2-9.461-.3s-3.749-5.857-4.257-9.3c-.609-4.135-.346-8.748 2.383-11.913 2.809-3.259 7.427-4.133 11.676-4.81 4.389-.7 9.306-1.282 12.9 1.33 2.265 1.645 3.585 4.3 5.683 6.153s5.83 2.555 7.409.244a5.683 5.683 0 0 0-.076-5.269 12.9 12.9 0 0 1-1.566-5.217c.106-2.541 2.146-4.56 4.234-6.013s4.445-2.706 5.815-4.848c1.685-2.636 1.506-6.031 2.551-8.979 2.529-7.136 11.557-10.31 14.186-17.41a6.7 6.7 0 0 0 .2-4.708c-1.1-2.828-4.076-2.273-4.258-5.729-.175-3.306 2.583-6.549 5.386-7.929 3.864-1.9 8.368-1.749 12.674-1.865s8.944-.688 12.1-3.615a10.44 10.44 0 0 0 2.919-8.008 10.44 10.44 0 0 0-4.028-7.512c-2.355-1.626-5.331-2.192-7.622-3.906-2.854-2.135-4.2-5.692-6.427-8.478a32.6 32.6 0 0 0-6.294-5.573l-5.721-4.245c-3.448-2.558-7.035-5.181-11.23-6.093s-9.191.378-11.292 4.122a12.75 12.75 0 0 0-1.326 5.361 77 77 0 0 0 .547 13.132l1.039 10.514c.31 3.142-.023 7.284-3.073 8.1-6.766 1.809-4.483-8.2-5.983-11.26-2.3-4.691-12.85-6.944-17.362-8.9-2.818-1.221-5.791-2.569-7.492-5.125-2.118-3.182-1.683-7.512-.022-10.954s4.366-6.244 6.824-9.171c2.505-2.983 4.787-6.147 7.066-9.307l7.929-10.995c3.39-4.7 6.953-10.437 5.028-15.9a4.28 4.28 0 0 0-7.829.944c-.844 2.951 1.407 6.718-.746 8.905a4.036 4.036 0 0 1-5.181-.1 11.8 11.8 0 0 1-3.1-4.682c-2.609-5.8-5.151-11.633-7.83-17.4-.847-1.823-1.73-4.944-4.3-4.637-2.227.267-3.43 3.513-3.353 5.4.113 2.742 1.628 5.192 2.786 7.68s1.968 5.475.7 7.907c-1.61 3.079-5.689 3.771-9.162 3.669a42.96 42.96 0 0 1-18.753-4.948l-.454 9.653-13.83-5.789-2.686-1.124c-3.889-1.628-7.782-3.257-11.786-4.579-2.273-.75-4.577-1.4-6.88-2.049l-4.2-1.184a22.05 22.05 0 0 0-8.62-1.23c-3.075.386-5.817 2.038-8.66 3.272-6.345 2.754-14.55-.017-21.35-.066a28.55 28.55 0 0 0-24.34-12.402A28.54 28.54 0 0 0 9.26 156.845a57 57 0 0 0-3.187 6.408l-2.768 6.2c-1.353 3.033-2.736 6.228-2.47 9.538s2.8 6.692 6.124 6.662c-7.83 3.545-9.46 15.951-2.81 21.4 1.84 1.508 4.1 2.495 5.755 4.2a9.025 9.025 0 0 1-6.781 15.3 21.98 21.98 0 0 0 26.131-8.185c2.843-4.451 4.078-10.012 7.946-13.609 5.122-4.763 13.582-4.394 19.49-.648 5.906 3.746 9.643 10.123 12.214 16.628 3.368 8.525 5.524 18.266 12.7 23.968 3.47 2.757 7.864 4.308 10.932 7.507 4.368 4.556 5.123 11.433 5.025 17.744s-.778 12.859 1.521 18.737 8.889 10.713 14.8 8.5a23.544 23.544 0 0 0 9.86 27.497l-3.23-20.035c5.366 1.511 8.845 6.716 10.853 11.916s3.07 10.825 5.982 15.579c4.585 7.486 12.888 10.712 21.334 10.684 9.124-.031 12.588-4.381 18.6-10.788a9.8 9.8 0 0 0 2.668-4.006 3.37 3.37 0 0 0-1.759-4.057"/><path fill="#e6e6e6" d="m204.025 323.65-15.3-2.4 8.021 4.822a29 29 0 0 0 7.2 3.47 9.8 9.8 0 0 0 7.749-.816l-.653-1.248c-1.026-2.605-4.255-3.394-7.017-3.828"/><path fill="#e6e6e6" d="m200.561 352.001.035-.089a2.995 2.995 0 0 0-3.041-1.41c-1.175.21-2.376.229-3.557.058a5.05 5.05 0 0 1-3.058-3.476c-.507-1.525-.657-3.157-1.234-4.657a6.84 6.84 0 0 0-5.523-4.505 4.773 4.773 0 0 0-5.134 4.309 8 8 0 0 0 1.19 3.622l1.65 3.174q.699 1.423 1.6 2.73a10.7 10.7 0 0 0 3.718 3.201 10.7 10.7 0 0 0 4.759 1.197 10.672 10.672 0 0 0 8.599-4.155Z"/><path fill="#e6e6e6" d="M170.776 80.603c3.883 2.29 8.746 3.867 10.591 7.98l1.065.344-3.483 4.328c-1.435 1.783-2.944 3.77-2.91 6.058.046 3.152 3.078 5.529 6.141 6.272a13.457 13.457 0 0 0 15.558-9.17c.364-1.329.515-2.707.834-4.046a32.9 32.9 0 0 1 4.169-8.956l30.936-52.045c1.284-2.16 2.608-4.745 1.642-7.066a5.55 5.55 0 0 0-5.481-2.941 16.3 16.3 0 0 0-6.239 2.1 10.63 10.63 0 0 0-8.311-5.329 31.4 31.4 0 0 0-10.2.888 62.8 62.8 0 0 0-21.4 7.352c-3.627 1.833-7.618 4.1-8.67 8.023-1.294 4.828 2.877 9.75 7.679 11.137s9.928.222 14.789-.946a11.19 11.19 0 0 1-5.398 12.287 11.19 11.19 0 0 1-13.308-1.728c-3.484-3.392-5.19-9.282-9.974-10.157-4.768-.873-8.558 4.213-9.611 8.945a25.42 25.42 0 0 0 11.581 26.672Z"/><path fill="#e6e6e6" d="M230.584 164.084a91.5 91.5 0 0 0-9-18.462 55.2 55.2 0 0 0-10.223-12.328 39.5 39.5 0 0 0-12.369-7.245c-4.4-1.59-9.293-2.376-13.738-.926s-8.227 5.583-8.137 10.258c.1 5.169 4.622 9.212 9.336 11.336s9.957 3.048 14.4 5.685a21.58 21.58 0 0 1 10.37 17.43l1.12 1.852a22.4 22.4 0 0 0-6.987 3.8 7.6 7.6 0 0 0-2.654 7.141c.777 3.13 3.973 4.926 6.863 6.358l16.021 7.935c-2.719-8.108 6.183-15.653 6.676-24.19a22.4 22.4 0 0 0-1.681-8.652Z"/><path fill="#e6e6e6" d="M96.305 142.195c3.24 2.516 8.22 1.339 11.188-1.492s4.413-6.86 5.761-10.734a41.5 41.5 0 0 0 .139 11.54 13.99 13.99 0 0 0 6.082 9.453 16.4 16.4 0 0 0 4.681 1.7 39.4 39.4 0 0 0 22.864-1.633l.065-2.493c-3.663.418-6.434-3.6-6.676-7.278s1.093-7.286 1.211-10.971-1.658-7.99-5.286-8.645a7.008 7.008 0 0 1-1.135 7.893 7.01 7.01 0 0 1-7.784 1.729c-4.2-1.707-5.724-6.823-8.969-9.988a13.61 13.61 0 0 0-14.935-2.1 18.53 18.53 0 0 0-9.6 12.208c-.987 3.789-.695 8.412 2.394 10.811"/><path fill="#e6e6e6" d="m196.283 115.937.15-.244c-.9-2.612-3.708-4.143-6.444-4.531a42 42 0 0 0-8.268.273 12 12 0 0 1-7.928-1.746c-1.883-1.408-2.956-3.623-4.462-5.43s-3.943-3.292-6.13-2.428c-2.368.935-3 4.254-1.851 6.526a11.54 11.54 0 0 0 5.8 4.737 44.76 44.76 0 0 0 29.129 2.843Z"/><path fill="#e6e6e6" d="M165.163 123.771a3.638 3.638 0 0 0 4.052 6.033l.8.789c1.063-1.9 1.5-4.452.142-6.155a3.773 3.773 0 0 0-4.993-.666Z"/><path fill="#e6e6e6" d="M155.816 130.592a3.36 3.36 0 0 0-2.1-3.178 3.2 3.2 0 0 0-2.463.586 3.21 3.21 0 0 0-1.28 2.184 6.43 6.43 0 0 0 1.685 4.841 4.44 4.44 0 0 0 3.082 1.936c1.252.041 2.529-1.268 2.021-2.413l-1.912-.037a9.9 9.9 0 0 0 .968-3.919Z"/><path fill="#e6e6e6" d="m118.431 111.018 2.106 1.707a25 25 0 0 0 3.923 2.786 10.74 10.74 0 0 0 7.994.979 8.224 8.224 0 0 0 5.627-5.552c.839-3.163-.53-6.448-1.87-9.433a5.74 5.74 0 0 0-1.472-2.245 1.96 1.96 0 0 0-2.483-.1 2.45 2.45 0 0 0-.4 2.359c.288.787.42 1.622.388 2.459-.134.826-1 1.606-1.763 1.264l-.122 2.81c-3.645-1.845-5.573-6.754-9.63-7.238a5.01 5.01 0 0 0-4.733 2.155 5.02 5.02 0 0 0-.267 5.193 10 10 0 0 0 2.7 2.854Z"/><path fill="#e6e6e6" d="M109.748 98.882a5.55 5.55 0 0 0 2.367-5.289 3.415 3.415 0 0 0-4.633-2.473 5.5 5.5 0 0 0-2.065 3.169l-2.882 8.13 1.615-1.175a16.3 16.3 0 0 0 5.6-2.362Z"/><path fill="#e6e6e6" d="M128.457 82.248a3.175 3.175 0 0 0-.981-4.77l-2.019-.189a3.02 3.02 0 0 0-2.06 1.787 3.02 3.02 0 0 0 .21 2.719 3.035 3.035 0 0 0 3.699 1.252 3 3 0 0 0 1.151-.8"/><path fill="#e6e6e6" d="M147.036 85.366c1.884.9 4.269 1.76 5.908.466a3.72 3.72 0 0 0 1.141-3.551 9 9 0 0 0-1.666-3.509 33.7 33.7 0 0 0-9.376-9.053l-.911 1.184c-1.272 3.3-2.5 7.16-.726 10.225 1.197 2.064 3.477 3.21 5.63 4.238"/><path fill="#e6e6e6" d="m161.07 88.309 3.523 1.594a3.3 3.3 0 0 0-3.523-1.594"/><path fill="#e6e6e6" d="m151.576 99.391-1.665.55c-1.416 2.325-.8 5.299-.143 7.942.416 1.671 1.314 3.726 3.034 3.65 1.674-.074 2.414-2.1 2.735-3.747.502-1.786.556-3.668.158-5.48a3.88 3.88 0 0 0-4.119-2.915"/><path fill="#e6e6e6" d="m125.029 91.561 1.232.5a1.325 1.325 0 1 0-1.232-.5"/><path fill="#e6e6e6" d="M187.131 185.76a3.742 3.742 0 0 0-3.426 5.046c1.21 2.6 5.376 2.616 7.227.42a5.68 5.68 0 0 0 1.069-4.426 5.664 5.664 0 0 0-2.531-3.784Z"/><path fill="#e6e6e6" d="M247.133 247.461a3.75 3.75 0 0 0-2.628 4.689l3.459.24 3.514-1.764a3.754 3.754 0 0 0-4.344-3.166Z"/><path fill="#e6e6e6" d="M233.077 251.736a7.15 7.15 0 0 0-3 6.257 5.72 5.72 0 0 0 4.474 5.056 4.783 4.783 0 0 0 5.4-3.664c.585-3.577-3.26-6.2-4.642-9.549Z"/><path fill="#e6e6e6" d="M367.408 228.111c.365 2.686-2.055 5.038-2.145 7.747-.107 3.214 3.392 5.715 6.592 5.4a10.4 10.4 0 0 0 4.391-1.869 10.44 10.44 0 0 0 3.097-3.631l.069-.3-4.676-5.286c-1.914-2.164-3.944-4.627-3.869-7.515.037-1.424.6-2.8.566-4.227a10.3 10.3 0 0 0-.678-2.988c-.422-1.26-1-2.679-2.255-3.1-1.575-.532-3.165.864-3.917 2.347a9.28 9.28 0 0 0 .275 8.745c.91 1.541 2.308 2.9 2.55 4.677"/><path fill="#e6e6e6" d="M352.713 237.558a2.69 2.69 0 0 0 2.24.144 11.7 11.7 0 0 0 3.941-1.432 3.98 3.98 0 0 0 1.919-3.52 4.6 4.6 0 0 0-3.75-3.482 4.03 4.03 0 0 0-3.752.573c-1.161 1.09-1.023 2.939-.8 4.515l-.245.411c-.21.973-.353 2.183.447 2.791"/><path fill="#e6e6e6" d="m598.067 352.335-1.012-2.515c-.462 1.138-.29 2.303 1.012 2.515"/><path fill="#e6e6e6" d="M800.46 175.983c-4.327-4.694-6.976-7.4-9.708-13.219a21.42 21.42 0 0 0-16.208-12.171c-8.976-1.479-18.149.863-27.233.394-14.552-.752-27.674-8.557-41.609-12.814a174 174 0 0 0-23.779-4.9l-13.883-2.2c-15.169-2.4-30.434-4.8-45.788-4.486-4.427.092-10.6-1.239-10.24-5.653.441-5.482 10.3-4.763 12.2-9.925 1.174-3.193-1.635-6.546-4.716-7.99s-6.637-1.878-9.433-3.817-4.328-6.433-1.758-8.663l-21.368 10.954c-5.922 3.036-12.538 6.985-13.584 13.557a15.7 15.7 0 0 0-8.82 6.127c-4.006.021-7.155 3.867-7.816 7.819s.54 7.951 1.728 11.777c-1.453-2.784-3-5.673-5.558-7.49s-6.461-2.162-8.644.094c-2.241 2.315-1.717 6.2-.132 9.006s4.021 5.07 5.516 7.924c4.672 8.914-3.794 21.464-13.808 20.471l2.015-27.614a18.5 18.5 0 0 0-.7-8.446c-1.093-2.635-3.89-4.8-6.674-4.177-5.005 1.119-4.578 8.451-2.5 13.138s4.158 11.205-.093 14.076c-2.745 1.854-6.466.709-9.429-.771s-6.133-3.3-9.372-2.612-5.276 5.643-2.414 7.31l-14.238-2.474a10.14 10.14 0 0 1-4.541 6.858 10.12 10.12 0 0 1-8.132 1.227l-1.4-5.793-2.083-.58c2.18.607-1.231 9.8-4.289 16.824-4.111-.482-10.118-.575-10.8-1.753-3.282-5.641-2.893-19.077-8.6-22.251a101 101 0 0 0-8.8-4.35 20.7 20.7 0 0 0-4.964-1.63c-3.5-.552-7.033.534-10.413 1.608-3.993 1.268-8.08 2.584-11.386 5.157a35.6 35.6 0 0 0-7.172 8.529l-19.585 28.986a31 31 0 0 0-4.536 8.5 11.1 11.1 0 0 0 1.034 9.2 7.12 7.12 0 0 0 8.339 2.849c1.892-.819 3.787-2.675 5.662-1.818 1.42.649 1.775 2.516 1.626 4.07a10.9 10.9 0 0 0-.083 4.638c.854 2.42 4.138 3.261 6.48 2.214a10.02 10.02 0 0 0 4.76-5.8c2.257-5.788 2.027-12.193 2.589-18.381s2.253-12.805 7.131-16.653c1.46-1.152 3.606-1.982 5.109-.887a3.66 3.66 0 0 1 .9 4.146 16.3 16.3 0 0 1-2.434 3.824 20.98 20.98 0 0 0-3.449 16.363l1 .617c3.8-.987 8.894.78 13.944 2.474a18.15 18.15 0 0 0-9.222 6.343c-5.837 8.19-10.062 15.94-21.609 15.843-2.739-.023-5.455-.565-8.195-.571a10.7 10.7 0 0 0-7.6 2.531c-2.077 2.034-2.719 5.13-4.5 7.43-2.336 3.025-6.241 4.255-9.807 5.628-2.606 1-5.353 2.358-6.551 4.881a12.1 12.1 0 0 0-.5 6.465c.4 3.821 1.112 8.167 4.354 10.229a10.315 10.315 0 0 0 7.936.671c3.372-.82 6.669-2.365 10.132-2.134 5.437.362 9.914 5.581 9.969 11.029.028 2.758-.777 5.921 1.051 7.987 1.718 1.941 5.125 1.595 6.9-.289a7.95 7.95 0 0 0 1.5-7.3 23.5 23.5 0 0 0-3.44-6.93 8.085 8.085 0 0 1 9.306 4.3c1.208 2.683.818 5.778 1.2 8.7s2.161 6.158 5.1 6.327a4.12 4.12 0 0 0 4.138-3.248c.03-1.48-.051-2.961-.242-4.429a5.67 5.67 0 0 1 5.73-5.28 8.084 8.084 0 0 0 1.982 10.1c2.235 1.73 5.19 2.116 7.975 2.6s5.755 1.248 7.552 3.429c2.994 3.633-.669 5.27-1.24 8.347-.7 3.778 2.455 9.356 3.667 12.97l16.709 23.375a28.3 28.3 0 0 0 4.368 5.178c5.5 4.722 14.562 4.256 19.835-.716a17.01 17.01 0 0 0 2.888-20c-3.258-5.931-9.715-9.6-12.9-15.574a34.03 34.03 0 0 0 18.683 7.683 94.2 94.2 0 0 1 33.943 14.235 47.33 47.33 0 0 0 11.672 29.053 41.84 41.84 0 0 1 12.138-24.106c4.291-4.185 10.154-7.559 16.041-6.433s10.353 8.632 6.792 13.454l8.951.666 4.014 9.98a3.46 3.46 0 0 1 3.371-2.34c2.793.422 4.752 3.02 7.409 3.98 5.008 1.809 10.362-3.2 11.01-8.487s-1.867-10.388-4.309-15.119a28.22 28.22 0 0 0 28.506-11.923 28.22 28.22 0 0 0 .494-30.895 71.9 71.9 0 0 1 20.187-14.862c6.985-3.451 14.625-5.819 20.73-10.66s10.386-13.246 7.449-20.462c-2.074-5.1-7.277-8.558-8.834-13.837-2.254-7.642 4.593-15.546 12.328-17.455s15.812.438 23.432 2.766c-1.171-7.84 7.917-15.19 15.339-12.406l9.326-3.776c-3.6 7.945-11.412 13-17.153 19.567s-9.161 17.263-3.163 23.6l25.79-23.375 26.976-24.451-1.288-3.784c8.52-3.232 17.682-5.905 25.819-9.918"/><path fill="#e6e6e6" d="M353.94 280.848a2.97 2.97 0 0 0 .017 3.4 2.602 2.602 0 0 0 3.319.045 7.6 7.6 0 0 0 2.101-2.91 4.74 4.74 0 0 0 4.815 2.522 11.84 11.84 0 0 0 5.313-2.215 11.6 11.6 0 0 0 3.225-2.8 4.61 4.61 0 0 0 .812-4.056 7 7 0 0 0-2.101-2.706l-6.824-6.3-.77-.231a4.353 4.353 0 0 0-6.272-.067c-1.413 1.581-1.42 3.944-1.201 6.053s.552 4.356-.387 6.257c-.535 1.088-1.447 1.951-2.047 3.008"/><path fill="#e6e6e6" d="M485.921 352.62a47.43 47.43 0 0 1-36.045-36.23c-.838-4.176-1.218-8.739-4-11.968-2.69-3.126-7.084-4.254-11.208-4.254s-8.189.949-12.3 1.206c-7.2.449-14.821-1.452-19.966-6.5-2.437-2.391-4.281-5.428-7.127-7.315-3.825-2.535-8.9-2.533-13.254-1.1-4.854 1.6-8.74 5.978-14.048 5.375-5.52-.627-11.918-2.578-14.082 4.691-.623 2.093-.411 4.388-1.2 6.424-1.216 3.138-4.445 4.907-7 7.1-5.144 4.415-7.878 11.123-8.8 17.839s-.208 13.537.5 20.278c.385 3.636.891 7.549 3.389 10.22 3.482 3.723 9.324 3.579 14.4 3.159l17.7-1.462c3.181-.263 6.806-.374 9.071 1.875 1.357 1.348 1.931 3.3 3.125 4.793a7.356 7.356 0 0 0 8.977 1.81 14.9 14.9 0 0 0-.28 14.045 14.9 14.9 0 0 0 11.523 8.036l.455.287c-3.778 6.47-7.7 13.735-6.131 21.062 1.343 6.282 6.546 11.319 7.4 17.686.781 5.842-2.268 11.817-.919 17.555 1.366 5.81 7.234 9.861 13.187 10.294s11.8-2.208 16.413-6 8.177-8.671 11.69-13.5c2.169-2.979 4.394-6.08 5.139-9.69.793-3.841-.126-8.1 1.742-11.546 2.154-3.977 7.267-5.468 9.847-9.182 3.342-4.81 1.373-11.359 2.112-17.169 1.841-14.371 20.105-23.332 19.69-37.819"/><path fill="#e6e6e6" d="M483.282 401.708c-.5 2.245-2.6 3.723-4.6 4.853s-4.206 2.27-5.227 4.331c-1.045 2.111-.568 4.627-.021 6.918a172 172 0 0 0 4.019 14.136 144 144 0 0 0 7.812-17.484 23 23 0 0 0 1.714-7.01 8.66 8.66 0 0 0-2.357-6.624Z"/><path fill="#e6e6e6" d="m606.215 376.7-7.531-8.693c-1.717-1.982-3.674-4.1-6.275-4.429l-1.071.684 6.529 15.547a14.76 14.76 0 0 0 3.943 6.2c1.948 1.531 5.107 1.825 6.732-.046a5 5 0 0 0 .59-4.952 14.7 14.7 0 0 0-2.918-4.312Z"/><path fill="#e6e6e6" d="M630.539 382.248a7.22 7.22 0 0 0 4.267-3.977c.778-1.85 1.292-3.8 1.526-5.792l1.287-7.784-.561-.144a2.498 2.498 0 0 0-3.169.879 12.4 12.4 0 0 0-1.42 3.317 4.02 4.02 0 0 1-2.294 2.637c-2.015.608-3.923-1.527-6.026-1.444a3.786 3.786 0 0 0-3.291 3.378 7.35 7.35 0 0 0 1.377 4.826c1.793 2.783 5.121 5.02 8.304 4.104"/><path fill="#e6e6e6" d="m644.417 387.173 5.785-15.235a14.85 14.85 0 0 0-5.785 15.235"/><path fill="#e6e6e6" d="m673.939 374.891-1.17.05a7.54 7.54 0 0 0-.064 6.682 15.1 15.1 0 0 0 4.364 5.305 30.7 30.7 0 0 0 9.627 5.376 61.3 61.3 0 0 0 15.82 2.437l9.187.6c1.459.1 3.346-.09 3.751-1.494.335-1.16-.653-2.25-1.576-3.029a57.7 57.7 0 0 0-28.392-12.886c-3.972-.608-8.181-.856-11.547-3.041"/><path fill="#e6e6e6" d="m706.628 415.323-6.607-6.407c-2.142-2.077-5.351-4.278-7.806-2.582-1.411.975-1.846 2.876-3.042 4.105a5.88 5.88 0 0 1-5.448 1.3 17.4 17.4 0 0 1-5.259-2.493l-5.465-3.391-5.657-3.511-4.256 4.136c.185-2.035-2.529-3.358-4.408-2.553a6.81 6.81 0 0 0-3.39 4.846 26.5 26.5 0 0 1-1.627 5.892c-2.161 4.137-7.407 5.362-12.023 6.055s-9.844 1.669-12.315 5.629c-2.058 3.3-1.441 7.533-.754 11.359l2.6 14.475a7.9 7.9 0 0 0 2 4.726c2.285 2.017 5.825.791 8.614-.439a58.3 58.3 0 0 1 18.513-5.365 26.7 26.7 0 0 1 18.342 4.7c3.308 2.519 5.83 6.005 9.335 8.242a18.52 18.52 0 0 0 16.2 1.413 24.12 24.12 0 0 0 12.318-10.984 28.86 28.86 0 0 0-.622-28.565 56.6 56.6 0 0 0-9.243-10.588"/><path fill="#e6e6e6" d="M700.134 474.296a3.888 3.888 0 0 0-.247 4.613 6.38 6.38 0 0 0 4.072 2.621c1.633.292 3.298.368 4.951.227l.05-1.235a12.7 12.7 0 0 0-2.9-5.844c-1.595-1.516-4.414-1.982-5.926-.382"/><path fill="#e6e6e6" d="m756.847 475.625-.789-.289-5.638 8.5c-1.011 1.524-2.067 3.354-1.45 5.076.73 2.038 3.429 2.635 5.526 2.1a8.71 8.71 0 0 0 6.3-6.92 8.56 8.56 0 0 0-3.949-8.467"/><path fill="#e6e6e6" d="m771.179 466.625-5.188-4.125q-.1 2.87-.208 5.74h-.195a38 38 0 0 1 3.382 3.363c1.215 1.033 3.252 1.5 4.29.3a2.71 2.71 0 0 0 .112-2.995 8 8 0 0 0-2.193-2.283"/><path fill="#e6e6e6" d="M677.444 287.187c-2.177-.068-4.587-.2-6.274 1.177a8.5 8.5 0 0 0-1.448 1.688l-.595.833a23 23 0 0 0-2.318 3.727 4.92 4.92 0 0 0-.315 4.066 2.354 2.354 0 0 0 3.479 1c.93-.862.713-2.425 1.417-3.481a3.3 3.3 0 0 1 1.162-.935 3.3 3.3 0 0 1 1.458-.318c1.005.026 2.006.139 2.991.338a14.43 14.43 0 0 0 14.113-6.517 14.43 14.43 0 0 0 .011-15.546l-.175-.535a6.45 6.45 0 0 0-6.538 5.04c-.487 2.537.545 5.483-.992 7.558-1.297 1.746-3.799 1.973-5.976 1.905"/><path fill="#e6e6e6" d="m696.931 260.295-.332-.029a16.8 16.8 0 0 0-5.521 2.057 2.56 2.56 0 0 0-1.258 1.276 1.85 1.85 0 0 0 .439 1.708c.423.446.918.818 1.464 1.1a8.7 8.7 0 0 0 2.66 1.19c.476.117.973.115 1.447-.007s.91-.361 1.269-.693a3.93 3.93 0 0 0 .637-3.252 17 17 0 0 0-.806-3.35Z"/><path fill="#e6e6e6" d="M663.376 287.835a8.4 8.4 0 0 0 1.092-2.715l.609-2.24-2.17-1.318a12.6 12.6 0 0 0-2.841 2.025 4.244 4.244 0 0 0-1.3 3.14 2.59 2.59 0 0 0 2.13 2.418 2.85 2.85 0 0 0 2.482-1.31Z"/><path fill="#e6e6e6" d="M426.971 86.032c-.858.535-.616 1.828-.268 2.777l1.2 3.27.559-2.116a4.5 4.5 0 0 0 .618-2.729c-.193-.93-1.302-1.702-2.109-1.202"/><path fill="#0c9017" d="M694.434 441.062c27.614 0 50-22.385 50-50s-22.386-50-50-50-50 22.386-50 50 22.385 50 50 50"/><mask id="mask0_203_238" width="101" height="101" x="644" y="341" maskUnits="userSpaceOnUse" style="mask-type:luminance"><path fill="#fff" d="M694.434 441.062c27.614 0 50-22.385 50-50s-22.386-50-50-50-50 22.386-50 50 22.385 50 50 50"/></mask><g mask="url(#mask0_203_238)"><path fill="#ffd4af" d="M707.55 388.932a12.33 12.33 0 0 0-3.24-12.507 12.345 12.345 0 0 0-18.12 1.093 12.34 12.34 0 0 0-1.714 12.806 12.34 12.34 0 0 0 4.291 5.162l-7.531 18.877 37-3.135s-18.75-10.062-18.986-14.082a12.33 12.33 0 0 0 8.3-8.214"/><path fill="#3f3d56" d="m718.286 410.036 3.155-1.458a5.942 5.942 0 0 1 4.68 4.527c1.075 4.067 5.984 25.856 5.984 25.856a6.32 6.32 0 0 1 1.228 6.752s.574 4.335-1.228 4.987-13.873 9.971-13.873 9.971Z"/><path fill="#3f3d56" d="m708.782 404.365-8.156-4.967c-1.881 9.36-11.585 9.874-13.466.515l-6 4.453-12.66 4.22 1.841 49.084 25.7-.074v.074H719.6l1.841-49.084Z"/><path fill="#3f3d56" d="m671.658 410.036-3.155-1.458a5.94 5.94 0 0 0-4.68 4.527c-1.075 4.067.921 27.583.921 27.583a6.32 6.32 0 0 0-1.228 6.752s-.574 4.335 1.228 4.987 6.915.942 6.915.942Z"/><path fill="#090814" d="m684.114 380.079-.937 9.556s-9.829-19.072 2.391-22.599c0 0-1.19-1.612.537-2.148s18.106-3.108 19.411 4.91c0 0 8.556 5.3 5.967 10.976l-3.051 6.67-2.762.153s-.078-12.7-4.3-12.276-17.256 4.758-17.256 4.758"/></g><path fill="#df1523" d="M479.5 224c27.89 0 50.5-22.386 50.5-50s-22.61-50-50.5-50-50.5 22.386-50.5 50 22.61 50 50.5 50"/><mask id="mask1_203_238" width="101" height="100" x="429" y="124" maskUnits="userSpaceOnUse" style="mask-type:luminance"><path fill="#fff" d="M479.5 224c27.89 0 50.5-22.386 50.5-50s-22.61-50-50.5-50-50.5 22.386-50.5 50 22.61 50 50.5 50"/></mask><g mask="url(#mask1_203_238)"><path fill="#ffd4af" d="m473.037 179.473-.5 8.152 15.223.772-4.714-10.741Z"/><path fill="#f6f6f6" d="M472.145 186.406c4.08 2.144 10.607 1.558 18 0l1.156 60.37s-24.1 7.808-32.057-2.3l5.155-51.653 7.745-6.412Z"/><path fill="#3f3d56" d="m485.505 183.266 10.974 6.5a10.57 10.57 0 0 1 4.759 12.063l-8.481 28.967s13.811 23.728 9.324 25.821c-10.085 4.7-25.134 3.559-25.134 3.559l3.363-56.81 5.2-20.1Z"/><path fill="#3f3d56" d="m472.622 186.195-12.409 4.821-2.931 35.8-8.208 28.838c13.9 5.074 12.6 2.71 12.6 2.71l2.3-49.759 8.641-22.4Z"/><path fill="#3f3d56" d="m454.499 255.041.042-.2 12.684-58.667a5.05 5.05 0 0 0-.641-3.807 5.05 5.05 0 0 0-5.113-2.297 5.05 5.05 0 0 0-4.078 3.845l-13.934 57.278 11.037 3.852Z"/><path fill="#ffd4af" d="M479.641 181.638c6.821 0 12.35-5.53 12.35-12.35s-5.529-12.35-12.35-12.35-12.35 5.529-12.35 12.35 5.529 12.35 12.35 12.35"/><path fill="#090814" d="M473.767 153.289c-2.72.956-4.277 1.5-5.7 2.877-2.408 2.32-2.806 5.421-3.175 8.3a16 16 0 0 0 .659 8.5c.45 1.136 2.636 6.2 6.818 6.838.821.126 2.75.159 2.194-.252-5.144-3.8-7.339-6.09-7.159-11.943.112-3.637 5.669-7.563 8.968-8.269a5.63 5.63 0 0 1 4.566 1.064c2.773 2.277 2.655 11.691 5.579 13.659 1.2.81.4-4.888 1.249-3.964 1.672 1.823.6 4.613.3 5.678-1.425 5.043-2.918 1.314-4.309 5.62-1.5 4.649 11.678 7.78 12.126 8.818.78 1.806-10.366 10.375-7.306 11.861 3.883 1.887 6.944-.57 8.749 1.536 1.009 1.177.463 2.425 2.286 6.088.595 1.2.894 1.794 1.156 1.773 1.246-.1 3.265-10.078 0-19.369-1.37-3.9-2.712-7.719-6.307-10.707-1.9-1.58-3.5-2.148-3.951-3.992-.649-2.636 2.045-3.76 2.584-7.917.369-2.843.628-6.91-.377-9.516-.948-2.462-1.771-4.6-3.925-6.535-.518-.465-4.694-3.628-9.122-3.718-2.038-.041-3.537 2.738-5.9 3.569Z"/><path fill="#3f3d56" d="M492.88 190.136a7.515 7.515 0 0 1 8.406 5.894c2.84 13.5 7.937 42.27-.068 42.75a77 77 0 0 1-20.515-1.883l2.512-14.444 8.164-.837-4.8-22.462a7.5 7.5 0 0 1 1.189-5.879 7.52 7.52 0 0 1 5.111-3.139Z"/></g><path fill="#ffbf26" d="M147.973 200.398a50.082 50.082 0 1 1-19.165 96.348 50.078 50.078 0 0 1 19.165-96.348"/><mask id="mask2_203_238" width="101" height="101" x="97" y="200" maskUnits="userSpaceOnUse" style="mask-type:luminance"><path fill="#fff" d="M147.874 300.36c27.603 0 49.981-22.377 49.981-49.981s-22.378-49.981-49.981-49.981-49.981 22.378-49.981 49.981 22.377 49.981 49.981 49.981"/></mask><g mask="url(#mask2_203_238)"><path fill="#ffd4af" d="M150.924 240.839A8.654 8.654 0 1 0 150.92407114150714 223.531 8.654 8.654 0 0 0 150.924 240.84"/><path fill="#ffd4af" d="M143.45 234.148s-.394 12.195-2.36 13.768 7.081 8.261 7.081 8.261l5.9-9.441v-8.654Z"/><path fill="#f2f2f2" d="m147.383 250.673-4.776-7.212-2.7 3.671-3.934 11.015 3.147 42.878 18.489.394 2.36-49.173-5.9-7.081Z"/><path fill="#090814" d="m167.446 253.424 3.147-.393s.786.393 1.18 3.147 5.112 27.144 5.112 27.144l-6.294 29.9-7.081-9.441 4.329-16.521-4.328-16.528Z"/><path fill="#090814" d="M127.321 253.031h-2.36l-5.9 31.864 5.507 24.784 5.508-9.048-1.574-9.835.784-8.654 2.755-5.114Z"/><path fill="#090814" d="m145.811 232.187 1.574-.394s1.18-6.689 3.934-5.9 9.835 1.574 9.835-1.574-6.689-5.9-10.621-5.508-10.622 1.576-10.229 7.476a39.6 39.6 0 0 0 2.932 11.641l.207-3.5Z"/><path fill="#090814" d="m170.201 253.033-12.588-5.114-2.95-2.164-8.851 39.142-5.9-17.7 1.77-22.619-16.325 8.458 5.51 26.752.787 10.228-2.36 8.261s-8.261 5.9-5.507 12.195 5.9 6.689 5.9 6.689 13.375-12.588 14.163-15.735 1.967-8.654 1.967-8.654 6.689 25.177 14.555 24.783 7.868-8.654 7.868-8.654l-1.967-8.654-3.151-9.059 1.574-14.948Z"/></g><circle cx="410" cy="354" r="10" fill="#ffbf26"/><circle cx="131" cy="142" r="10" fill="#df1523"/><circle cx="635" cy="293" r="7" fill="#df1523"/><circle cx="707" cy="155" r="7" fill="#ffbf26"/><circle cx="235" cy="458" r="7" fill="#0c9017"/><circle cx="386" cy="250" r="7" fill="#0c9017"/></g><defs><clipPath id="clip0_203_238"><path fill="#fff" d="M0 0h800.46v522.403H0Z"/></clipPath></defs></svg>