<svg xmlns="http://www.w3.org/2000/svg" width="845" height="545" fill="none" viewBox="0 0 845 545"><g clip-path="url(#clip0_200_2)"><path fill="#ffd4af" d="M725.084 533.948h-8.518l-4.052-32.854h12.571Z"/><path fill="#2f2e41" d="m724.856 531.161-9.088-3.692-.268-.11-5.019 3.802a10.686 10.686 0 0 0-10.676 10.223c-.014.151-.014.309-.014.467v.351h27.464v-11.041Z"/><path fill="#ffd4af" d="m708.863 516.957-7.341 4.32-20.155-26.261 10.835-6.375Z"/><path fill="#2f2e41" d="m713.933 521.283-.997-1.698-3.609-6.132-1.877 1.107-.192.11-9.708 1.43-.288.041-2.393 5.823a10.7 10.7 0 0 0-5.168 10.697 10.7 10.7 0 0 0 1.373 3.939l.179.296 23.67-13.928Z"/><path fill="#2f2e41" d="M735.871 333.094c3.993 12.044 3.571 25.118-.96 39.15l-1.183 48.236-3.798 30.427a52.1 52.1 0 0 1 3.466 18.681c-.016 16.741-1.141 40.525-6.849 51.698h-13.505l-3.049-49.755-3.638-25.016-.449-26.807-.391-23.379-14.685 21.473-14.27 20.867 14.184 23.925 12.374 38.498-13.062 11-14.818-28.093-7.181-8.343-19.604-42.438 1.762-5.909a139.8 139.8 0 0 1 15.662-34.532l19.5-45.256Z"/><path fill="#fff" d="M510.922 342.094h-268.01a8.074 8.074 0 0 1-8.066-8.067V129.16a8.073 8.073 0 0 1 8.066-8.066h268.01a8.073 8.073 0 0 1 8.067 8.066v204.867a8.08 8.08 0 0 1-8.067 8.067"/><path fill="#f0f0f0" d="M510.922 343.094h-268.01a9.077 9.077 0 0 1-9.066-9.067V129.16a9.072 9.072 0 0 1 9.066-9.066h268.01a9.07 9.07 0 0 1 9.066 9.066v204.867a9.08 9.08 0 0 1-9.066 9.067m-268.01-221a7.073 7.073 0 0 0-7.066 7.066v204.867a7.074 7.074 0 0 0 7.066 7.067h268.01a7.07 7.07 0 0 0 7.066-7.067V129.16a7.073 7.073 0 0 0-7.066-7.066Z"/><path fill="#df1523" d="M235.465 303.094v30.934a7.457 7.457 0 0 0 7.447 7.447h268.01a7.46 7.46 0 0 0 7.448-7.447v-30.934Z"/><path fill="#f0f0f0" d="m237.99 122.402-1.078 1.684L517.83 303.939l1.079-1.684Z"/><path fill="#ffd4af" d="M601.764 275.285a6.61 6.61 0 0 0 4.956 2.605 6.627 6.627 0 0 0 5.18-2.127l21.566 9.379-2.101-12.039-20.157-7.061a6.65 6.65 0 0 0-8.827.427 6.655 6.655 0 0 0-.617 8.816"/><path fill="#3f3d56" d="m621.385 268.486 41.197 5.339 42.485-25.592a18.78 18.78 0 0 1 26.807 8.35 18.802 18.802 0 0 1-8.434 24.392l-57.089 20.344-.107.039-50.09-22.312Z"/><path fill="#3f3d56" d="m681.547 340.374 3.424-8.561-2.264-7.361 6.71-73.361.991-11.118.067-8.288 22.946-.56 2.489 6.319 4.923 2.945a35.64 35.64 0 0 1 17.308 31.18l-.89 48.121 2.29 4.58a9.63 9.63 0 0 1 .263 8.052 9.64 9.64 0 0 1-5.943 5.438l-50.444 15.331Z"/><path fill="#ffd4af" d="M699.847 231.268c11.514 0 20.849-9.334 20.849-20.849 0-11.514-9.335-20.849-20.849-20.849-11.515 0-20.849 9.335-20.849 20.849 0 11.515 9.334 20.849 20.849 20.849"/><path fill="#2f2e41" d="M721.558 214.968c.622-2.62.336-6.306-.015-8.944a25.03 25.03 0 0 0-10.596-17.383 7.64 7.64 0 0 0-3.803-1.512 3.28 3.28 0 0 0-3.3 1.997 6.83 6.83 0 0 0-3.86-3.828 12.06 12.06 0 0 0-5.494-.74 20.08 20.08 0 0 0-16.752 11.975c-.557 1.323-2.112-3.564-2.818-2.314a5.56 5.56 0 0 1-3.151 2.769c-1.383.386-1.944 6.082-2.488 4.754a6.33 6.33 0 0 0 6.053 8.828 35 35 0 0 0 4.143-.793 10.332 10.332 0 0 1 11.309 7.731 13.7 13.7 0 0 1 1.801-4.005 4.63 4.63 0 0 1 3.716-2.042 5.22 5.22 0 0 1 3.576 2.055c.917 1.078 1.607 2.336 2.531 3.407 2.713 3.146 6.383 10.481 10.249 9.946 3.052-.423 8.05-8.324 8.899-11.901"/><path fill="#ffd4af" d="M761.086 378.193a6.63 6.63 0 0 0 .856-5.534 6.62 6.62 0 0 0-3.693-4.209l1.874-23.442-10.705 5.893-.139 21.357a6.655 6.655 0 0 0 7.97 8.696 6.66 6.66 0 0 0 3.837-2.761"/><path fill="#3f3d56" d="m748.286 361.839-8.317-40.701-37.993-31.883a18.8 18.8 0 0 1-6.701-13.853 18.8 18.8 0 0 1 5.902-14.212 18.8 18.8 0 0 1 25.809.062l37.767 47.4.071.089-4.852 54.619Z"/><path fill="#ccc" d="M843.331 544.592H495.343a1.19 1.19 0 0 1-1.195-1.19 1.19 1.19 0 0 1 .738-1.101q.22-.09.457-.09h347.988a1.19 1.19 0 1 1 0 2.381"/><path fill="#ffbf26" d="M618.437 350.948h-158.14a4.16 4.16 0 0 1-4.156-4.156v-64.167a4.16 4.16 0 0 1 4.156-4.156h158.14a4.163 4.163 0 0 1 4.157 4.156v64.167a4.163 4.163 0 0 1-4.157 4.156"/><path fill="#0c9017" d="M603.38 381.734H475.356a5 5 0 0 1-3.531-1.458 4.988 4.988 0 0 1 3.531-8.518H603.38c6.433-.089 6.497 10.067 0 9.976"/><path fill="#e6e6e6" d="M603.379 404.594H475.355a4.99 4.99 0 0 1-4.988-4.988 4.99 4.99 0 0 1 4.988-4.988h128.024c6.433-.09 6.497 10.066 0 9.976"/><path fill="#e6e6e6" d="M603.38 427.453H475.356a4.97 4.97 0 0 1-3.531-1.458 5 5 0 0 1-1.464-3.53 4.99 4.99 0 0 1 1.464-3.529 4.97 4.97 0 0 1 3.531-1.459H603.38c6.433-.09 6.497 10.067 0 9.976"/><path fill="#ffd4af" d="M221.426 266.969a7.52 7.52 0 0 1-7.947-4.571 7.5 7.5 0 0 1-.568-3.211l-48.097-48.8 13.427-9.348 43.055 50.909a7.565 7.565 0 0 1 6.737 7.453 7.565 7.565 0 0 1-6.607 7.568"/><path fill="#d9d9d9" d="M150.017 189.277s-3.408 2.044 2.265 8.265c4.542 4.981 24.363 28.929 32.275 33.928-.863 2.492 21.021 26.343 23.322 27.863l12.164-15.179c-.695-4.352-24.629-25.13-26.277-24.602l-7.632-9.486-17.292-29.004-16.387 6.695Z"/><path fill="#ffd4af" d="M112.034 480.052h9.067l4.315-34.974h-13.383Z"/><path fill="#2f2e41" d="m109.075 473.841 14.486-.864v6.206l13.773 9.512a3.881 3.881 0 0 1 .094 6.313 3.88 3.88 0 0 1-2.297.754h-17.247l-2.973-6.139-1.16 6.139h-6.503Z"/><path fill="#ffd4af" d="M162.969 480.052h9.067l4.315-34.974h-13.382Z"/><path fill="#2f2e41" d="m160.008 473.841 14.487-.864v6.206l13.772 9.512a3.878 3.878 0 0 1-2.203 7.067h-17.246l-2.973-6.139-1.161 6.139h-6.502Z"/><path fill="#2f2e41" d="M108.122 449.89h.098l1.744-56.867a14.88 14.88 0 0 1 .195-14.052l.25-.452-.647-3a19.1 19.1 0 0 1 1.092-11.504l1.627-53.046c-5.812-37.667 21.886-62.232 21.886-62.232l-5.061-21.292 50.111-4.929-3.557 26.221 8.908 30.606c5.889 57.374 4.82 113.283-4.525 167.45l.255.129c.917.316 1.311 1.587.879 2.838s-1.526 2.009-2.443 1.692l-21.913-.762c-.917-.317-1.311-1.588-.879-2.839s1.526-2.008 2.443-1.691l1.49.753-3.177-54.874.352-10.023-.726-11.372-3.359-51.147-12.714 62.897-12.986 68.129a2.39 2.39 0 0 1 .624 2.634 2.395 2.395 0 0 1-2.235 1.526h-17.732a2.395 2.395 0 0 1-2.392-2.397c0-.634.252-1.243.701-1.692a2.4 2.4 0 0 1 1.691-.704"/><path fill="#d9d9d9" d="m169.831 175.853-9.855-5.913-19.71-1.971-17.42 8.871.174 27.099 11.052 28.107 43.055 8.874 5.023-24.701s12.811-17.207-.986-27.062Z"/><path fill="#ffd4af" d="M127.472 290.887a7.52 7.52 0 0 1-3.26-8.569 7.5 7.5 0 0 1 1.592-2.845l-6.355-68.223 16.312 1.26 1.117 66.665a7.564 7.564 0 0 1-9.406 11.712"/><path fill="#d9d9d9" d="M123.276 175.141s-3.932-.575-3.477 7.833c.365 6.731-1.368 48.219 1.593 57.097-2.244 1.383-2.364 35.15-1.545 37.784l19.025-4.055c2.216-3.81.757-38.721-.854-39.355l.095-12.175 4.204-40.131-16.191-6.632Z"/><path fill="#403e57" d="M217.084 293.803a5.42 5.42 0 0 1-.257-4.64 72 72 0 0 0 5.28-27.878 5.42 5.42 0 0 1 1.937-4.224 5.29 5.29 0 0 1 4.316-1.158c8.758-1.702 16.556-.225 23.183 4.392a5.355 5.355 0 0 1 4.257 5.488 119 119 0 0 1-5.97 31.517 5.35 5.35 0 0 1-6.058 3.534l-23.015-4.36a5.28 5.28 0 0 1-3.673-2.671"/><path fill="#fff" d="m229.246 268.107 19.216 4.409a1.235 1.235 0 0 0 1.474-.926 1.234 1.234 0 0 0-.923-1.476l-19.216-4.409a1.235 1.235 0 0 0-1.477.926 1.232 1.232 0 0 0 .926 1.476"/><path fill="#fff" d="m227.041 277.716 19.217 4.409a1.23 1.23 0 0 0 1.317-1.855 1.23 1.23 0 0 0-.766-.547l-19.217-4.409a1.235 1.235 0 0 0-1.473.926 1.233 1.233 0 0 0 .922 1.476"/><path fill="#fff" d="m224.835 287.326 19.217 4.409a1.23 1.23 0 0 0 1.477-.925 1.235 1.235 0 0 0-.926-1.477l-19.216-4.409a1.23 1.23 0 0 0-1.477.925 1.23 1.23 0 0 0 .925 1.477"/><path fill="#ccc" d="M282.67 495.409a1.181 1.181 0 0 1-1.19 1.19H1.19A1.191 1.191 0 0 1 1.19 494.219h280.29a1.2 1.2 0 0 1 .843.347 1.19 1.19 0 0 1 .347.843"/><path fill="#2f2e41" d="M168.42 163.918v-18.361a24.6 24.6 0 0 0-7.19-17.412 24.6 24.6 0 0 0-17.398-7.223 24.605 24.605 0 0 0-24.62 24.604v.031c-4.336 9.036-1.624 13.333 0 18.361a3.31 3.31 0 0 0 3.304 3.304h42.599a3.306 3.306 0 0 0 3.305-3.304"/><path fill="#ffd4af" d="M151.884 166.029c10.171 0 18.417-8.245 18.417-18.417 0-10.171-8.246-18.417-18.417-18.417s-18.417 8.246-18.417 18.417 8.245 18.417 18.417 18.417"/><path fill="#2f2e41" d="M132.609 150.44c.167-.027.334-.062.501-.088 2.873-.51 5.745-1.011 8.609-1.529l.264-6.492 3.47 5.816c7.916 2.626 15.321 1.142 22.288-2.135a63 63 0 0 0 6.677-3.681 24.4 24.4 0 0 0-4.041-9.993 24.4 24.4 0 0 0-7.951-7.279 17 17 0 0 0-.782-.413h-.003l-.003-.002-.002-.003-.001-.004c-.448-.21-.904-.412-1.361-.597a20.28 20.28 0 0 0-21.296 4.129c-5.622 5.368-8.152 14.232-6.369 22.271"/></g><defs><clipPath id="clip0_200_2"><path fill="#fff" d="M0 0h844.521v544.595H0Z"/></clipPath></defs></svg>