<svg width="845" height="545" viewBox="0 0 845 545" fill="none" xmlns="http://www.w3.org/2000/svg">
<g clip-path="url(#clip0_200_2)">
<path d="M725.084 533.948H716.566L712.514 501.094H725.085L725.084 533.948Z" fill="#FFD4AF"/>
<path d="M724.856 531.161L715.768 527.469L715.5 527.359L710.481 531.161C707.727 531.161 705.079 532.224 703.09 534.128C701.101 536.033 699.924 538.632 699.805 541.384C699.791 541.535 699.791 541.693 699.791 541.851V542.202H727.255V531.161L724.856 531.161Z" fill="#2F2E41"/>
<path d="M708.863 516.957L701.522 521.277L681.367 495.016L692.202 488.641L708.863 516.957Z" fill="#FFD4AF"/>
<path d="M713.933 521.283L712.936 519.585L709.327 513.453L707.45 514.56L707.258 514.67L697.55 516.1L697.262 516.141L694.869 521.964C693.659 522.676 692.601 523.619 691.755 524.74C690.909 525.86 690.292 527.137 689.94 528.496C689.587 529.855 689.506 531.271 689.701 532.661C689.896 534.052 690.362 535.39 691.074 536.6L691.253 536.896L714.923 522.968L713.933 521.283Z" fill="#2F2E41"/>
<path d="M735.871 333.094C739.864 345.138 739.442 358.212 734.911 372.244L733.728 420.48L729.93 450.907C732.22 456.869 733.396 463.201 733.396 469.588C733.38 486.329 732.255 510.113 726.547 521.286H713.042L709.993 471.531L706.355 446.515L705.906 419.708L705.515 396.329L690.83 417.802L676.56 438.669L690.744 462.594L703.118 501.092L690.056 512.092L675.238 483.999L668.057 475.656L648.453 433.218L650.215 427.309C653.843 415.14 659.112 403.523 665.877 392.777L685.377 347.521L735.871 333.094Z" fill="#2F2E41"/>
<path d="M510.922 342.094H242.912C240.773 342.091 238.723 341.241 237.211 339.728C235.699 338.216 234.848 336.166 234.846 334.027V129.16C234.848 127.021 235.699 124.971 237.211 123.459C238.723 121.947 240.774 121.096 242.912 121.094H510.922C513.061 121.096 515.111 121.947 516.623 123.459C518.135 124.971 518.986 127.021 518.989 129.16V334.027C518.986 336.166 518.135 338.216 516.623 339.728C515.111 341.241 513.061 342.091 510.922 342.094Z" fill="white"/>
<path d="M510.922 343.094H242.912C240.508 343.091 238.204 342.135 236.504 340.435C234.805 338.735 233.849 336.431 233.846 334.027V129.16C233.849 126.756 234.805 124.452 236.504 122.752C238.204 121.052 240.508 120.096 242.912 120.094H510.922C513.326 120.096 515.63 121.052 517.33 122.752C519.029 124.452 519.985 126.756 519.988 129.16V334.027C519.985 336.431 519.029 338.736 517.33 340.435C515.63 342.135 513.326 343.091 510.922 343.094ZM242.912 122.094C241.039 122.096 239.243 122.841 237.918 124.166C236.593 125.49 235.848 127.286 235.846 129.16V334.027C235.848 335.901 236.593 337.697 237.918 339.022C239.242 340.347 241.039 341.092 242.912 341.094H510.922C512.795 341.092 514.592 340.347 515.916 339.022C517.241 337.697 517.986 335.901 517.988 334.027V129.16C517.986 127.286 517.241 125.49 515.916 124.166C514.591 122.841 512.795 122.096 510.922 122.094H242.912Z" fill="#F0F0F0"/>
<path d="M235.465 303.094V334.028C235.468 336.002 236.253 337.894 237.649 339.29C239.045 340.686 240.938 341.472 242.912 341.475H510.922C512.897 341.472 514.789 340.686 516.185 339.29C517.581 337.894 518.367 336.002 518.37 334.028V303.094H235.465Z" fill="#DF1523"/>
<path d="M237.99 122.402L236.912 124.086L517.83 303.939L518.909 302.255L237.99 122.402Z" fill="#F0F0F0"/>
<path d="M601.764 275.285C602.349 276.055 603.097 276.687 603.953 277.137C604.809 277.588 605.754 277.844 606.72 277.89C607.687 277.936 608.651 277.769 609.546 277.401C610.441 277.033 611.245 276.474 611.9 275.763L633.466 285.142L631.365 273.103L611.208 266.042C609.939 265.02 608.34 264.499 606.713 264.578C605.086 264.657 603.545 265.329 602.381 266.469C601.217 267.608 600.511 269.135 600.397 270.759C600.283 272.384 600.77 273.994 601.764 275.285Z" fill="#FFD4AF"/>
<path d="M621.385 268.486L662.582 273.825L705.067 248.233C707.339 246.864 709.875 245.992 712.508 245.674C715.142 245.357 717.813 245.6 720.345 246.389C722.877 247.178 725.214 248.494 727.201 250.251C729.188 252.008 730.781 254.166 731.874 256.583C733.845 260.957 734.07 265.92 732.503 270.454C730.935 274.989 727.693 278.753 723.44 280.975L666.351 301.319L666.244 301.358L616.154 279.046L621.385 268.486Z" fill="#3F3D56"/>
<path d="M681.547 340.374L684.971 331.813L682.707 324.452L689.417 251.091L690.408 239.973L690.475 231.685L713.421 231.125L715.91 237.444L720.833 240.389C726.202 243.608 730.628 248.185 733.667 253.659C736.705 259.133 738.248 265.31 738.141 271.569L737.251 319.69L739.541 324.27C740.163 325.514 740.509 326.877 740.554 328.267C740.6 329.657 740.344 331.04 739.804 332.322C739.265 333.603 738.454 334.753 737.428 335.692C736.402 336.63 735.186 337.336 733.861 337.76L683.417 353.091L681.547 340.374Z" fill="#3F3D56"/>
<path d="M699.847 231.268C711.361 231.268 720.696 221.934 720.696 210.419C720.696 198.905 711.361 189.57 699.847 189.57C688.332 189.57 678.998 198.905 678.998 210.419C678.998 221.934 688.332 231.268 699.847 231.268Z" fill="#FFD4AF"/>
<path d="M721.558 214.968C722.18 212.348 721.894 208.662 721.543 206.024C721.093 202.546 719.917 199.201 718.092 196.207C716.266 193.212 713.832 190.634 710.947 188.641C709.84 187.8 708.526 187.278 707.144 187.129C706.454 187.071 705.763 187.233 705.17 187.592C704.577 187.95 704.113 188.487 703.844 189.126C703.497 188.258 702.975 187.47 702.311 186.812C701.647 186.154 700.855 185.639 699.984 185.298C698.235 184.628 696.354 184.375 694.49 184.558C690.877 184.856 687.412 186.126 684.462 188.235C681.513 190.343 679.189 193.21 677.738 196.533C677.181 197.856 675.626 192.969 674.92 194.219C674.272 195.518 673.141 196.512 671.769 196.988C670.386 197.374 669.825 203.07 669.281 201.742C668.859 202.723 668.692 203.796 668.796 204.859C668.9 205.923 669.271 206.942 669.875 207.824C670.479 208.705 671.297 209.419 672.251 209.899C673.206 210.379 674.266 210.61 675.334 210.57C676.73 210.39 678.113 210.125 679.477 209.777C681.981 209.462 684.514 210.074 686.598 211.498C688.681 212.923 690.171 215.06 690.786 217.508C691.167 216.085 691.775 214.732 692.587 213.503C692.999 212.891 693.551 212.387 694.197 212.032C694.844 211.677 695.565 211.481 696.303 211.461C697.007 211.542 697.688 211.766 698.303 212.119C698.918 212.473 699.454 212.948 699.879 213.516C700.796 214.594 701.486 215.852 702.41 216.923C705.123 220.069 708.793 227.404 712.659 226.869C715.711 226.446 720.709 218.545 721.558 214.968Z" fill="#2F2E41"/>
<path d="M761.086 378.193C761.624 377.389 761.98 376.477 762.128 375.521C762.276 374.565 762.212 373.588 761.942 372.659C761.671 371.73 761.2 370.872 760.562 370.145C759.924 369.417 759.135 368.839 758.249 368.45L760.123 345.008L749.418 350.901L749.279 372.258C748.724 373.79 748.75 375.472 749.352 376.985C749.955 378.498 751.091 379.738 752.546 380.47C754.002 381.201 755.675 381.373 757.249 380.954C758.823 380.534 760.188 379.552 761.086 378.193Z" fill="#FFD4AF"/>
<path d="M748.286 361.839L739.969 321.138L701.976 289.255C699.945 287.55 698.297 285.434 697.142 283.047C695.987 280.659 695.351 278.053 695.275 275.402C695.2 272.751 695.687 270.113 696.704 267.664C697.721 265.214 699.245 263.008 701.177 261.19C704.675 257.905 709.296 256.082 714.094 256.094C718.892 256.105 723.504 257.951 726.986 261.252L764.753 308.652L764.824 308.741L759.972 363.36L748.286 361.839Z" fill="#3F3D56"/>
<path d="M843.331 544.592H495.343C495.186 544.593 495.031 544.562 494.886 544.503C494.741 544.443 494.609 544.355 494.498 544.245C494.387 544.134 494.299 544.003 494.239 543.858C494.179 543.713 494.148 543.558 494.148 543.402C494.148 543.245 494.179 543.09 494.239 542.945C494.299 542.8 494.387 542.669 494.498 542.558C494.609 542.448 494.741 542.36 494.886 542.301C495.031 542.241 495.186 542.21 495.343 542.211H843.331C843.487 542.21 843.642 542.241 843.787 542.301C843.932 542.36 844.064 542.448 844.175 542.558C844.286 542.669 844.374 542.8 844.434 542.945C844.494 543.09 844.525 543.245 844.525 543.402C844.525 543.558 844.494 543.713 844.434 543.858C844.374 544.003 844.286 544.134 844.175 544.245C844.064 544.355 843.932 544.443 843.787 544.503C843.642 544.562 843.487 544.593 843.331 544.592Z" fill="#CCCCCC"/>
<path d="M618.437 350.948H460.297C459.195 350.947 458.139 350.509 457.359 349.729C456.58 348.95 456.142 347.894 456.141 346.792V282.625C456.142 281.523 456.58 280.467 457.359 279.688C458.139 278.908 459.195 278.47 460.297 278.469H618.437C619.539 278.47 620.596 278.908 621.375 279.688C622.154 280.467 622.592 281.523 622.594 282.625V346.792C622.592 347.894 622.154 348.95 621.375 349.729C620.596 350.509 619.539 350.947 618.437 350.948Z" fill="#FFBF26"/>
<path d="M603.38 381.734H475.356C474.701 381.735 474.051 381.607 473.445 381.357C472.839 381.106 472.289 380.739 471.825 380.276C471.361 379.813 470.993 379.262 470.742 378.657C470.491 378.051 470.361 377.402 470.361 376.746C470.361 376.091 470.491 375.442 470.742 374.836C470.993 374.23 471.361 373.68 471.825 373.217C472.289 372.754 472.839 372.386 473.445 372.136C474.051 371.886 474.701 371.757 475.356 371.758H603.38C609.813 371.669 609.877 381.825 603.38 381.734Z" fill="#0C9017"/>
<path d="M603.379 404.594H475.355C474.032 404.594 472.764 404.068 471.828 403.133C470.893 402.197 470.367 400.929 470.367 399.606C470.367 398.283 470.893 397.014 471.828 396.079C472.764 395.143 474.032 394.618 475.355 394.618H603.379C609.812 394.528 609.876 404.684 603.379 404.594Z" fill="#E6E6E6"/>
<path d="M603.38 427.453H475.356C474.701 427.454 474.051 427.326 473.445 427.075C472.839 426.825 472.289 426.458 471.825 425.995C471.361 425.531 470.993 424.981 470.742 424.376C470.491 423.77 470.361 423.121 470.361 422.465C470.361 421.809 470.491 421.16 470.742 420.555C470.993 419.949 471.361 419.399 471.825 418.936C472.289 418.472 472.839 418.105 473.445 417.855C474.051 417.605 474.701 417.476 475.356 417.477H603.38C609.813 417.387 609.877 427.544 603.38 427.453Z" fill="#E6E6E6"/>
<path d="M221.426 266.969C220.336 267.115 219.227 267.021 218.178 266.692C217.128 266.363 216.164 265.808 215.352 265.066C214.54 264.324 213.901 263.413 213.479 262.398C213.057 261.382 212.863 260.286 212.911 259.187L164.814 210.387L178.241 201.039L221.296 251.948C223.137 252.15 224.839 253.021 226.081 254.394C227.323 255.768 228.017 257.549 228.033 259.401C228.049 261.252 227.385 263.046 226.168 264.44C224.95 265.835 223.263 266.735 221.426 266.969Z" fill="#FFD4AF"/>
<path d="M150.017 189.277C150.017 189.277 146.609 191.321 152.282 197.542C156.824 202.523 176.645 226.471 184.557 231.47C183.694 233.962 205.578 257.813 207.879 259.333L220.043 244.154C219.348 239.802 195.414 219.024 193.766 219.552L186.134 210.066L168.842 181.062L152.455 187.757L150.017 189.277Z" fill="#D9D9D9"/>
<path d="M112.034 480.052H121.101L125.416 445.078H112.033L112.034 480.052Z" fill="#FFD4AF"/>
<path d="M109.075 473.841L123.561 472.977V479.183L137.334 488.695C138.014 489.165 138.526 489.84 138.796 490.621C139.065 491.403 139.078 492.25 138.832 493.039C138.586 493.828 138.094 494.518 137.428 495.008C136.762 495.498 135.957 495.762 135.131 495.762H117.884L114.911 489.623L113.751 495.762H107.248L109.075 473.841Z" fill="#2F2E41"/>
<path d="M162.969 480.052H172.036L176.351 445.078H162.969V480.052Z" fill="#FFD4AF"/>
<path d="M160.008 473.841L174.495 472.977V479.183L188.267 488.695C188.947 489.165 189.46 489.84 189.729 490.621C189.999 491.403 190.012 492.25 189.766 493.039C189.52 493.828 189.028 494.518 188.362 495.008C187.696 495.498 186.891 495.762 186.064 495.762H168.818L165.845 489.623L164.684 495.762H158.182L160.008 473.841Z" fill="#2F2E41"/>
<path d="M108.122 449.89H108.22L109.964 393.023C108.836 390.846 108.263 388.424 108.297 385.973C108.331 383.521 108.971 381.116 110.159 378.971L110.409 378.519L109.762 375.519C108.93 371.663 109.312 367.645 110.854 364.015L112.481 310.969C106.669 273.302 134.367 248.737 134.367 248.737L129.306 227.445L179.417 222.516L175.86 248.737L184.768 279.343C190.657 336.717 189.588 392.626 180.243 446.793L180.498 446.922C181.415 447.238 181.809 448.509 181.377 449.76C180.945 451.011 179.851 451.769 178.934 451.452L157.021 450.69C156.104 450.373 155.71 449.102 156.142 447.851C156.574 446.6 157.668 445.843 158.585 446.16L160.075 446.913L156.898 392.039L157.25 382.016L156.524 370.644L153.165 319.497L140.451 382.394L127.465 450.523C127.823 450.847 128.074 451.273 128.186 451.743C128.297 452.213 128.263 452.706 128.089 453.157C127.914 453.607 127.607 453.994 127.208 454.267C126.809 454.539 126.337 454.684 125.854 454.683H108.122C107.487 454.682 106.879 454.428 106.431 453.979C105.982 453.53 105.73 452.921 105.73 452.286C105.73 451.652 105.982 451.043 106.431 450.594C106.879 450.144 107.487 449.891 108.122 449.89Z" fill="#2F2E41"/>
<path d="M169.831 175.853L159.976 169.94L140.266 167.969L122.846 176.84L123.02 203.939L134.072 232.046L177.127 240.92L182.15 216.219C182.15 216.219 194.961 199.012 181.164 189.157L169.831 175.853Z" fill="#D9D9D9"/>
<path d="M127.472 290.887C126.536 290.311 125.737 289.535 125.133 288.617C124.528 287.698 124.133 286.658 123.974 285.57C123.815 284.481 123.896 283.372 124.212 282.318C124.529 281.265 125.072 280.294 125.804 279.473L119.449 211.25L135.761 212.51L136.878 279.175C138.175 280.496 138.943 282.248 139.035 284.097C139.127 285.946 138.537 287.765 137.378 289.209C136.218 290.653 134.57 291.621 132.744 291.93C130.918 292.24 129.043 291.868 127.472 290.887Z" fill="#FFD4AF"/>
<path d="M123.276 175.141C123.276 175.141 119.344 174.566 119.799 182.974C120.164 189.705 118.431 231.193 121.392 240.071C119.148 241.454 119.028 275.221 119.847 277.855L138.872 273.8C141.088 269.99 139.629 235.079 138.018 234.445L138.113 222.27L142.317 182.139L126.126 175.507L123.276 175.141Z" fill="#D9D9D9"/>
<path d="M217.084 293.803C216.699 293.097 216.477 292.314 216.432 291.512C216.387 290.709 216.522 289.907 216.827 289.163C220.418 280.313 222.213 270.836 222.107 261.285C222.096 260.482 222.264 259.686 222.599 258.955C222.934 258.224 223.428 257.577 224.044 257.061C224.635 256.565 225.328 256.204 226.074 256.004C226.819 255.804 227.6 255.77 228.36 255.903C237.118 254.201 244.916 255.678 251.543 260.295C252.789 260.554 253.902 261.249 254.683 262.255C255.463 263.26 255.859 264.511 255.8 265.783C255.241 276.51 253.232 287.112 249.83 297.3C249.415 298.52 248.574 299.549 247.461 300.198C246.348 300.847 245.038 301.073 243.772 300.834L220.757 296.474C219.984 296.33 219.254 296.015 218.619 295.553C217.984 295.091 217.459 294.493 217.084 293.803Z" fill="#403E57"/>
<path d="M229.246 268.107L248.462 272.516C248.78 272.588 249.114 272.531 249.39 272.358C249.667 272.184 249.863 271.908 249.936 271.59C250.008 271.272 249.952 270.938 249.78 270.662C249.607 270.385 249.331 270.188 249.013 270.114L229.797 265.705C229.478 265.632 229.144 265.689 228.867 265.862C228.59 266.036 228.393 266.312 228.32 266.631C228.247 266.949 228.304 267.284 228.477 267.561C228.651 267.838 228.927 268.034 229.246 268.107Z" fill="white"/>
<path d="M227.041 277.716L246.258 282.125C246.576 282.197 246.91 282.14 247.186 281.966C247.462 281.793 247.658 281.517 247.731 281.199C247.804 280.881 247.748 280.547 247.575 280.27C247.402 279.994 247.127 279.797 246.809 279.723L227.592 275.314C227.274 275.242 226.94 275.299 226.664 275.472C226.388 275.646 226.192 275.922 226.119 276.24C226.046 276.558 226.102 276.892 226.275 277.169C226.448 277.445 226.723 277.642 227.041 277.716Z" fill="white"/>
<path d="M224.835 287.326L244.052 291.735C244.371 291.808 244.705 291.752 244.982 291.578C245.259 291.405 245.456 291.128 245.529 290.81C245.602 290.491 245.545 290.157 245.372 289.88C245.198 289.603 244.922 289.406 244.603 289.333L225.387 284.924C225.068 284.851 224.734 284.907 224.457 285.081C224.18 285.254 223.983 285.531 223.91 285.849C223.837 286.168 223.893 286.503 224.067 286.779C224.24 287.056 224.517 287.253 224.835 287.326Z" fill="white"/>
<path d="M282.67 495.409C282.671 495.565 282.64 495.72 282.58 495.865C282.521 496.009 282.433 496.141 282.323 496.251C282.212 496.362 282.081 496.45 281.936 496.509C281.791 496.569 281.636 496.599 281.48 496.599H1.19C0.874395 496.599 0.57171 496.473 0.348541 496.25C0.125373 496.027 0 495.724 0 495.409C0 495.093 0.125373 494.79 0.348541 494.567C0.57171 494.344 0.874395 494.219 1.19 494.219H281.48C281.636 494.218 281.791 494.249 281.936 494.308C282.081 494.368 282.212 494.456 282.323 494.566C282.433 494.677 282.521 494.808 282.58 494.953C282.64 495.097 282.671 495.252 282.67 495.409Z" fill="#CCCCCC"/>
<path d="M168.42 163.918V145.557C168.424 142.325 167.791 139.123 166.557 136.136C165.324 133.148 163.514 130.433 161.23 128.145C158.947 125.857 156.235 124.042 153.25 122.802C150.264 121.563 147.064 120.924 143.832 120.922C140.599 120.92 137.398 121.555 134.411 122.79C131.424 124.026 128.71 125.838 126.424 128.123C124.138 130.407 122.324 133.12 121.086 136.106C119.849 139.093 119.212 142.293 119.212 145.526V145.557C114.876 154.593 117.588 158.89 119.212 163.918C119.213 164.794 119.562 165.634 120.181 166.253C120.8 166.872 121.64 167.221 122.516 167.222H165.115C165.991 167.221 166.83 166.873 167.45 166.253C168.07 165.634 168.418 164.794 168.42 163.918Z" fill="#2F2E41"/>
<path d="M151.884 166.029C162.055 166.029 170.301 157.784 170.301 147.612C170.301 137.441 162.055 129.195 151.884 129.195C141.712 129.195 133.467 137.441 133.467 147.612C133.467 157.784 141.712 166.029 151.884 166.029Z" fill="#FFD4AF"/>
<path d="M132.609 150.44C132.776 150.413 132.943 150.378 133.11 150.352C135.983 149.842 138.855 149.341 141.719 148.823L141.983 142.331L145.453 148.147C153.369 150.773 160.774 149.289 167.741 146.012C170.039 144.921 172.269 143.692 174.418 142.331C173.833 138.74 172.452 135.326 170.377 132.338C168.302 129.349 165.586 126.862 162.426 125.059C162.163 124.91 161.908 124.778 161.644 124.646L161.641 124.646L161.638 124.644L161.636 124.641L161.635 124.637C161.187 124.427 160.731 124.225 160.274 124.04C156.697 122.642 152.798 122.288 149.028 123.019C145.258 123.75 141.773 125.536 138.978 128.169C133.356 133.537 130.826 142.401 132.609 150.44Z" fill="#2F2E41"/>
</g>
<defs>
<clipPath id="clip0_200_2">
<rect width="844.521" height="544.595" fill="white"/>
</clipPath>
</defs>
</svg>
