<svg xmlns="http://www.w3.org/2000/svg" width="603" height="697" fill="none" viewBox="0 0 603 697"><mask id="mask0_16_152" width="603" height="697" x="0" y="0" maskUnits="userSpaceOnUse" style="mask-type:luminance"><path fill="#fff" d="M602.107 0H0v696.919h602.107Z"/></mask><g mask="url(#mask0_16_152)"><path fill="#f6f6f6" d="M602.106 267q0 2.97-.07 5.93c-.02 1.29-.06 2.58-.11 3.87-.01.37-.02.73-.04 1.1l-.09 2.1q-.33 6.915-1.02 13.73l-.06.65c-.05.45-.09.9-.15 1.35-.14 1.35-.29 2.7-.46 4.03-.11.9-.22 1.79-.34 2.69-.06.43-.12.86-.17 1.28-.07.47-.13.93-.2 1.39l-.09.61c-.1.68-.2 1.37-.31 2.05-.13.89-.27 1.77-.42 2.66q-.21 1.32-.45 2.64a244 244 0 0 1-.97 5.29q-1.29 6.54-2.88 12.97-.63 2.505-1.29 5-1.095 4.05-2.31 8.06c-.23.74-.46 1.48-.69 2.21-.26.84-.53 1.68-.8 2.51-.27.84-.54 1.67-.82 2.5s-.56 1.66-.85 2.49c-.28.82-.57 1.65-.87 2.47-.29.83-.59 1.65-.89 2.47-.31.82-.61 1.64-.92 2.45q-.93 2.46-1.91 4.87c-.32.81-.65 1.62-.99 2.42a250 250 0 0 1-4.18 9.55c-.32.7-.64 1.4-.97 2.09-.22.46-.43.91-.65 1.37-.37.76-.73 1.51-1.1 2.26-.37.76-.75 1.53-1.14 2.3q-1.155 2.28-2.35 4.55c-.79 1.51-1.6 3.02-2.43 4.51s-1.67 2.98-2.52 4.45c-.43.74-.86 1.48-1.29 2.21a265 265 0 0 1-5.36 8.69q-2.745 4.275-5.67 8.45c-.97 1.39-1.96 2.78-2.96 4.15-.4.55-.8 1.09-1.2 1.63-.49.68-1 1.35-1.51 2.02a265.804 265.804 0 0 1-382.97 44.18q-4.38-3.66-8.6-7.5a267.4 267.4 0 0 1-46.71-55.98c-1.61-2.59-3.19-5.21-4.71-7.85A264.76 264.76 0 0 1 70.106 267c0-146.91 119.09-266 266-266a265.77 265.77 0 0 1 222.68 120.44c.44.67.88 1.35 1.32 2.03a264.44 264.44 0 0 1 41.33 124.62q.675 9.36.67 18.91"/><path fill="#d9d9d9" d="M225.978 424.477c-1.447.414-3.026.289-4.978.023Zc3.989-1.139 6.977-6.365 14.022-23.977 12-30 28.5-89.499 41-91.499s20.5-12.5 37.5 13 35 21.999 46 0c6.408-12.815 22.5-60.502 31.5-52.502 11-13.497 48 41.002 65 49.502 13.6 6.8 34.333 2.833 43 0 41-3 36 18 85.5 24.5l.5 1c-4.667 15.833-18 48-39 78.5Z"/><path fill="#cacaca" d="M560.107 122.469h-368.45A1.016 1.016 0 0 1 191.657 120.439h367.13c.44.67.88 1.35 1.32 2.03"/><path fill="#0c9017" d="M207 111A9 9 0 1 0 206.99983933960365 93 9 9 0 0 0 207 111"/><path fill="#fdc500" d="M245 111A9 9 0 1 0 244.99983933960365 93 9 9 0 0 0 245 111"/><path fill="#df1523" d="M283 111a9 9 0 0 0 9-9 9 9 0 1 0-9 9"/><path fill="#3f3d56" d="M291.893 314.154h-3.649v106.939h3.649Z"/><path fill="#3f3d56" d="M401.121 264.211h-3.648v156.883h3.648Z"/><path fill="#3f3d56" d="M511 325h-4v96h4Z"/><path fill="#fdc500" d="M290.162 317.323c6.164 0 11.161-4.997 11.161-11.161S296.326 295 290.162 295 279 299.998 279 306.162s4.997 11.161 11.162 11.161"/><path fill="#df1523" d="M508.976 330.899c6.164 0 11.161-4.997 11.161-11.162 0-6.164-4.997-11.161-11.161-11.161s-11.162 4.997-11.162 11.161 4.998 11.162 11.162 11.162"/><path fill="#0c9017" d="M399.161 276.323c6.165 0 11.162-4.998 11.162-11.162S405.326 254 399.161 254c-6.164 0-11.161 4.997-11.161 11.161s4.997 11.162 11.161 11.162"/><path fill="#3f3d56" d="M551.317 422.369c-.4.55-.8 1.09-1.2 1.63-.49.68-1 1.35-1.51 2.02h-328.97v-3.65Z"/><path fill="#ffd4af" d="M127.115 685.126h10.571l5.029-40.776-15.602.001Z"/><path fill="#2f2e41" d="M154.616 685.559a13.15 13.15 0 0 0-4.3-2.89 13.4 13.4 0 0 0-5.08-1l-6.23-4.72-.33.13-11.28 4.59h-2.98v13.7h34.09v-.43a13.16 13.16 0 0 0-3.89-9.38"/><path fill="#ffd4af" d="M176.229 685.126H186.8l5.029-40.776-15.602.001Z"/><path fill="#2f2e41" d="M203.737 685.559a13.1 13.1 0 0 0-4.31-2.89 13.3 13.3 0 0 0-5.08-1l-6.22-4.72-.34.14-11.28 4.58h-2.98l.01 13.7h34.08v-.43a13.19 13.19 0 0 0-3.88-9.38"/><path fill="#2f2e41" d="m184.678 461.98-83.059 2.167 1.445 40.446s-1.445 10.834 1.444 13.723 4.334 2.89 2.889 7.946 6.188 13.312 5.261 14.239-3.094 5.983-3.094 5.983l7.222 41.168s5.056 71.502 6.501 72.947c1.444 1.444 2.889 0 1.444 3.611s-2.889 2.168-1.444 3.612a53 53 0 0 1 3.611 4.333h17.462s1.316-7.223 1.316-7.945 1.445-5.056 1.445-5.778-1.277-1.998-1.277-1.998a24 24 0 0 1-.89-4.502c0-1.445-4.333-57.058-4.333-57.058l8.667-72.224 20.945 70.781s0 62.112 1.444 63.557c1.445 1.444 1.445.722.723 3.611s-3.612 2.167-1.445 4.333 2.889-1.444 2.167 2.167l-.722 3.611 21.667.31s2.889-6.087 1.445-8.253c-1.445-2.167-1.358-1.576.404-5.122s2.485-4.268 1.762-4.99-.722-4.565-.722-4.565l-3.611-69.104s-.722-72.948-.722-75.115a7.2 7.2 0 0 1 .6-3.249v-2.941l-2.767-10.422Z"/><path fill="#ffd4af" d="M278.674 304.458a8.068 8.068 0 0 1-11.61 4.262l-36.054 30.205-1.959-14.764 35.264-26.995a8.11 8.11 0 0 1 10.418-2.732 8.11 8.11 0 0 1 3.941 10.024"/><path fill="#ffd4af" d="M119.696 320.924c12.366 0 22.39-10.024 22.39-22.39 0-12.365-10.024-22.389-22.39-22.389-12.365 0-22.39 10.024-22.39 22.389 0 12.366 10.025 22.39 22.39 22.39"/><path fill="#2f2e41" d="M137.848 276.25c-2.084-4.968-11.017-7.918-25.153-7.474-14.135.445-16.61 17.301-16.61 17.301-7.787 7.257 4.784 29.915 6.964 26.791s5.843-.171 5.843-.171l-3.49-19.627c3.685 1.417 7.648 2.369 11.114.718l-5.743-3.071 14.279 1.777-5.889-4.53.429-.144a20.9 20.9 0 0 0 7.459 1.693c3.002-.022 6.193-1.429 7.451-4.155a6.1 6.1 0 0 0 .532-2.376c4.14 1.344 6.313 6.193 6.313 6.193a76.5 76.5 0 0 0-3.499-12.925"/><path fill="url(#paint0_linear_16_152)" d="M137.618 317.924c-5 0-8.22.69-16 2-14.36 2.42-5.76 16.064-5.76 16.064s.65-.33-1.11 0-7.76 5.52-7.76 5.52l-10.73 9.53c-16.17 12.69-12.55 32.49-12.55 32.49l23.58 23.73-10.33 47.61s4.39 7.07 2.12 10.24 20 2.26 20 2.26c15.37 6.85 69.519 1.06 69.519 1.06-.75-1.96-8-17.15-8-17.15 3.15-5.44.15-13.3.15-13.3s-3.129-37.18-5.129-42.32 5.12-32.99 9.8-32.69 34.91-15.12 34.91-15.12-.761-1.21 9.219-5.29a48.9 48.9 0 0 0 15.491-9.77l4.1-8.19c-1.97.76-8.62-11.78-8.62-11.78l-2.901 1.106-1.68-.486s-13.11 3.73-15.79 6.45-3.58 1.96-6 2.57-2.72 2.31-3.48 2.12-2.11 2.11-3.17 1.81-3.33.91-4.84 1.21-12.24 4.84-12.24 4.84c-6.64-3.36-24.64-2-24.64-2s-5.89-3.47-7.56 0a5.69 5.69 0 0 1-5.13 3.33l-7.18-3.07c-.417 1.523-8.248-14.353-8.289-12.774"/><path fill="#ccc" d="M0 695.729a1.19 1.19 0 0 0 .734 1.1c.145.06.3.09.456.09h283.29a1.193 1.193 0 0 0 1.19-1.19 1.19 1.19 0 0 0-1.19-1.19H1.19a1.19 1.19 0 0 0-1.1.734c-.06.144-.09.299-.09.456"/><path fill="#3f3d56" d="M306.607 303.73v2h12.12v-2Zm24.24 0v2h12.11v-2Zm24.23 0v2h12.12v-2Zm24.23 0v2h12.12v-2Zm24.24 0v2h12.11v-2Zm24.23 0v2h12.12v-2Zm24.23 0v2h12.12v-2Zm24.24 0v2h12.11v-2Zm24.23 0v2h12.12v-2Zm24.23 0v2h12.12v-2Zm24.23 0v2h12.12v-2Zm24.24 0v2h12.11v-2Zm24.23 0v2h1.753c.03-.21-.03.2 0 0 .07-.46.223-1.53.293-2Z"/><path fill="#3f3d56" d="M416.607 265.73v2h12.12v-2Zm24.24 0v2h12.11v-2Zm24.23 0v2h12.12v-2Zm24.23 0v2h12.12v-2Zm24.24 0v2h12.11v-2Zm24.23 0v2h12.12v-2Zm24.23 0v2h12.12v-2Zm24.24 0v2h12.11v-2Z"/><path fill="#3f3d56" d="M528.607 318.73v2h12.12v-2Zm24.24 0v2h12.11v-2Zm24.23 0v2h12.12v-2Z"/><path fill="#d0d0d0" d="m145.572 492.337 17.192-62.072a4.926 4.926 0 0 1 6.052-3.427l46.878 12.984a4.92 4.92 0 0 1 3.426 6.052l-17.192 62.072a4.92 4.92 0 0 1-6.051 3.426l-46.878-12.984a4.922 4.922 0 0 1-3.427-6.051"/><path fill="#fff" d="m154.36 474.585 11.053-39.907a4.61 4.61 0 0 1 5.667-3.209l40.288 11.159a4.614 4.614 0 0 1 3.209 5.667l-15.299 55.237a4.61 4.61 0 0 1-5.667 3.208l-24.957-6.912a20.535 20.535 0 0 1-14.294-25.243"/><path fill="#d0d0d0" d="M168.852 447.618a4.51 4.51 0 0 1 5.538-3.136l27.948 7.741a4.499 4.499 0 0 1 1.016 8.253 4.5 4.5 0 0 1-3.418.421l-27.948-7.741a4.51 4.51 0 0 1-3.136-5.538"/><path fill="#d0d0d0" d="M165.115 461.11a4.502 4.502 0 0 1 5.538-3.135l27.948 7.74a4.499 4.499 0 0 1 1.016 8.253 4.5 4.5 0 0 1-3.418.421l-27.948-7.741a4.507 4.507 0 0 1-3.136-5.538"/><path fill="#d0d0d0" d="M161.379 474.602a4.506 4.506 0 0 1 5.537-3.135l27.948 7.74a4.499 4.499 0 0 1 1.016 8.253 4.5 4.5 0 0 1-3.418.421l-27.948-7.741a4.5 4.5 0 0 1-3.135-5.538"/><path fill="#ffd4af" d="M159.058 472.973a7.5 7.5 0 0 1-5.785-2.572 7.48 7.48 0 0 1-1.743-6.088L110 441.574 122.155 435l38.486 23.115a7.522 7.522 0 0 1-1.583 14.858"/><path fill="#3f3d56" d="m136.107 457-14.727-2.616-5.273-4.384-3.546-1.806-12.223-8.579-.036-.109-19.422-57.409a18.805 18.805 0 0 1 13.915-21.737 18.78 18.78 0 0 1 15.145 2.728 18.77 18.77 0 0 1 8.023 13.132l6.251 49.203 10.36 10.699 4.533.878 1.044 4.881 3.956 6.119Z"/></g><defs><linearGradient id="paint0_linear_16_152" x1="93" x2="121.5" y1="357.5" y2="474.5" gradientUnits="userSpaceOnUse"><stop stop-color="#3f3d56"/><stop offset="1" stop-color="#44425d"/></linearGradient></defs></svg>