<svg width="603" height="697" viewBox="0 0 603 697" fill="none" xmlns="http://www.w3.org/2000/svg">
<mask id="mask0_16_152" style="mask-type:luminance" maskUnits="userSpaceOnUse" x="0" y="0" width="603" height="697">
<path d="M602.107 0H0V696.919H602.107V0Z" fill="white"/>
</mask>
<g mask="url(#mask0_16_152)">
<path d="M602.106 267C602.106 268.98 602.082 270.957 602.036 272.93C602.016 274.22 601.976 275.51 601.926 276.8C601.916 277.17 601.906 277.53 601.886 277.9C601.856 278.61 601.826 279.31 601.796 280C601.576 284.61 601.236 289.187 600.776 293.73C600.756 293.95 600.736 294.17 600.716 294.38C600.666 294.83 600.626 295.28 600.566 295.73C600.426 297.08 600.276 298.43 600.106 299.76C599.996 300.66 599.886 301.55 599.766 302.45C599.706 302.88 599.646 303.31 599.596 303.73C599.526 304.2 599.466 304.66 599.396 305.12C599.366 305.32 599.336 305.52 599.306 305.73C599.206 306.41 599.106 307.1 598.996 307.78C598.866 308.67 598.726 309.55 598.576 310.44C598.436 311.32 598.286 312.2 598.126 313.08C597.976 313.96 597.816 314.84 597.656 315.72C597.496 316.61 597.326 317.49 597.156 318.37C596.296 322.73 595.336 327.053 594.276 331.34C593.856 333.01 593.426 334.677 592.986 336.34C592.256 339.04 591.486 341.727 590.676 344.4C590.446 345.14 590.216 345.88 589.986 346.61C589.726 347.45 589.456 348.29 589.186 349.12C588.916 349.96 588.646 350.79 588.366 351.62C588.086 352.45 587.806 353.28 587.516 354.11C587.236 354.93 586.946 355.76 586.646 356.58C586.356 357.41 586.056 358.23 585.756 359.05C585.446 359.87 585.146 360.69 584.836 361.5C584.216 363.14 583.579 364.763 582.926 366.37C582.606 367.18 582.276 367.99 581.936 368.79C580.606 372.01 579.212 375.193 577.756 378.34C577.436 379.04 577.116 379.74 576.786 380.43C576.566 380.89 576.356 381.34 576.136 381.8C575.766 382.56 575.406 383.31 575.036 384.06C574.666 384.82 574.286 385.59 573.896 386.36C573.126 387.88 572.343 389.397 571.546 390.91C570.756 392.42 569.946 393.93 569.116 395.42C568.286 396.91 567.446 398.4 566.596 399.87C566.166 400.61 565.736 401.35 565.306 402.08C563.576 405.01 561.789 407.907 559.946 410.77C558.116 413.62 556.226 416.437 554.276 419.22C553.306 420.61 552.316 422 551.316 423.37C550.916 423.92 550.516 424.46 550.116 425C549.626 425.68 549.116 426.35 548.606 427.02C526.934 455.846 499.622 479.961 468.333 497.895C437.045 515.83 402.434 527.211 366.607 531.344C330.781 535.477 294.488 532.276 259.937 521.936C225.387 511.597 193.302 494.334 165.636 471.2C162.716 468.76 159.849 466.26 157.036 463.7C138.983 447.26 123.267 428.425 110.326 407.72C108.716 405.13 107.136 402.51 105.616 399.87C82.2817 359.481 70.0317 313.645 70.1058 267C70.1058 120.09 189.196 1.00005 336.106 1.00005C380.311 0.973257 423.825 11.9729 462.707 33.0031C501.59 54.0333 534.613 84.4297 558.786 121.44C559.226 122.11 559.666 122.79 560.106 123.47C584.14 160.875 598.355 203.736 601.436 248.09C601.886 254.33 602.109 260.633 602.106 267Z" fill="#F6F6F6"/>
<path d="M225.978 424.477C224.531 424.891 222.952 424.766 221 424.5L225.978 424.477C229.967 423.338 232.955 418.112 240 400.5C252 370.5 268.5 311.001 281 309.001C293.5 307.001 301.5 296.501 318.5 322.001C335.5 347.501 353.5 344 364.5 322.001C370.908 309.186 387 261.499 396 269.499C407 256.002 444 310.501 461 319.001C474.6 325.801 495.333 321.834 504 319.001C545 316.001 540 337.001 589.5 343.501L590 344.501C585.333 360.334 572 392.501 551 423.001L225.978 424.477Z" fill="#D9D9D9"/>
<path d="M560.107 122.469H191.657C191.392 122.462 191.14 122.353 190.955 122.163C190.77 121.973 190.666 121.719 190.666 121.454C190.666 121.189 190.77 120.934 190.955 120.745C191.14 120.555 191.392 120.445 191.657 120.439H558.787C559.227 121.109 559.667 121.789 560.107 122.469Z" fill="#CACACA"/>
<path d="M207 111C211.97 111 216 106.971 216 102C216 97.0294 211.97 93 207 93C202.029 93 198 97.0294 198 102C198 106.971 202.029 111 207 111Z" fill="#0C9017"/>
<path d="M245 111C249.97 111 254 106.971 254 102C254 97.0294 249.97 93 245 93C240.03 93 236 97.0294 236 102C236 106.971 240.03 111 245 111Z" fill="#FDC500"/>
<path d="M283 111C287.971 111 292 106.971 292 102C292 97.0294 287.971 93 283 93C278.03 93 274 97.0294 274 102C274 106.971 278.03 111 283 111Z" fill="#DF1523"/>
<path d="M291.893 314.154H288.244V421.093H291.893V314.154Z" fill="#3F3D56"/>
<path d="M401.121 264.211H397.473V421.094H401.121V264.211Z" fill="#3F3D56"/>
<path d="M511 325H507V421H511V325Z" fill="#3F3D56"/>
<path d="M290.162 317.323C296.326 317.323 301.323 312.326 301.323 306.162C301.323 299.998 296.326 295 290.162 295C283.997 295 279 299.998 279 306.162C279 312.326 283.997 317.323 290.162 317.323Z" fill="#FDC500"/>
<path d="M508.976 330.899C515.14 330.899 520.137 325.902 520.137 319.737C520.137 313.573 515.14 308.576 508.976 308.576C502.812 308.576 497.814 313.573 497.814 319.737C497.814 325.902 502.812 330.899 508.976 330.899Z" fill="#DF1523"/>
<path d="M399.161 276.323C405.326 276.323 410.323 271.325 410.323 265.161C410.323 258.997 405.326 254 399.161 254C392.997 254 388 258.997 388 265.161C388 271.325 392.997 276.323 399.161 276.323Z" fill="#0C9017"/>
<path d="M551.317 422.369C550.917 422.919 550.517 423.459 550.117 423.999C549.627 424.679 549.117 425.349 548.607 426.019H219.637V422.369H551.317Z" fill="#3F3D56"/>
<path d="M127.115 685.126H137.686L142.715 644.35L127.113 644.351L127.115 685.126Z" fill="#FFD4AF"/>
<path d="M154.616 685.559C153.389 684.32 151.927 683.338 150.316 682.669C148.704 682.009 146.978 681.669 145.236 681.669L139.006 676.949L138.676 677.079L127.396 681.669H124.416V695.369H158.506V694.939C158.511 693.196 158.17 691.469 157.502 689.859C156.834 688.249 155.853 686.787 154.616 685.559Z" fill="#2F2E41"/>
<path d="M176.229 685.126H186.8L191.829 644.35L176.227 644.351L176.229 685.126Z" fill="#FFD4AF"/>
<path d="M203.737 685.559C202.508 684.318 201.043 683.335 199.427 682.669C197.816 682.007 196.09 681.667 194.347 681.669L188.127 676.949L187.787 677.089L176.507 681.669H173.527L173.537 695.369H207.617V694.939C207.622 693.197 207.282 691.471 206.616 689.861C205.95 688.251 204.971 686.789 203.737 685.559Z" fill="#2F2E41"/>
<path d="M184.678 461.98L101.619 464.147L103.064 504.593C103.064 504.593 101.619 515.427 104.508 518.316C107.397 521.205 108.842 521.206 107.397 526.262C105.953 531.317 113.585 539.574 112.658 540.501C111.731 541.428 109.564 546.484 109.564 546.484L116.786 587.652C116.786 587.652 121.842 659.154 123.287 660.599C124.731 662.043 126.176 660.599 124.731 664.21C123.287 667.821 121.842 666.378 123.287 667.822C124.566 669.202 125.772 670.648 126.898 672.155H144.36C144.36 672.155 145.676 664.932 145.676 664.21C145.676 663.488 147.121 659.154 147.121 658.432C147.121 657.71 145.844 656.434 145.844 656.434C145.403 654.966 145.105 653.457 144.954 651.932C144.954 650.487 140.621 594.874 140.621 594.874L149.288 522.65L170.233 593.431C170.233 593.431 170.233 655.543 171.677 656.988C173.122 658.432 173.122 657.71 172.4 660.599C171.677 663.488 168.788 662.766 170.955 664.932C173.122 667.099 173.844 663.488 173.122 667.099L172.4 670.71L194.067 671.02C194.067 671.02 196.956 664.933 195.512 662.767C194.067 660.6 194.154 661.191 195.916 657.645C197.678 654.1 198.401 653.377 197.678 652.655C196.956 651.933 196.956 648.09 196.956 648.09L193.345 578.986C193.345 578.986 192.623 506.038 192.623 503.871C192.568 502.756 192.774 501.644 193.223 500.622V497.681L190.456 487.259L184.678 461.98Z" fill="#2F2E41"/>
<path d="M278.674 304.458C278.275 305.568 277.637 306.576 276.806 307.413C275.975 308.249 274.971 308.893 273.864 309.299C272.757 309.706 271.574 309.864 270.4 309.764C269.225 309.664 268.086 309.308 267.064 308.72L231.01 338.925L229.051 324.161L264.315 297.166C265.416 295.514 267.085 294.324 269.005 293.82C270.925 293.317 272.963 293.535 274.733 294.434C276.503 295.333 277.882 296.85 278.608 298.698C279.334 300.545 279.358 302.595 278.674 304.458Z" fill="#FFD4AF"/>
<path d="M119.696 320.924C132.062 320.924 142.086 310.9 142.086 298.534C142.086 286.169 132.062 276.145 119.696 276.145C107.331 276.145 97.3066 286.169 97.3066 298.534C97.3066 310.9 107.331 320.924 119.696 320.924Z" fill="#FFD4AF"/>
<path d="M137.848 276.25C135.764 271.282 126.831 268.332 112.695 268.776C98.5596 269.221 96.0842 286.077 96.0842 286.077C88.2984 293.334 100.869 315.992 103.049 312.868C105.23 309.744 108.892 312.697 108.892 312.697L105.402 293.07C109.087 294.487 113.05 295.439 116.516 293.788L110.773 290.717L125.052 292.494L119.163 287.964C119.306 287.917 119.449 287.868 119.592 287.82C121.953 288.838 124.482 289.412 127.051 289.513C130.053 289.491 133.244 288.084 134.502 285.358C134.836 284.61 135.017 283.802 135.034 282.982C139.174 284.326 141.347 289.175 141.347 289.175C140.561 284.773 139.39 280.448 137.848 276.25Z" fill="#2F2E41"/>
<path d="M137.618 317.924C132.618 317.924 129.398 318.614 121.618 319.924C107.258 322.344 115.858 335.988 115.858 335.988C115.858 335.988 116.508 335.658 114.748 335.988C112.988 336.318 106.988 341.508 106.988 341.508L96.2576 351.038C80.0876 363.728 83.7076 383.528 83.7076 383.528L107.288 407.258L96.9576 454.868C96.9576 454.868 101.348 461.938 99.0775 465.108C96.8075 468.278 119.078 467.368 119.078 467.368C134.448 474.218 188.597 468.428 188.597 468.428C187.847 466.468 180.597 451.278 180.597 451.278C183.747 445.838 180.747 437.978 180.747 437.978C180.747 437.978 177.618 400.798 175.618 395.658C173.618 390.518 180.738 362.668 185.418 362.968C190.098 363.268 220.328 347.848 220.328 347.848C220.328 347.848 219.567 346.638 229.547 342.558C235.28 340.306 240.535 336.991 245.038 332.788L249.138 324.598C247.168 325.358 240.518 312.818 240.518 312.818L237.617 313.924L235.937 313.438C235.937 313.438 222.827 317.168 220.147 319.888C217.467 322.608 216.567 321.848 214.147 322.458C211.727 323.068 211.427 324.768 210.667 324.578C209.907 324.388 208.557 326.688 207.497 326.388C206.437 326.088 204.167 327.298 202.657 327.598C201.147 327.898 190.417 332.438 190.417 332.438C183.777 329.078 165.777 330.438 165.777 330.438C165.777 330.438 159.887 326.968 158.217 330.438C157.768 331.424 157.047 332.261 156.138 332.851C155.229 333.441 154.171 333.759 153.087 333.768L145.907 330.698C145.49 332.221 137.659 316.345 137.618 317.924Z" fill="url(#paint0_linear_16_152)"/>
<path d="M5.26467e-06 695.729C-0.000460811 695.885 0.0300235 696.04 0.0896659 696.185C0.149308 696.329 0.236937 696.46 0.347539 696.571C0.458142 696.682 0.58951 696.769 0.734106 696.829C0.878702 696.889 1.03366 696.919 1.19007 696.919H284.48C284.796 696.919 285.098 696.793 285.322 696.57C285.545 696.347 285.67 696.044 285.67 695.729C285.67 695.413 285.545 695.11 285.322 694.887C285.098 694.664 284.796 694.539 284.48 694.539H1.19007C1.03366 694.538 0.878699 694.569 0.734106 694.628C0.589512 694.688 0.45814 694.775 0.347539 694.886C0.236938 694.997 0.14931 695.128 0.0896659 695.273C0.0300216 695.417 -0.000455502 695.572 5.26467e-06 695.729Z" fill="#CCCCCC"/>
<path d="M306.607 303.73V305.73H318.727V303.73H306.607ZM330.847 303.73V305.73H342.957V303.73H330.847ZM355.077 303.73V305.73H367.197V303.73H355.077ZM379.307 303.73V305.73H391.427V303.73H379.307ZM403.547 303.73V305.73H415.657V303.73H403.547ZM427.777 303.73V305.73H439.897V303.73H427.777ZM452.007 303.73V305.73H464.127V303.73H452.007ZM476.247 303.73V305.73H488.357V303.73H476.247ZM500.477 303.73V305.73H512.597V303.73H500.477ZM524.707 303.73V305.73H536.827V303.73H524.707ZM548.937 303.73V305.73H561.057V303.73H548.937ZM573.177 303.73V305.73H585.287V303.73H573.177ZM597.407 303.73V305.73H599.16C599.19 305.52 599.13 305.93 599.16 305.73C599.23 305.27 599.383 304.2 599.453 303.73H597.407Z" fill="#3F3D56"/>
<path d="M416.607 265.73V267.73H428.727V265.73H416.607ZM440.847 265.73V267.73H452.957V265.73H440.847ZM465.077 265.73V267.73H477.197V265.73H465.077ZM489.307 265.73V267.73H501.427V265.73H489.307ZM513.547 265.73V267.73H525.657V265.73H513.547ZM537.777 265.73V267.73H549.897V265.73H537.777ZM562.007 265.73V267.73H574.127V265.73H562.007ZM586.247 265.73V267.73H598.357V265.73H586.247Z" fill="#3F3D56"/>
<path d="M528.607 318.73V320.73H540.727V318.73H528.607ZM552.847 318.73V320.73H564.957V318.73H552.847ZM577.077 318.73V320.73H589.197V318.73H577.077Z" fill="#3F3D56"/>
<path d="M145.572 492.337L162.764 430.265C163.114 429.009 163.947 427.942 165.081 427.3C166.216 426.658 167.559 426.492 168.816 426.838L215.694 439.822C216.95 440.172 218.016 441.004 218.658 442.139C219.301 443.274 219.467 444.617 219.12 445.874L201.928 507.946C201.579 509.202 200.745 510.268 199.611 510.91C198.476 511.553 197.134 511.719 195.877 511.372L148.999 498.388C147.742 498.039 146.676 497.206 146.034 496.071C145.391 494.936 145.226 493.594 145.572 492.337Z" fill="#D0D0D0"/>
<path d="M154.36 474.585L165.413 434.678C165.74 433.502 166.52 432.504 167.582 431.903C168.645 431.3 169.903 431.145 171.08 431.469L211.368 442.628C212.544 442.956 213.542 443.736 214.144 444.799C214.746 445.861 214.902 447.118 214.577 448.295L199.278 503.532C198.951 504.708 198.171 505.706 197.108 506.308C196.045 506.909 194.788 507.065 193.611 506.74L168.654 499.828C163.414 498.37 158.966 494.894 156.287 490.161C153.607 485.429 152.914 479.827 154.36 474.585Z" fill="white"/>
<path d="M168.852 447.618C169.173 446.469 169.935 445.493 170.974 444.905C172.012 444.318 173.24 444.165 174.39 444.482L202.338 452.223C203.489 452.542 204.465 453.304 205.053 454.343C205.641 455.381 205.792 456.611 205.474 457.761C205.155 458.911 204.393 459.888 203.354 460.476C202.315 461.064 201.086 461.215 199.936 460.897L171.988 453.156C170.838 452.836 169.864 452.074 169.275 451.036C168.687 449.997 168.536 448.768 168.852 447.618Z" fill="#D0D0D0"/>
<path d="M165.115 461.11C165.436 459.961 166.198 458.985 167.237 458.397C168.275 457.81 169.503 457.657 170.653 457.975L198.601 465.715C199.752 466.034 200.728 466.796 201.316 467.835C201.904 468.873 202.055 470.103 201.737 471.253C201.418 472.403 200.656 473.38 199.617 473.968C198.579 474.556 197.35 474.707 196.199 474.389L168.251 466.648C167.102 466.329 166.127 465.566 165.538 464.528C164.95 463.489 164.799 462.26 165.115 461.11Z" fill="#D0D0D0"/>
<path d="M161.379 474.602C161.699 473.453 162.461 472.477 163.5 471.889C164.538 471.302 165.766 471.149 166.916 471.467L194.864 479.207C196.015 479.526 196.991 480.288 197.579 481.327C198.167 482.366 198.318 483.596 198 484.745C197.681 485.895 196.919 486.872 195.88 487.46C194.842 488.048 193.613 488.2 192.462 487.881L164.514 480.14C163.365 479.821 162.39 479.058 161.802 478.02C161.214 476.982 161.062 475.753 161.379 474.602Z" fill="#D0D0D0"/>
<path d="M159.058 472.973C157.965 472.993 156.88 472.773 155.88 472.329C154.88 471.884 153.99 471.226 153.273 470.401C152.555 469.575 152.027 468.602 151.726 467.55C151.425 466.499 151.358 465.394 151.53 464.313L110 441.574L122.155 435L160.641 458.115C162.436 458.524 164.019 459.578 165.09 461.077C166.161 462.576 166.644 464.415 166.449 466.246C166.254 468.078 165.394 469.774 164.032 471.014C162.67 472.254 160.9 472.951 159.058 472.973Z" fill="#FFD4AF"/>
<path d="M136.107 457L121.38 454.384L116.107 450L112.561 448.194L100.338 439.615L100.302 439.506L80.8804 382.097C79.9887 377.382 80.9328 372.505 83.5196 368.464C86.1064 364.423 90.1402 361.524 94.795 360.36C97.369 359.719 100.049 359.632 102.66 360.102C105.27 360.572 107.751 361.59 109.94 363.088C112.129 364.586 113.975 366.531 115.358 368.795C116.741 371.058 117.629 373.589 117.963 376.22L124.214 425.423L134.574 436.122L139.107 437L140.151 441.881L144.107 448L136.107 457Z" fill="#3F3D56"/>
</g>
<defs>
<linearGradient id="paint0_linear_16_152" x1="93" y1="357.5" x2="121.5" y2="474.5" gradientUnits="userSpaceOnUse">
<stop stop-color="#3F3D56"/>
<stop offset="1" stop-color="#44425D"/>
</linearGradient>
</defs>
</svg>
