<svg xmlns="http://www.w3.org/2000/svg" width="763" height="801" fill="none" viewBox="0 0 763 801"><g clip-path="url(#clip0_16_154)"><path fill="#d9d9d9" d="M494.607 453.804a1.537 1.537 0 0 0 2.187-.066 126.2 126.2 0 0 0 17.588-24.262 132.9 132.9 0 0 0 11.832-28.887 148.6 148.6 0 0 0 5.155-31.372c.609-10.972.15-21.977-1.369-32.86a192 192 0 0 0-7.743-33.366 212 212 0 0 0-13.972-32.897 228.5 228.5 0 0 0-20.06-31.451 242.5 242.5 0 0 0-56.333-53.512 228 228 0 0 0-32.427-18.41 212 212 0 0 0-33.55-12.247 191.6 191.6 0 0 0-33.694-5.996 169.3 169.3 0 0 0-32.856.349 148.3 148.3 0 0 0-31.03 6.792 132.7 132.7 0 0 0-28.206 13.337 126.2 126.2 0 0 0-23.285 18.849 1.54 1.54 0 0 0 .049 2.19 1.57 1.57 0 0 0 2.207-.05 123 123 0 0 1 22.682-18.353 129.5 129.5 0 0 1 27.544-13.024 145 145 0 0 1 30.381-6.652 166.2 166.2 0 0 1 32.252-.341 188.6 188.6 0 0 1 33.146 5.903 209 209 0 0 1 33.058 12.067 225 225 0 0 1 31.988 18.158 239.4 239.4 0 0 1 55.605 52.821 225.4 225.4 0 0 1 19.786 31.018 209 209 0 0 1 13.767 32.412 189 189 0 0 1 7.618 32.824 166.6 166.6 0 0 1 1.346 32.255 145.6 145.6 0 0 1-5.045 30.718 129.8 129.8 0 0 1-11.554 28.216 123.2 123.2 0 0 1-17.133 23.637 1.566 1.566 0 0 0 .066 2.2"/><path fill="#ffd4af" d="m511.038 277.018 24.321 22.002 12.834-14.214-24.321-22.002a20.13 20.13 0 0 0-6.856-13.949c-7.581-6.858-18.323-7.327-23.991-1.046s-4.121 16.93 3.46 23.788a20.08 20.08 0 0 0 14.556 5.421Z"/><path fill="#413f59" d="m615.967 332.507-83.73-72.093-21.743 25.157 95.644 93.754"/><path fill="#ffd4af" d="m638.658 374.594 12.142 48.027-83.845-1.036 9.596-43.885Z"/><path fill="#ffd4af" d="m654.167 538.689 18.204 79.718 33.505 159.604-15.528 3.109-106.721-237.876Z"/><path fill="#ffd4af" d="m619.119 556.848-33.624 74.527-49.381 149.745-20.703-5.181 44.755-258.13Z"/><path fill="#2f2e41" d="M646.091 403.382s37.434 75.185 30.608 158.238c0 0-55.189 47.663-143.846 3.542l36.495-166.105Z"/><path fill="#2f2e41" d="M708.468 797.041a6.92 6.92 0 0 0 2.86-4.853c.131-2.012-.862-4.17-2.951-6.414-.05-.647-.7-8.648-2.144-10.081.121-.428.857-3.268-.349-5.112a3.5 3.5 0 0 0-1.186-1.07 3.5 3.5 0 0 0-1.537-.431l-.054-.006-.027.048c-.035.062-3.551 6.253-8.841 6.796-3.033.311-6.069-1.269-9.024-4.702-.106-.254-.941-4.433-1.48-7.205l-.022-.111-28.82 15.353-16.847 4.725a4.99 4.99 0 0 0-3.576 4.355 4.99 4.99 0 0 0 2.759 4.914l8.166 3.978a25.26 25.26 0 0 0 11.003 2.541h44.294c2.828.014 5.574-.95 7.775-2.729Z"/><path fill="#2f2e41" d="M543.883 797.041a6.923 6.923 0 0 0 2.86-4.853c.132-2.012-.862-4.17-2.951-6.414-.05-.647-.7-8.648-2.143-10.081.121-.428.856-3.268-.35-5.112a3.5 3.5 0 0 0-1.186-1.07 3.5 3.5 0 0 0-1.537-.431l-.054-.006-.027.048c-.035.062-3.551 6.253-8.841 6.796-3.033.311-6.069-1.269-9.023-4.702-.106-.254-.942-4.433-1.481-7.205l-.022-.111-28.82 15.353-16.847 4.725a4.99 4.99 0 0 0-2.955 7.239 5 5 0 0 0 2.139 2.03l8.166 3.978a25.3 25.3 0 0 0 11.001 2.541h44.294a12.27 12.27 0 0 0 7.775-2.729Z"/><path fill="#ffd4af" d="M626.609 225.551a33.9 33.9 0 0 0-5.008-17.721 33.84 33.84 0 0 0-13.536-12.474 33.79 33.79 0 0 0-35.291 2.917 33.85 33.85 0 0 0-11.309 14.527 33.88 33.88 0 0 0 5.8 34.966 33.8 33.8 0 0 0 15.393 10.089l6.538 43.248 33.328-27.8a84 84 0 0 1-11.061-19.531 33.8 33.8 0 0 0 11.122-12.199 33.84 33.84 0 0 0 4.024-16.017Z"/><path fill="#413f59" d="m625.699 258.967-39.833 25.486-18.385 32.496a45.5 45.5 0 0 0-5.071 31.03l8.448 43.743h88.073l-13.916-91.261a76.8 76.8 0 0 0-12.955-32.388l-6.362-9.105Z"/><path fill="#2f2e41" d="M637.468 270.03s-1.579 11.993-16.21 12.385l-29.68.795s25.09-61.117 14.773-54.231-37.828-21.985-37.828-21.985l-8.117 15.239s-19.393-7.029 2.099-24.243c0 0 25.644-19.845 52.868-7.928 27.223 11.918 22.091 79.965 22.091 79.965Z"/><path fill="#ffd4af" d="m618.884 487.2.711-32.806-19.136-.415-.71 32.805a20.124 20.124 0 0 0-6.054 14.316c-.222 10.226 6.452 18.665 14.907 18.848s15.488-7.957 15.71-18.183a20.13 20.13 0 0 0-5.428-14.565"/><path fill="#413f59" d="M592.466 323.004v159.011h33.233l9.822-157.667"/><path fill="#ccc" d="M427.227 799.769a1.119 1.119 0 0 0 .966 1.233h333.842a1.274 1.274 0 0 0 .966-1.234 1.27 1.27 0 0 0-.966-1.233H428.197a1.12 1.12 0 0 0-.97 1.234"/><path fill="#d9d9d9" d="M445.551 235.112a175 175 0 0 0-22.024-17.783 166 166 0 0 0-23.555-13.374 154 154 0 0 0-24.38-8.896 139 139 0 0 0-24.485-4.362 123 123 0 0 0-23.89.254 108 108 0 0 0-22.573 4.941 96.6 96.6 0 0 0-20.527 9.707 91.7 91.7 0 0 0-31.31 33.023 96.7 96.7 0 0 0-8.611 21.026 108 108 0 0 0-3.751 22.822 123.4 123.4 0 0 0 .996 23.893 139.6 139.6 0 0 0 5.631 24.247 154 154 0 0 0 10.152 23.903c4.227 8 9.1 15.642 14.572 22.847a176.1 176.1 0 0 0 40.917 38.868 166 166 0 0 0 23.554 13.383 154 154 0 0 0 24.378 8.898 139 139 0 0 0 24.485 4.361c7.953.691 15.953.606 23.89-.254a107.8 107.8 0 0 0 22.573-4.941 96.5 96.5 0 0 0 20.527-9.713 91.7 91.7 0 0 0 31.31-33.022 96.7 96.7 0 0 0 8.611-21.026 108 108 0 0 0 3.75-22.822c.443-7.978.109-15.98-.995-23.893a139.7 139.7 0 0 0-5.631-24.247 154.3 154.3 0 0 0-10.144-23.906 166 166 0 0 0-14.579-22.85 175.3 175.3 0 0 0-18.891-21.084M292.82 396.198a172 172 0 0 1-18.557-20.71 163 163 0 0 1-14.303-22.415 151 151 0 0 1-9.947-23.419 136.6 136.6 0 0 1-5.499-23.707 120.3 120.3 0 0 1-.971-23.289 105 105 0 0 1 3.641-22.169 93.6 93.6 0 0 1 8.332-20.349 88.6 88.6 0 0 1 30.251-31.906 93.4 93.4 0 0 1 19.866-9.392 104.8 104.8 0 0 1 21.923-4.798 120 120 0 0 1 23.285-.245 136 136 0 0 1 23.94 4.256 151 151 0 0 1 23.885 8.72 163 163 0 0 1 23.111 13.125 173 173 0 0 1 40.189 38.177 163 163 0 0 1 14.303 22.416 151 151 0 0 1 9.948 23.419 136.6 136.6 0 0 1 5.498 23.707 120.3 120.3 0 0 1 .977 23.293 105 105 0 0 1-3.641 22.164 93.6 93.6 0 0 1-8.332 20.35 88.6 88.6 0 0 1-30.251 31.905 93.4 93.4 0 0 1-19.867 9.392 104.7 104.7 0 0 1-21.923 4.798c-7.735.837-15.534.92-23.285.247a136 136 0 0 1-23.94-4.257 151 151 0 0 1-23.886-8.725 162.6 162.6 0 0 1-23.111-13.126 172 172 0 0 1-21.636-17.462"/><path fill="#7d7f86" d="M333.288 209.048c-7.717 0-13.974-6.262-13.974-13.987s6.257-13.987 13.974-13.987 13.974 6.262 13.974 13.987-6.256 13.987-13.974 13.987"/><path fill="#7d7f86" d="M485.452 319.911c-7.718 0-13.974-6.262-13.974-13.987s6.256-13.986 13.974-13.986c7.717 0 13.974 6.262 13.974 13.986s-6.257 13.987-13.974 13.987"/><path fill="#7d7f86" d="M405.748 453.572c-7.718 0-13.974-6.263-13.974-13.987s6.256-13.987 13.974-13.987c7.717 0 13.974 6.262 13.974 13.987s-6.257 13.987-13.974 13.987"/><path fill="#d9d9d9" d="M421.691 266.032a117 117 0 0 0-14.701-11.87 110.6 110.6 0 0 0-15.725-8.926 103 103 0 0 0-16.277-5.944 93 93 0 0 0-16.348-2.909 82 82 0 0 0-15.944.166 72 72 0 0 0-15.07 3.305 64.4 64.4 0 0 0-13.703 6.48 61.2 61.2 0 0 0-20.901 22.045 64.5 64.5 0 0 0-5.749 14.036 72.2 72.2 0 0 0-2.503 15.234 82.4 82.4 0 0 0 .668 15.946 93 93 0 0 0 3.756 16.19 103 103 0 0 0 6.781 15.959 111 111 0 0 0 9.723 15.251 117.5 117.5 0 0 0 27.314 25.947c4.99 3.4 10.25 6.385 15.726 8.927a102.7 102.7 0 0 0 16.276 5.943 93 93 0 0 0 16.348 2.91 82 82 0 0 0 15.944-.167 72 72 0 0 0 15.067-3.306 64.4 64.4 0 0 0 13.703-6.479 61.2 61.2 0 0 0 20.901-22.044 64.6 64.6 0 0 0 5.748-14.036 72.2 72.2 0 0 0 2.505-15.236 82.4 82.4 0 0 0-.668-15.946 93 93 0 0 0-3.756-16.189 103 103 0 0 0-6.781-15.959 111 111 0 0 0-9.721-15.252 117 117 0 0 0-12.613-14.076M319.736 373.565a115 115 0 0 1-12.388-13.824 109 109 0 0 1-9.546-14.967 101 101 0 0 1-6.64-15.633 91 91 0 0 1-3.673-15.827 80.3 80.3 0 0 1-.649-15.545 70 70 0 0 1 2.43-14.797 62.5 62.5 0 0 1 5.563-13.583 59.14 59.14 0 0 1 20.194-21.299 62.3 62.3 0 0 1 13.261-6.271 70 70 0 0 1 14.635-3.203 80 80 0 0 1 15.544-.164 91 91 0 0 1 15.983 2.844 100.6 100.6 0 0 1 15.944 5.821 108.6 108.6 0 0 1 15.431 8.759 115.5 115.5 0 0 1 26.828 25.485 109 109 0 0 1 9.545 14.967 101 101 0 0 1 6.641 15.632 91 91 0 0 1 3.673 15.827 80.3 80.3 0 0 1 .648 15.547 70 70 0 0 1-2.43 14.796 62.5 62.5 0 0 1-5.562 13.584 59.16 59.16 0 0 1-20.194 21.299 62.4 62.4 0 0 1-13.261 6.27 70 70 0 0 1-14.635 3.203 80 80 0 0 1-15.544.164 91 91 0 0 1-15.982-2.845 101 101 0 0 1-15.944-5.82 108.6 108.6 0 0 1-15.431-8.76c-5.12-3.49-9.949-7.39-14.441-11.66"/><path fill="#df1523" d="M441.248 384.965c-6.002 0-10.868-4.87-10.868-10.879s4.866-10.879 10.868-10.879 10.869 4.871 10.869 10.879c0 6.009-4.866 10.879-10.869 10.879"/><path fill="#f3bc19" d="M291.305 410.981c-6.003 0-10.869-4.871-10.869-10.879 0-6.009 4.866-10.879 10.869-10.879s10.869 4.87 10.869 10.879-4.866 10.879-10.869 10.879"/><path fill="#0c9017" d="M269.11 169.678c-6.002 0-10.868-4.87-10.868-10.879s4.866-10.879 10.868-10.879 10.869 4.871 10.869 10.879c0 6.009-4.866 10.879-10.869 10.879"/><path fill="#7d7f86" d="M427.485 194.544c-7.718 0-13.974-6.262-13.974-13.987s6.256-13.987 13.974-13.987c7.717 0 13.973 6.263 13.973 13.987s-6.256 13.987-13.973 13.987"/><path fill="#7d7f86" d="M288.2 293.124c-7.717 0-13.973-6.262-13.973-13.987s6.256-13.987 13.973-13.987 13.974 6.263 13.974 13.987-6.256 13.987-13.974 13.987"/><path fill="#f3bc19" d="m364 340.5 7.583-1v-6.707c0-1.875.64-3.738 1.649-5.32 22.269-34.9-42.345-27.745-12.848.914 1.358 1.32 2.356 3.048 2.632 4.922.378 2.566.882 6.073.984 7.191"/><path stroke="#3f3d56" d="m362.5 341 10.686-1.337v-5.074c0-1.915.679-3.846 1.751-5.433 32.51-48.177-60.317-37.813-15.42 2.02.802.712 1.438 1.696 1.668 2.744.445 2.02 1.16 5.419 1.315 7.08Z"/><path fill="#3f3d56" d="m373 339.5-.474.158.935-.352Zm-2 10-.045-.498.022-.002H371Zm-5.5.5-.055-.497.01-.001Zm-.948-6.003a.5.5 0 1 1-.104-.994l.052.497ZM371 349.5l.045.498-5.5.5-.045-.498-.045-.498 5.5-.5Zm-5.5.5.055.497c-1.256.14-2.208-.21-2.865-.945-.631-.705-.931-1.699-1.061-2.74-.26-2.081.129-4.654.376-6.383l.495.071.495.071c-.253 1.771-.614 4.198-.374 6.117.12.959.382 1.715.814 2.197.405.453 1.016.728 2.01.618Zm7.5-10.5.461-.194c.157.373.334.913.507 1.456.176.554.349 1.118.505 1.577l-.473.161-.473.161c-.161-.471-.341-1.058-.512-1.597a18 18 0 0 0-.476-1.37Zm0 0 .474-.158 1 3-.474.158-.474.158-1-3Zm-8.5 4-.052-.497 9.5-1 .052.497.052.497-9.5 1Zm9.5-1 .473-.161c.338.992 1.027 1.884 1.027 3.661h-1c0-1.562-.529-2.033-.973-3.339Zm1 3.5h.5c0 .791-.129 1.808-.801 2.629-.687.84-1.854 1.371-3.699 1.371v-1c1.655 0 2.488-.469 2.926-1.004.453-.554.574-1.287.574-1.996Zm0 0 .039.498-12.84 1-.039-.498-.039-.498 12.84-1Z"/><path fill="#3f3d56" d="m372 312.5-.257.428Zm-5.515 24.121a.5.5 0 1 1-.97-.243l.485.122Zm2.015 3.378-.494.08c-.841-5.217-.965-12.736-.379-18.654.293-2.953.767-5.552 1.438-7.276.332-.851.739-1.562 1.258-1.973.269-.213.58-.354.93-.376.348-.021.687.08 1.004.271l-.257.429-.257.428c-.183-.109-.322-.136-.429-.129a.65.65 0 0 0-.371.162c-.304.24-.632.744-.946 1.551-.62 1.593-1.084 4.081-1.374 7.012-.58 5.848-.455 13.278.371 18.395ZM372 312.5l.257-.429c.502.301.849.705 1.03 1.182.179.472.183.977.067 1.464-.229.963-.935 1.913-1.864 2.618-.936.71-2.148 1.21-3.448 1.219-1.312.008-2.679-.485-3.896-1.702l.354-.353.354-.354c1.033 1.033 2.145 1.415 3.182 1.409 1.049-.007 2.056-.414 2.849-1.016.801-.607 1.335-1.375 1.496-2.053.079-.333.066-.628-.029-.877-.093-.244-.278-.481-.609-.68Zm-7.5 3.999-.354.353c-2.422-2.422-2.532-6.011-1.877-8.303.166-.581.386-1.1.646-1.511.252-.401.576-.754.974-.916.207-.085.436-.118.672-.072.234.046.441.163.619.325.342.314.601.822.799 1.48l-.479.144-.479.143c-.177-.591-.371-.896-.517-1.029-.067-.062-.112-.077-.135-.081a.2.2 0 0 0-.102.015c-.118.049-.302.2-.506.524-.198.313-.384.74-.53 1.253-.595 2.082-.455 5.244 1.623 7.321Zm1-8.5.479-.144c.811 2.705-.272 6.118-2.016 8.444-.879 1.172-1.964 2.123-3.135 2.574-1.195.46-2.474.393-3.628-.473l.3-.4.3-.4c.846.634 1.754.692 2.669.34.938-.362 1.884-1.161 2.693-2.24 1.631-2.175 2.548-5.262 1.859-7.558Zm-8 10.001-.3.4c-1.072-.804-1.662-1.716-1.832-2.594-.17-.881.092-1.701.667-2.235.577-.536 1.419-.736 2.306-.481.88.253 1.781.941 2.575 2.133l-.416.277-.416.277c-.706-1.058-1.43-1.557-2.019-1.726-.581-.167-1.052-.023-1.35.253-.3.278-.476.739-.365 1.312.112.575.522 1.288 1.45 1.984Zm3-2.5.416-.277c1.546 2.319 3.188 6.633 4.317 10.835.567 2.109 1.009 4.209 1.247 6.041.236 1.815.279 3.425.005 4.522L366 336.5l-.485-.122c.226-.903.207-2.355-.026-4.15-.231-1.777-.663-3.833-1.222-5.911-1.121-4.173-2.729-8.359-4.183-10.54Z"/><path stroke="#3f3d56" stroke-linecap="round" d="M377.5 296.5c1.2-6.4 3.5-8.333 4.5-8.5"/><path stroke="#3f3d56" stroke-linecap="round" d="M347 299c-1.6-6.024-4.667-7.843-6-8"/><path stroke="#3f3d56" stroke-linecap="round" d="m362 292-2-14"/></g><defs><clipPath id="clip0_16_154"><path fill="#fff" d="M763 0H0v801h763Z"/></clipPath></defs></svg>