<svg width="763" height="801" viewBox="0 0 763 801" fill="none" xmlns="http://www.w3.org/2000/svg">
<g clip-path="url(#clip0_16_154)">
<path d="M494.607 453.804C495.229 454.393 496.212 454.368 496.794 453.738C503.597 446.38 509.502 438.236 514.382 429.476C519.447 420.346 523.419 410.65 526.214 400.589C529.049 390.346 530.778 379.828 531.369 369.217C531.978 358.245 531.519 347.24 530 336.357C528.418 325.026 525.826 313.86 522.257 302.991C518.532 291.651 513.859 280.647 508.285 270.094C502.466 259.08 495.757 248.562 488.225 238.643C472.443 217.891 453.421 199.822 431.892 185.131C421.603 178.12 410.757 171.963 399.465 166.721C388.646 161.701 377.423 157.604 365.915 154.474C354.884 151.474 343.608 149.468 332.221 148.478C321.283 147.529 310.28 147.645 299.365 148.827C288.809 149.973 278.406 152.25 268.335 155.619C258.442 158.939 248.975 163.416 240.129 168.956C231.646 174.292 223.829 180.62 216.844 187.805C216.246 188.42 216.271 189.403 216.893 189.995C217.515 190.587 218.5 190.562 219.1 189.945C225.905 182.95 233.519 176.789 241.782 171.592C250.42 166.181 259.665 161.81 269.326 158.568C279.186 155.269 289.371 153.039 299.707 151.916C310.421 150.757 321.222 150.643 331.959 151.575C343.161 152.55 354.254 154.526 365.105 157.478C376.444 160.563 387.502 164.599 398.163 169.545C409.302 174.715 420 180.788 430.151 187.703C451.401 202.204 470.177 220.04 485.756 240.524C493.185 250.306 499.802 260.68 505.542 271.542C511.034 281.939 515.639 292.782 519.309 303.954C522.821 314.646 525.37 325.631 526.927 336.778C528.419 347.461 528.869 358.263 528.273 369.033C527.694 379.424 526.003 389.722 523.228 399.751C520.498 409.578 516.62 419.049 511.674 427.967C506.919 436.5 501.167 444.434 494.541 451.604C493.959 452.233 493.985 453.214 494.607 453.804Z" fill="#D9D9D9"/>
<path d="M511.038 277.018L535.359 299.02L548.193 284.806L523.872 262.804C523.711 260.14 523.022 257.535 521.845 255.14C520.668 252.745 519.026 250.609 517.016 248.855C509.435 241.997 498.693 241.528 493.025 247.809C487.357 254.089 488.904 264.739 496.485 271.597C498.43 273.423 500.719 274.842 503.218 275.773C505.718 276.703 508.377 277.127 511.041 277.018H511.038Z" fill="#FFD4AF"/>
<path d="M615.967 332.507L532.237 260.414L510.494 285.571L606.138 379.325" fill="#413F59"/>
<path d="M638.658 374.594L650.8 422.621L566.955 421.585L576.551 377.7L638.658 374.594Z" fill="#FFD4AF"/>
<path d="M654.167 538.689L672.371 618.407L705.876 778.011L690.348 781.12L583.627 543.244L654.167 538.689Z" fill="#FFD4AF"/>
<path d="M619.119 556.848L585.495 631.375L536.114 781.12L515.411 775.939L560.166 517.809L619.119 556.848Z" fill="#FFD4AF"/>
<path d="M646.091 403.382C646.091 403.382 683.525 478.567 676.699 561.62C676.699 561.62 621.51 609.283 532.853 565.162L569.348 399.057L646.09 403.382H646.091Z" fill="#2F2E41"/>
<path d="M708.468 797.041C709.258 796.478 709.92 795.755 710.413 794.919C710.906 794.083 711.217 793.152 711.328 792.188C711.459 790.176 710.466 788.018 708.377 785.774C708.327 785.127 707.677 777.126 706.233 775.693C706.354 775.265 707.09 772.425 705.884 770.581C705.576 770.138 705.17 769.772 704.698 769.511C704.225 769.251 703.699 769.104 703.161 769.08L703.107 769.074L703.08 769.122C703.045 769.184 699.529 775.375 694.239 775.918C691.206 776.229 688.17 774.649 685.215 771.216C685.109 770.962 684.274 766.783 683.735 764.011L683.713 763.9L654.893 779.253L638.046 783.978C637.081 784.259 636.223 784.825 635.585 785.602C634.947 786.379 634.558 787.331 634.47 788.333C634.382 789.335 634.598 790.34 635.09 791.217C635.583 792.094 636.328 792.802 637.229 793.247L645.395 797.225C648.825 798.892 652.586 799.76 656.398 799.766H700.692C703.52 799.78 706.266 798.816 708.467 797.037L708.468 797.041Z" fill="#2F2E41"/>
<path d="M543.883 797.041C544.673 796.478 545.336 795.755 545.828 794.919C546.321 794.083 546.633 793.152 546.743 792.188C546.875 790.176 545.881 788.018 543.792 785.774C543.742 785.127 543.092 777.126 541.649 775.693C541.77 775.265 542.505 772.425 541.299 770.581C540.991 770.138 540.585 769.772 540.113 769.511C539.641 769.251 539.114 769.104 538.576 769.08L538.522 769.074L538.495 769.122C538.46 769.184 534.944 775.375 529.654 775.918C526.621 776.229 523.585 774.649 520.631 771.216C520.525 770.962 519.689 766.783 519.15 764.011L519.128 763.9L490.308 779.253L473.461 783.978C472.496 784.259 471.638 784.825 471 785.602C470.362 786.379 469.973 787.331 469.885 788.333C469.797 789.335 470.013 790.34 470.506 791.217C470.998 792.094 471.744 792.802 472.645 793.247L480.811 797.225C484.24 798.891 488.001 799.76 491.812 799.766H536.106C538.934 799.78 541.681 798.816 543.881 797.037L543.883 797.041Z" fill="#2F2E41"/>
<path d="M626.609 225.551C626.608 219.294 624.874 213.16 621.601 207.83C618.327 202.5 613.642 198.182 608.065 195.356C602.488 192.53 596.237 191.307 590.007 191.822C583.778 192.337 577.812 194.57 572.774 198.273C567.735 201.976 563.821 207.005 561.465 212.8C559.109 218.595 558.404 224.931 559.428 231.103C560.452 237.276 563.165 243.043 567.265 247.766C571.366 252.488 576.694 255.98 582.658 257.855L589.196 301.103L622.524 273.303C617.981 267.317 614.261 260.748 611.463 253.772C616.121 250.689 619.942 246.497 622.585 241.573C625.228 236.649 626.611 231.146 626.609 225.556V225.551Z" fill="#FFD4AF"/>
<path d="M625.699 258.967L585.866 284.453L567.481 316.949C562.157 326.359 560.359 337.361 562.41 347.979L570.858 391.722H658.931L645.015 300.461C643.238 288.812 638.806 277.73 632.06 268.073L625.698 258.968L625.699 258.967Z" fill="#413F59"/>
<path d="M637.468 270.03C637.468 270.03 635.889 282.023 621.258 282.415L591.578 283.21C591.578 283.21 616.668 222.093 606.351 228.979C596.034 235.865 568.523 206.994 568.523 206.994L560.406 222.233C560.406 222.233 541.013 215.204 562.505 197.99C562.505 197.99 588.149 178.145 615.373 190.062C642.596 201.98 637.464 270.027 637.464 270.027L637.468 270.03Z" fill="#2F2E41"/>
<path d="M618.884 487.2L619.595 454.394L600.459 453.979L599.749 486.784C597.841 488.649 596.323 490.875 595.284 493.333C594.245 495.791 593.704 498.431 593.695 501.1C593.473 511.326 600.147 519.765 608.602 519.948C617.057 520.131 624.09 511.991 624.312 501.765C624.418 499.098 623.993 496.437 623.061 493.936C622.129 491.435 620.709 489.145 618.884 487.2Z" fill="#FFD4AF"/>
<path d="M592.466 323.004V482.015H625.699L635.521 324.348" fill="#413F59"/>
<path d="M427.227 799.769C427.195 800.06 427.278 800.352 427.459 800.582C427.639 800.813 427.903 800.963 428.193 801.002H762.035C762.31 800.934 762.555 800.776 762.731 800.552C762.906 800.328 763.001 800.053 763.001 799.768C763.001 799.484 762.906 799.208 762.731 798.985C762.555 798.761 762.31 798.603 762.035 798.535H428.197C427.906 798.573 427.641 798.723 427.46 798.954C427.279 799.185 427.195 799.477 427.227 799.769Z" fill="#CCCCCC"/>
<path d="M445.551 235.112C438.701 228.6 431.335 222.653 423.527 217.329C416.052 212.236 408.175 207.763 399.972 203.955C392.11 200.308 383.954 197.332 375.592 195.059C367.576 192.877 359.382 191.418 351.107 190.697C343.154 190.007 335.153 190.092 327.217 190.951C319.538 191.785 311.97 193.442 304.644 195.892C297.444 198.309 290.554 201.567 284.117 205.599C271.074 213.799 260.306 225.156 252.807 238.622C249.121 245.267 246.23 252.325 244.196 259.648C242.133 267.099 240.876 274.75 240.445 282.47C240.003 290.448 240.336 298.449 241.441 306.363C242.592 314.597 244.477 322.712 247.072 330.61C249.778 338.849 253.174 346.845 257.224 354.513C261.451 362.513 266.324 370.155 271.796 377.36C283.259 392.434 297.075 405.558 312.713 416.228C320.187 421.324 328.064 425.8 336.267 429.611C344.128 433.258 352.283 436.234 360.645 438.509C368.66 440.69 376.855 442.15 385.13 442.87C393.083 443.561 401.083 443.476 409.02 442.616C416.699 441.783 424.267 440.126 431.593 437.675C438.793 435.257 445.683 431.997 452.12 427.962C465.163 419.763 475.931 408.406 483.43 394.94C487.116 388.295 490.007 381.237 492.041 373.914C494.103 366.463 495.361 358.812 495.791 351.092C496.234 343.114 495.9 335.112 494.796 327.199C493.644 318.965 491.76 310.85 489.165 302.952C486.461 294.712 483.068 286.715 479.021 279.046C474.792 271.044 469.916 263.402 464.442 256.196C458.723 248.67 452.406 241.619 445.551 235.112ZM292.82 396.198C286.087 389.807 279.881 382.881 274.263 375.488C268.893 368.419 264.109 360.922 259.96 353.073C255.992 345.561 252.664 337.726 250.013 329.654C247.478 321.931 245.638 313.997 244.514 305.947C243.437 298.234 243.112 290.434 243.543 282.658C243.96 275.159 245.181 267.727 247.184 260.489C249.152 253.402 251.949 246.571 255.516 240.14C262.761 227.129 273.165 216.156 285.767 208.234C291.997 204.333 298.665 201.18 305.633 198.842C312.748 196.462 320.098 194.854 327.556 194.044C335.292 193.207 343.09 193.125 350.841 193.799C358.932 194.501 366.944 195.925 374.781 198.055C382.973 200.284 390.963 203.201 398.666 206.775C406.714 210.512 414.443 214.902 421.777 219.9C437.136 230.381 450.707 243.272 461.966 258.077C467.336 265.146 472.12 272.643 476.269 280.493C480.237 288.005 483.565 295.839 486.217 303.912C488.751 311.634 490.591 319.568 491.715 327.619C492.794 335.333 493.121 343.134 492.692 350.912C492.274 358.409 491.053 365.84 489.051 373.076C487.083 380.164 484.286 386.994 480.719 393.426C473.474 406.436 463.07 417.409 450.468 425.331C444.238 429.233 437.57 432.385 430.601 434.723C423.486 437.103 416.137 438.712 408.678 439.521C400.943 440.358 393.144 440.441 385.393 439.768C377.302 439.066 369.29 437.641 361.453 435.511C353.26 433.28 345.27 430.362 337.567 426.786C329.519 423.049 321.789 418.659 314.456 413.66C306.785 408.433 299.55 402.593 292.82 396.198Z" fill="#D9D9D9"/>
<path d="M333.288 209.048C325.571 209.048 319.314 202.786 319.314 195.061C319.314 187.336 325.571 181.074 333.288 181.074C341.006 181.074 347.262 187.336 347.262 195.061C347.262 202.786 341.006 209.048 333.288 209.048Z" fill="#7D7F86"/>
<path d="M485.452 319.911C477.734 319.911 471.478 313.649 471.478 305.924C471.478 298.2 477.734 291.938 485.452 291.938C493.169 291.938 499.426 298.2 499.426 305.924C499.426 313.649 493.169 319.911 485.452 319.911Z" fill="#7D7F86"/>
<path d="M405.748 453.572C398.03 453.572 391.774 447.309 391.774 439.585C391.774 431.86 398.03 425.598 405.748 425.598C413.465 425.598 419.722 431.86 419.722 439.585C419.722 447.309 413.465 453.572 405.748 453.572Z" fill="#7D7F86"/>
<path d="M421.691 266.032C417.119 261.685 412.202 257.715 406.99 254.162C402 250.762 396.741 247.777 391.265 245.236C386.016 242.8 380.571 240.811 374.988 239.292C369.636 237.836 364.165 236.863 358.64 236.383C353.332 235.921 347.993 235.977 342.696 236.549C337.569 237.108 332.517 238.216 327.626 239.854C322.82 241.467 318.22 243.642 313.923 246.334C305.216 251.808 298.028 259.389 293.022 268.379C290.561 272.815 288.631 277.526 287.273 282.415C285.897 287.389 285.057 292.496 284.77 297.649C284.476 302.974 284.7 308.314 285.438 313.595C286.205 319.093 287.463 324.511 289.194 329.785C291.002 335.286 293.27 340.624 295.975 345.744C298.795 351.084 302.047 356.185 305.698 360.995C313.35 371.058 322.573 379.819 333.012 386.942C338.002 390.342 343.262 393.327 348.738 395.869C353.986 398.305 359.431 400.293 365.014 401.812C370.366 403.268 375.837 404.242 381.362 404.722C386.67 405.183 392.01 405.128 397.306 404.555C402.432 403.996 407.484 402.887 412.373 401.249C417.18 399.636 421.779 397.461 426.076 394.77C434.783 389.297 441.972 381.715 446.977 372.726C449.438 368.29 451.367 363.578 452.725 358.69C454.102 353.716 454.942 348.608 455.23 343.454C455.524 338.13 455.3 332.789 454.562 327.508C453.795 322.011 452.537 316.593 450.806 311.319C448.998 305.818 446.73 300.479 444.025 295.36C441.205 290.019 437.954 284.918 434.304 280.108C430.486 275.083 426.268 270.376 421.691 266.032ZM319.736 373.565C315.241 369.299 311.098 364.676 307.348 359.741C303.764 355.021 300.571 350.015 297.802 344.774C295.153 339.76 292.932 334.53 291.162 329.141C289.469 323.986 288.239 318.689 287.489 313.314C286.77 308.166 286.552 302.959 286.84 297.769C287.119 292.764 287.934 287.803 289.27 282.972C290.585 278.241 292.452 273.682 294.833 269.389C299.669 260.704 306.614 253.379 315.027 248.09C319.185 245.485 323.637 243.38 328.288 241.819C333.038 240.23 337.944 239.156 342.923 238.616C348.087 238.057 353.292 238.002 358.467 238.452C363.869 238.921 369.218 239.873 374.45 241.296C379.919 242.784 385.253 244.731 390.394 247.117C395.768 249.611 400.929 252.54 405.825 255.876C416.078 262.873 425.137 271.478 432.653 281.361C436.237 286.081 439.429 291.087 442.198 296.328C444.847 301.342 447.068 306.572 448.839 311.96C450.532 317.116 451.761 322.412 452.512 327.787C453.231 332.936 453.448 338.143 453.16 343.334C452.881 348.339 452.066 353.299 450.73 358.13C449.416 362.861 447.549 367.421 445.168 371.714C440.331 380.399 433.386 387.724 424.974 393.013C420.815 395.617 416.364 397.722 411.713 399.283C406.963 400.872 402.056 401.945 397.078 402.486C391.914 403.044 386.708 403.099 381.534 402.65C376.132 402.18 370.784 401.228 365.552 399.805C360.083 398.317 354.749 396.37 349.608 393.985C344.234 391.491 339.074 388.561 334.177 385.225C329.057 381.735 324.228 377.835 319.736 373.565Z" fill="#D9D9D9"/>
<path d="M441.248 384.965C435.246 384.965 430.38 380.095 430.38 374.086C430.38 368.078 435.246 363.207 441.248 363.207C447.251 363.207 452.117 368.078 452.117 374.086C452.117 380.095 447.251 384.965 441.248 384.965Z" fill="#DF1523"/>
<path d="M291.305 410.981C285.302 410.981 280.436 406.11 280.436 400.102C280.436 394.093 285.302 389.223 291.305 389.223C297.308 389.223 302.174 394.093 302.174 400.102C302.174 406.11 297.308 410.981 291.305 410.981Z" fill="#F3BC19"/>
<path d="M269.11 169.678C263.108 169.678 258.242 164.808 258.242 158.799C258.242 152.791 263.108 147.92 269.11 147.92C275.113 147.92 279.979 152.791 279.979 158.799C279.979 164.808 275.113 169.678 269.11 169.678Z" fill="#0C9017"/>
<path d="M427.485 194.544C419.767 194.544 413.511 188.282 413.511 180.557C413.511 172.833 419.767 166.57 427.485 166.57C435.202 166.57 441.458 172.833 441.458 180.557C441.458 188.282 435.202 194.544 427.485 194.544Z" fill="#7D7F86"/>
<path d="M288.2 293.124C280.483 293.124 274.227 286.862 274.227 279.137C274.227 271.413 280.483 265.15 288.2 265.15C295.918 265.15 302.174 271.413 302.174 279.137C302.174 286.862 295.918 293.124 288.2 293.124Z" fill="#7D7F86"/>
<path d="M364 340.5L371.583 339.5V332.793C371.583 330.918 372.223 329.055 373.232 327.473C395.501 292.573 330.887 299.728 360.384 328.387C361.742 329.707 362.74 331.435 363.016 333.309C363.394 335.875 363.898 339.382 364 340.5Z" fill="#F3BC19"/>
<path d="M362.5 341L373.186 339.663L373.186 334.589C373.186 332.674 373.865 330.743 374.937 329.156C407.447 280.979 314.62 291.343 359.517 331.176C360.319 331.888 360.955 332.872 361.185 333.92C361.63 335.94 362.345 339.339 362.5 341Z" stroke="#3F3D56"/>
<path d="M373 339.5L372.526 339.658L373.461 339.306L373 339.5ZM371 349.5L370.955 349.002L370.977 349H371V349.5ZM365.5 350L365.445 349.503L365.455 349.502L365.5 350ZM364.552 343.997C364.278 344.026 364.032 343.827 364.003 343.552C363.974 343.278 364.173 343.032 364.448 343.003L364.5 343.5L364.552 343.997ZM371 349.5L371.045 349.998L365.545 350.498L365.5 350L365.455 349.502L370.955 349.002L371 349.5ZM365.5 350L365.555 350.497C364.299 350.637 363.347 350.287 362.69 349.552C362.059 348.847 361.759 347.853 361.629 346.812C361.369 344.731 361.758 342.158 362.005 340.429L362.5 340.5L362.995 340.571C362.742 342.342 362.381 344.769 362.621 346.688C362.741 347.647 363.003 348.403 363.435 348.885C363.84 349.338 364.451 349.613 365.445 349.503L365.5 350ZM373 339.5L373.461 339.306C373.618 339.679 373.795 340.219 373.968 340.762C374.144 341.316 374.317 341.88 374.473 342.339L374 342.5L373.527 342.661C373.366 342.19 373.186 341.603 373.015 341.064C372.84 340.514 372.676 340.019 372.539 339.694L373 339.5ZM373 339.5L373.474 339.342L374.474 342.342L374 342.5L373.526 342.658L372.526 339.658L373 339.5ZM364.5 343.5L364.448 343.003L373.948 342.003L374 342.5L374.052 342.997L364.552 343.997L364.5 343.5ZM374 342.5L374.473 342.339C374.811 343.331 375.5 344.223 375.5 346L375 346L374.5 346C374.5 344.438 373.971 343.967 373.527 342.661L374 342.5ZM375 346L375.5 346C375.5 346.791 375.371 347.808 374.699 348.629C374.012 349.469 372.845 350 371 350V349.5V349C372.655 349 373.488 348.531 373.926 347.996C374.379 347.442 374.5 346.709 374.5 346L375 346ZM375 346L375.039 346.498L362.199 347.498L362.16 347L362.121 346.502L374.961 345.502L375 346Z" fill="#3F3D56"/>
<path d="M372 312.5L371.743 312.928L371.743 312.928L372 312.5ZM366.485 336.621C366.418 336.889 366.147 337.052 365.879 336.985C365.611 336.918 365.448 336.646 365.515 336.378L366 336.5L366.485 336.621ZM368.5 339.999L368.006 340.079C367.165 334.862 367.041 327.343 367.627 321.425C367.92 318.472 368.394 315.873 369.065 314.149C369.397 313.298 369.804 312.587 370.323 312.176C370.592 311.963 370.903 311.822 371.253 311.8C371.601 311.779 371.94 311.88 372.257 312.071L372 312.5L371.743 312.928C371.56 312.819 371.421 312.792 371.314 312.799C371.207 312.805 371.085 312.848 370.943 312.961C370.639 313.201 370.311 313.705 369.997 314.512C369.377 316.105 368.913 318.593 368.623 321.524C368.043 327.372 368.168 334.802 368.994 339.919L368.5 339.999ZM372 312.5L372.257 312.071C372.759 312.372 373.106 312.776 373.287 313.253C373.466 313.725 373.47 314.23 373.354 314.717C373.125 315.68 372.419 316.63 371.49 317.335C370.554 318.045 369.342 318.545 368.042 318.554C366.73 318.562 365.363 318.069 364.146 316.852L364.5 316.499L364.854 316.145C365.887 317.178 366.999 317.56 368.036 317.554C369.085 317.547 370.092 317.14 370.885 316.538C371.686 315.931 372.22 315.163 372.381 314.485C372.46 314.152 372.447 313.857 372.352 313.608C372.259 313.364 372.074 313.127 371.743 312.928L372 312.5ZM364.5 316.499L364.146 316.852C361.724 314.43 361.614 310.841 362.269 308.549C362.435 307.968 362.655 307.449 362.915 307.038C363.167 306.637 363.491 306.284 363.889 306.122C364.096 306.037 364.325 306.004 364.561 306.05C364.795 306.096 365.002 306.213 365.18 306.375C365.522 306.689 365.781 307.197 365.979 307.855L365.5 307.999L365.021 308.142C364.844 307.551 364.65 307.246 364.504 307.113C364.437 307.051 364.392 307.036 364.369 307.032C364.349 307.028 364.318 307.027 364.267 307.047C364.149 307.096 363.965 307.247 363.761 307.571C363.563 307.884 363.377 308.311 363.231 308.824C362.636 310.906 362.776 314.068 364.854 316.145L364.5 316.499ZM365.5 307.999L365.979 307.855C366.79 310.56 365.707 313.973 363.963 316.299C363.084 317.471 361.999 318.422 360.828 318.873C359.633 319.333 358.354 319.266 357.2 318.4L357.5 318L357.8 317.6C358.646 318.234 359.554 318.292 360.469 317.94C361.407 317.578 362.353 316.779 363.162 315.7C364.793 313.525 365.71 310.438 365.021 308.142L365.5 307.999ZM357.5 318L357.2 318.4C356.128 317.596 355.538 316.684 355.368 315.806C355.198 314.925 355.46 314.105 356.035 313.571C356.612 313.035 357.454 312.835 358.341 313.09C359.221 313.343 360.122 314.031 360.916 315.223L360.5 315.5L360.084 315.777C359.378 314.719 358.654 314.22 358.065 314.051C357.484 313.884 357.013 314.028 356.715 314.304C356.415 314.582 356.239 315.043 356.35 315.616C356.462 316.191 356.872 316.904 357.8 317.6L357.5 318ZM360.5 315.5L360.916 315.223C362.462 317.542 364.104 321.856 365.233 326.058C365.8 328.167 366.242 330.267 366.48 332.099C366.716 333.914 366.759 335.524 366.485 336.621L366 336.5L365.515 336.378C365.741 335.475 365.722 334.023 365.489 332.228C365.258 330.451 364.826 328.395 364.267 326.317C363.146 322.144 361.538 317.958 360.084 315.777L360.5 315.5Z" fill="#3F3D56"/>
<path d="M377.5 296.5C378.7 290.1 381 288.167 382 288" stroke="#3F3D56" stroke-linecap="round"/>
<path d="M347 299C345.4 292.976 342.333 291.157 341 291" stroke="#3F3D56" stroke-linecap="round"/>
<path d="M362 292L360 278" stroke="#3F3D56" stroke-linecap="round"/>
</g>
<defs>
<clipPath id="clip0_16_154">
<rect width="763" height="801" fill="white" transform="matrix(-1 0 0 1 763 0)"/>
</clipPath>
</defs>
</svg>
