<svg xmlns="http://www.w3.org/2000/svg" width="350" height="72" fill="none" viewBox="0 0 350 72"><path stroke="#231f21" stroke-width="4" d="M48.195 3.84C61.022.944 73.393 2.057 83.002 6.1c9.613 4.045 16.309 10.934 18.256 19.56s-1.14 17.724-8.084 25.506c-6.94 7.778-17.633 14.097-30.46 16.993s-25.199 1.782-34.808-2.26c-9.613-4.045-16.308-10.935-18.256-19.56-1.947-8.627 1.14-17.724 8.084-25.506 6.94-7.779 17.634-14.098 30.461-16.993Z"/><ellipse cx="55.568" cy="36.09" fill="#fdc500" rx="17.189" ry="12.278" transform="rotate(-12.72 55.568 36.09)"/><circle cx="91.102" cy="11.735" r="8.595" fill="#df1423"/><circle cx="18.908" cy="60.725" r="8.595" fill="#0c9017"/><path fill="#000" d="M129.042 46.5v-20h6.044q2.09 0 3.534.622 1.467.622 2.355 1.645a6.3 6.3 0 0 1 1.289 2.2q.422 1.178.422 2.333a7.4 7.4 0 0 1-.4 2.333q-.399 1.178-1.311 2.2-.888 1-2.333 1.623-1.444.622-3.556.622h-2.177V46.5Zm3.867-9.889h1.955q1.422 0 2.245-.489.844-.51 1.2-1.266a3.44 3.44 0 0 0 .377-1.556q0-.778-.355-1.533-.355-.778-1.2-1.29-.822-.51-2.267-.51h-1.955ZM145.48 46.5v-20h3.866v6.4h5.778v-6.4h3.867v20h-3.867v-10h-5.778v10Zm27.425.4q-2.2 0-4.111-.8a11.1 11.1 0 0 1-3.378-2.244 10.5 10.5 0 0 1-2.266-3.311 10 10 0 0 1-.823-4.044q0-2.157.823-4.045a10.5 10.5 0 0 1 2.266-3.311 10.8 10.8 0 0 1 3.378-2.222q1.912-.823 4.111-.823 2.2 0 4.111.822a10.5 10.5 0 0 1 3.356 2.222 10.3 10.3 0 0 1 2.289 3.311q.822 1.89.822 4.045t-.822 4.044a10.3 10.3 0 0 1-2.289 3.311 10.9 10.9 0 0 1-3.356 2.244q-1.91.801-4.111.801m0-3.867q1.8 0 3.245-.866a6.5 6.5 0 0 0 2.289-2.378q.866-1.49.866-3.289 0-1.822-.866-3.289a6.35 6.35 0 0 0-2.289-2.356q-1.445-.888-3.245-.888t-3.266.889a6.35 6.35 0 0 0-2.289 2.356q-.845 1.466-.845 3.288 0 1.8.845 3.289a6.5 6.5 0 0 0 2.289 2.378q1.466.866 3.266.866M183.623 30.1v-3.6h13.911v3.6h-4.889v16.4h-4.133V30.1Zm24.626 16.8q-2.2 0-4.111-.8a11.1 11.1 0 0 1-3.378-2.244 10.5 10.5 0 0 1-2.267-3.311 10 10 0 0 1-.822-4.044q0-2.157.822-4.045a10.5 10.5 0 0 1 2.267-3.311 10.8 10.8 0 0 1 3.378-2.222q1.91-.823 4.111-.823t4.111.822a10.5 10.5 0 0 1 3.356 2.222 10.3 10.3 0 0 1 2.289 3.311q.822 1.89.822 4.045t-.822 4.044a10.3 10.3 0 0 1-2.289 3.311 10.9 10.9 0 0 1-3.356 2.244q-1.91.801-4.111.801m0-3.867q1.8 0 3.244-.866a6.5 6.5 0 0 0 2.289-2.378q.867-1.49.867-3.289 0-1.822-.867-3.289a6.35 6.35 0 0 0-2.289-2.356q-1.444-.888-3.244-.888t-3.267.889a6.35 6.35 0 0 0-2.289 2.356q-.844 1.466-.844 3.288 0 1.8.844 3.289a6.5 6.5 0 0 0 2.289 2.378q1.467.866 3.267.866m29.651 4.134-12-11.978V46.5h-3.733V25.833l12 11.956V26.5h3.733Zm10.923-.667v-20h6.8q2.4 0 4.356.778 1.977.777 3.4 2.155a9.3 9.3 0 0 1 2.222 3.178 9.8 9.8 0 0 1 .778 3.889 9.8 9.8 0 0 1-.778 3.889 9.6 9.6 0 0 1-2.222 3.2q-1.423 1.356-3.4 2.133-1.956.778-4.356.778Zm3.867-3.6h2.578q1.689 0 2.977-.489 1.29-.51 2.156-1.378a5.8 5.8 0 0 0 1.333-2.044q.467-1.155.467-2.489t-.467-2.489a5.55 5.55 0 0 0-1.333-2.044q-.867-.89-2.156-1.378-1.288-.489-2.977-.489h-2.578Zm17.142 3.6v-20h4.133v20Zm18.389.4q-2.267 0-4.244-.756a10.8 10.8 0 0 1-3.445-2.178 10.1 10.1 0 0 1-2.289-3.289q-.822-1.887-.822-4.133 0-2.244.822-4.133a10 10 0 0 1 2.289-3.311 10.7 10.7 0 0 1 3.423-2.2q1.955-.8 4.222-.8 2.044 0 3.822.644a10.1 10.1 0 0 1 3.156 1.822l-1.134 4.578q-.845-1.377-2.333-2.31-1.467-.957-3.511-.956-1.89 0-3.378.866a6.37 6.37 0 0 0-2.356 2.378q-.844 1.512-.844 3.422 0 1.956.844 3.467a6.4 6.4 0 0 0 2.356 2.356q1.489.844 3.356.844.91 0 1.688-.178a5 5 0 0 0 1.4-.533v-3.867h-4.066V35.3h7.711v9.711a12 12 0 0 1-3.089 1.4 12.8 12.8 0 0 1-3.578.489m10.704-.4v-20h4.134v20Zm7.323-16.4v-3.6h13.911v3.6h-4.889v16.4h-4.133V30.1Zm12.459 16.4 8.822-20.711h.044l8.822 20.711h-4.022l-1.489-3.556h-6.8l-1.489 3.556Zm6.711-6.756h4.133l-.867-2.044a94 94 0 0 1-.666-1.578 19 19 0 0 1-.556-1.8 16 16 0 0 1-.533 1.778 33 33 0 0 1-.645 1.6Zm13.374 6.756v-20h4.133v16.4h6v3.6Z"/></svg>