<svg xmlns="http://www.w3.org/2000/svg" width="856" height="582" fill="none" viewBox="0 0 856 582"><g clip-path="url(#clip0_200_99)"><path fill="#e6e6e6" d="M519.742 326.234a5.5 5.5 0 0 1 5.5 5.5v53.207h105.5a5.5 5.5 0 1 1 0 11h-105.5v184h-11V331.734a5.504 5.504 0 0 1 5.5-5.5"/><path fill="#3f3d56" d="m226.148 578.696-19.832.548a13.8 13.8 0 0 1-8.486-2.379c-2.154-1.602-3.142-3.768-2.709-5.942l3.903-19.613c.735-3.7 5.27-6.497 10.78-6.65l10.952-.302c5.511-.152 10.192 2.39 11.131 6.044l4.979 19.368c.552 2.148-.315 4.364-2.377 6.083a13.8 13.8 0 0 1-8.341 2.843"/><path fill="#3f3d56" d="m346.777 578.134-19.832.548a13.82 13.82 0 0 1-8.486-2.379c-2.154-1.602-3.142-3.768-2.709-5.943l3.903-19.613c.735-3.7 5.27-6.497 10.78-6.649l10.952-.302c5.511-.153 10.192 2.39 11.131 6.044l4.979 19.367c.552 2.148-.315 4.365-2.377 6.083a13.8 13.8 0 0 1-8.341 2.844"/><path fill="#908f9a" d="M157.281 411.629a4.335 4.335 0 0 1-2.539-4.795 4.33 4.33 0 0 1 4.134-3.513l225.468-6.226a4.35 4.35 0 0 1 3.096 1.183 4.33 4.33 0 0 1 1.353 3.025 4.34 4.34 0 0 1-4.209 4.449l-225.469 6.226a4.3 4.3 0 0 1-1.834-.349"/><path fill="#e6e6e6" d="m240.492 336.986-64.449 1.78 6.009 217.597 64.449-1.78Z"/><path fill="#908f9a" d="M207.93 280.121c-12.057.342-21.257 21.209-21.035 29.352l.407 14.741 43.659-1.205-.407-14.742c-.229-8.142-10.566-28.469-22.624-28.146"/><path fill="#908f9a" d="M176.878 428.878a8.51 8.51 0 0 1-8.732-8.262l-.662-23.991a8.5 8.5 0 1 1 16.993-.469l.663 23.991a8.51 8.51 0 0 1-8.262 8.731"/><path fill="#706f7b" d="m193.233 339.286-.305-15.855 4.158-.103.305 15.804 3.769 230.346-4.159.115"/><path fill="#d9d9d9" d="m247.882 376.359-74.738 2.064c-7.139-8.705-7.787-45.792 7.11-52.851l5.843-9.92 45.042-2.199 5.264 10.445c7.411 6.306 11.232 43.162 11.479 52.461"/><path fill="#908f9a" d="m219.752 358.577-18.9.522c-3.648.1-6.748-4.631-6.912-10.547-.163-5.915 2.672-10.811 6.319-10.911l18.9-.522c3.647-.101 6.748 4.631 6.911 10.546.164 5.915-2.671 10.811-6.318 10.912"/><path fill="#d9d9d9" d="m183.152 465.57-38.959 27.52-6.806 62.05 45.448-15.185Z"/><path fill="#e6e6e6" d="m364.902 334.322-64.449 1.78 6.009 217.597 64.449-1.78Z"/><path fill="#ffbf26" d="M397.133 273.913c4.665 0 8.447-5.072 8.447-11.328s-3.782-11.327-8.447-11.327-8.447 5.071-8.447 11.327 3.782 11.328 8.447 11.328"/><path fill="#908f9a" d="M331.083 277.488c-12.058.343-21.257 21.209-21.036 29.352l.407 14.742 43.659-1.206-.407-14.742c-.229-8.142-10.565-28.469-22.623-28.146"/><path fill="#706f7b" d="m343.567 344.248-.305-15.855 4.158-.104.305 15.805 3.769 230.346-4.159.115"/><path fill="#d9d9d9" d="m371.034 373.734-74.738 2.064c-1.304-7.877.382-44.633 7.111-52.851l5.842-9.92 45.042-2.199 5.264 10.445c13.299 1.084 17.951 37.203 11.479 52.461"/><path fill="#908f9a" d="m342.995 359.254-18.9.522c-3.647.101-6.769-5.373-6.957-12.201-.189-6.828 2.626-12.467 6.273-12.567l18.9-.522c3.647-.101 6.768 5.373 6.957 12.201.188 6.828-2.626 12.467-6.273 12.567"/><path fill="#d9d9d9" d="m368.087 449.664 37.663 29.268 3.966 62.297-44.706-17.244Z"/><path fill="#f6f6f6" d="M349.981 130.481c-40.413 0-86.857-44.846-127.949-23.538C97.617 171.456 114.743 63.503 79 23.353L80.174 21c27.059 103.218 51.542 267.692 142.398 83.205 22.759-46.214 97.455 25.22 141.424 23.112l.076 2.83q-6.964.336-14.091.334"/><path fill="#f6f6f6" d="M468.181 137.984c-32.215 24.399-96.316 16.691-116.208 58.486-60.228 126.546-111.754 30.149-164.487 19.724l-.486-2.585c52.79 4.379 109.414-2.415 163.751-19.647 49.104-15.572 92.915-38.736 126.692-66.962l1.769 2.209a291 291 0 0 1-11.031 8.775"/><path fill="#ffbf26" d="M104.133 161.913c4.665 0 8.447-5.072 8.447-11.328s-3.782-11.327-8.447-11.327-8.447 5.071-8.447 11.327 3.782 11.328 8.447 11.328"/><path fill="#ffbf26" d="M366.133 69.913c4.665 0 8.447-5.072 8.447-11.328s-3.782-11.327-8.447-11.327-8.447 5.071-8.447 11.327 3.782 11.328 8.447 11.328"/><path fill="#e6e6e6" d="M181.47 207.629c-3.862 2.573-7.814-3.551-3.878-6.01 3.862-2.573 7.814 3.551 3.878 6.01"/><path fill="#e6e6e6" d="M324.47 6.63c-3.862 2.572-7.814-3.552-3.878-6.011 3.862-2.573 7.814 3.551 3.878 6.01"/><path fill="#e6e6e6" d="m408.75 125.801-2.457-.539.538-2.458-1.638-.359-.539 2.458-2.457-.538-.359 1.638 2.457.539-.538 2.457 1.638.359.539-2.458 2.457.539Z"/><path fill="#d9d9d9" d="M183.534 43.436c5.911 0 10.703-4.792 10.703-10.702s-4.792-10.703-10.703-10.703-10.702 4.792-10.702 10.703 4.792 10.702 10.702 10.702"/><path fill="#908f9a" d="M261.815 19.191c-12.057.343-21.257 21.21-21.036 29.352l.407 14.742 43.659-1.206-.407-14.741c-.228-8.143-10.565-28.47-22.623-28.147"/><path fill="#3f3d56" d="m287.812 577.407-19.832.548a13.8 13.8 0 0 1-8.486-2.379c-2.154-1.602-3.142-3.768-2.709-5.943l3.903-19.612c.736-3.7 5.27-6.497 10.78-6.65l10.953-.302c5.51-.152 10.191 2.39 11.13 6.044l4.979 19.368c.552 2.147-.315 4.364-2.376 6.083a13.8 13.8 0 0 1-8.342 2.843"/><path fill="#e6e6e6" d="m296.656 113.033-64.449 1.779 12.146 439.849 64.449-1.78Z"/><path fill="#706f7b" d="m270.868 325.95-.306-15.855 4.159-.103.305 15.804 3.769 230.346-4.16.115"/><path fill="#d9d9d9" d="m309.344 153.288-87.326 2.412c-1.522-9.204.447-52.15 8.309-61.753l2.154-11.462 60.297-1.665 3.155 11.171c8.658 7.368 13.123 50.431 13.411 61.297"/><path fill="#d9d9d9" d="m294.686 82.174-62.223 1.719c-2.297.063-4.193-1.143-4.236-2.694a2 2 0 0 1 .097-.658l9.665-29.775c.414-1.275 2.061-2.212 3.984-2.265l41.264-1.14c1.923-.052 3.62.792 4.103 2.042l11.294 29.196c.577 1.494-.757 3.048-2.98 3.471a6 6 0 0 1-.968.104"/><path fill="#e6e6e6" d="M238.6 323.926a7.6 7.6 0 0 1-1.581-.915 5.61 5.61 0 0 1-2.379-4.321l-2.261-81.878c-.093-3.389 3.225-6.24 7.398-6.356l55.703-1.538c4.173-.116 7.643 2.549 7.737 5.938l2.261 81.878a5.613 5.613 0 0 1-2.137 4.446 8.5 8.5 0 0 1-5.262 1.91l-55.702 1.537a8.9 8.9 0 0 1-3.777-.701"/><path fill="#908f9a" d="m274.253 76.907-18.9.522c-3.647.101-6.731-4.02-6.873-9.184s2.709-9.449 6.356-9.55l18.9-.521c3.647-.101 6.731 4.02 6.874 9.184s-2.709 9.449-6.357 9.55"/><path fill="#d9d9d9" d="M721.01 562.53h-22V402.653c18.402-1.32 32.232-6.955 32.232-13.708 0-7.732-18.132-14-40.5-14s-40.5 6.268-40.5 14c0 6.818 14.1 12.494 32.768 13.742V562.53h-22a8 8 0 1 0 0 16h60a8 8 0 0 0 0-16"/><path fill="#ffd4af" d="m676.848 481.366-7.227 7.875-33.814-24.126 10.665-11.623Z"/><path fill="#2f2e41" d="M658.368 502.148a13.33 13.33 0 0 0 4.335 9.307l.319.296 9.477-10.329 13.821-15.063-10.203-9.367-1.842 2.013-.192.207-9.182 4.343-1.946.925-.333.155-.732 7.865v.007a13.28 13.28 0 0 0-3.522 9.641"/><path fill="#ffd4af" d="m714.288 559.923-10.227 3.107-16.85-37.968 15.094-4.585Z"/><path fill="#2f2e41" d="m686.801 578.644.125.421 32.976-10.017-4.025-13.251-2.604.791-.274.082-12.259-1.125-.363-.029-4.639 6.399a13.411 13.411 0 0 0-8.937 16.729"/><path fill="#2f2e41" d="M629.956 361.125s-65.294 63.042-24.016 82.556h12.758a84.5 84.5 0 0 1 12.612-25.108c1.205-1.577 5.721-1.257 6.975-2.794 7.657-9.387 15.958-17.449 21.691-17.128l-1.371 43.558-2.22 15.537c-1.166 8.032 31.727 78.161 31.727 78.161l20.674-8.125s-21.54-57.762-21.792-66.089l17.262-91.562Z"/><path fill="#3f3d56" d="M624.513 364.238c.332.475.767.869 1.272 1.154a9 9 0 0 0 2.671.992c14.701 3.337 62.726 10.254 75.192 6.954 1.532-.399 2.531-.961 2.856-1.701 1.044-2.338.91-12.215.296-24.142-.111-2.234-2.574-4.654-2.722-6.992-.104-1.753 2.108-3.403 1.99-5.186-.814-12.06-1.865-24.349-2.567-32.118-.444-4.994-.748-8.116-.748-8.116l7.584-47.817-.355-.585-.4-.2-24.452-12.104-1.332-3.403a5.27 5.27 0 0 0-4.876-3.337l-16.107-.067a5.238 5.238 0 0 0-4.283 2.176l-4.366 6.044-28.854 18.497.111.34 13.539 41.203.067 3.211v.008l.503 25.821-1.398 3.499 1.575 5.742s-.725 6.71-4.609 11.697c-3.522 4.528-8.005 9.248-10.033 13.081v.007c-1.124 2.116-1.501 3.951-.554 5.342"/><path fill="#2f2e41" d="m602.805 439.938 3.49 4.41s32.098 22.456 33.2 24.555l5.072 4.8 12.274-13.121-6.383-8a50.1 50.1 0 0 0-19.221-14.716l-9.782-8.678Z"/><path fill="#ffd4af" d="m718.425 379.134-5.845-56.578-1.543-23.285 16.36-2.959s-.648 16.65 1.496 26.044c2.115 9.27.28 55.536.149 56.773a7.952 7.952 0 0 1 2.131 8.771 7.97 7.97 0 0 1-2.92 3.717 7.965 7.965 0 0 1-9.027.004 7.96 7.96 0 0 1-3.226-8.43 7.96 7.96 0 0 1 2.425-4.057"/><path fill="#3f3d56" d="m698.943 293.443 4.558 9.752 1.591 3.396 4.283 22.432 2.139 2.272 1.842 7.332.866-.178 15.611-3.233 4.55-.94a8.649 8.649 0 0 0-1.569-10.824c-.31-.281-.569-.555-.562-.814.259-15.604-.695-44.096-9.315-55.823-2.737-3.721-4.38-7.428-6.77-10.017-.007-.008-.007-.015-.014-.015l-5.816-9.522-.355-.585-.399-.199Z"/><path fill="#ffd4af" d="M672.128 228.564c11.836 0 21.431-9.594 21.431-21.43s-9.595-21.431-21.431-21.431-21.431 9.595-21.431 21.431 9.595 21.43 21.431 21.43"/><path fill="#2f2e41" d="M697.575 202.523c.628-3.601 1.117-8.27-.681-12.42-1.52-3.493-5.32-6.768-9.545-6.326a4.4 4.4 0 0 0-1.373-4.399 11.6 11.6 0 0 0-4.688-2.205c-3.971-1.167-8.084-2.377-12.331-2.399-4.767-.026-8.991 1.607-11.581 4.486l-.063.093-.776 1.854a1.874 1.874 0 0 1-1.947 1.136 1.84 1.84 0 0 1-.756-.269 1.693 1.693 0 0 0-2.58 1.366l-.042.791-1.112-.444a1.683 1.683 0 0 0-1.692.251 1.69 1.69 0 0 0-.606 1.6l.148.941a1.8 1.8 0 0 0-1.38.311 1.66 1.66 0 0 0-.59 1.86 15.4 15.4 0 0 0 4.284 6.399 12.8 12.8 0 0 0 3.593 2.292 76.3 76.3 0 0 0 26.964 6.108 15.7 15.7 0 0 0-1.675 5.372 5.88 5.88 0 0 0 2.514 5.542q.577.33 1.204.551.6.221 1.155.535a3.6 3.6 0 0 1 1.207 4.957c-.331.54-.798.984-1.355 1.286 0 0 1.594 1.947 1.85 1.914a5 5 0 0 0 2.625-1.553c4.641-4.507 7.746-11.107 9.229-19.63"/><path fill="#ccc" d="M855.157 580.35a1.56 1.56 0 0 1-.454 1.1 1.55 1.55 0 0 1-1.1.453H1.553A1.55 1.55 0 0 1 0 580.35a1.55 1.55 0 0 1 1.553-1.553h852.05a1.55 1.55 0 0 1 1.554 1.553"/><path fill="#908f9a" d="M366.498 423.563a8.514 8.514 0 0 1-8.731-8.262l-.662-23.991a8.497 8.497 0 0 1 8.262-8.721 8.5 8.5 0 0 1 8.731 8.252l.663 23.99a8.51 8.51 0 0 1-8.263 8.732"/><path fill="#e6e6e6" d="M603.602 368.421c-7.414-.148-47.24-1.291-53.77-1.01-.37-1.293-12.75 14.572-13.051 14.671a1.81 1.81 0 0 0 .604 2.907c.728.443 64.932-.745 65.71-.59a1.79 1.79 0 0 0 1.594-1.039l.429-.961c.045-1.644.583-10.048.1-11.485a1.777 1.777 0 0 0-1.616-2.493"/><path fill="#000" d="M605.117 382.398c-.377.906-.859 2.044-2.023 2.002l-65.031.73a1.8 1.8 0 0 1-1.773-1.75 1.8 1.8 0 0 1 .207-.883Z" opacity=".17"/><path fill="#e6e6e6" d="M550.136 367.216c-.7-1.21-18.087-87.238-19.538-87.957l-11.87-14.521-1.061-.798c-1.475-.811-5.014-.263-4.696 1.991 2.789 13.37 20.726 89.518 21.119 101.39l2.159 15.124c.039.258.131.504.27.724a1.863 1.863 0 0 0 2.03.806 3.57 3.57 0 0 0 1.714-.658 3.57 3.57 0 0 0 1.163-1.421c.162-.534 9.522-14.37 8.71-14.68"/><path fill="#000" d="m518.725 264.737 22.704 117.161c-.76 1.922-4.312 3.268-5.14.747-.014-.003-23.291-116.643-23.315-116.713-.248-2.807 4.391-2.896 5.751-1.195" opacity=".17"/><path fill="#3f3d56" d="m519.408 269.531 11.53 16.072 12.942 61.465-6.016 5.248Z"/><path fill="#2f2e41" d="m596.158 376.711 3.19.13c.05-.935.204-1.86.46-2.76.48-2.28.91-4.99-1.08-4.98-1.35-.13-1.81 1.58-2.05 3.44a26.4 26.4 0 0 1-.52 4.17"/><path fill="#2f2e41" d="m577.859 372.42 2.15.08 1.04.04c-.02-1.14.51-3.49-.78-4.07a1.6 1.6 0 0 0-.65-.13c-1.21-.07-1.57.85-1.68 1.91-.07.64-.04 1.32-.06 1.85 0 .11-.01.22-.02.32"/><path fill="#2f2e41" d="m571.488 372.162 2.16.09 1.03.04c-.02-1.31.67-4.17-1.43-4.21-1.94-.11-1.69 2.36-1.74 3.76 0 .11-.01.22-.02.32"/><path fill="#2f2e41" d="m565.119 371.912 2.15.08 1.04.04c-.02-1.3.67-4.16-1.43-4.2-1.94-.12-1.69 2.35-1.74 3.76 0 .11-.01.22-.02.32"/><path fill="#2f2e41" d="m558.748 371.654 2.16.09 1.03.04c-.02-1.31.67-4.16-1.43-4.21-1.94-.11-1.69 2.36-1.74 3.76 0 .11-.01.22-.02.32"/><path fill="#2f2e41" d="m552.379 371.398 2.15.08 1.04.04c-.02-1.2.56-3.71-.98-4.14h-.01a1.5 1.5 0 0 0-.44-.06 1.5 1.5 0 0 0-.54.05h-.01c-1.34.35-1.15 2.45-1.19 3.71 0 .11-.01.22-.02.32"/><path fill="#2f2e41" d="m589.729 370.717 3.19.13c0-.12-.001-.25.009-.4q.119-1.144.041-2.29c-.11-.84-.471-1.5-1.481-1.52-1.03-.06-1.44.6-1.6 1.45a3 3 0 0 0-.08.44v.01c-.08.78-.029 1.62-.079 2.18"/><path fill="#2f2e41" d="m583.359 370.458 3.19.13q.102-1.29.06-2.58c-.09-.88-.44-1.6-1.49-1.62-1.06-.07-1.47.65-1.63 1.54-.15.86-.07 1.89-.13 2.53"/><path fill="#2f2e41" d="m576.988 370.208.95.04 2.24.09c-.01-.48.08-1.18.09-1.87a4 4 0 0 0-.02-.62c-.08-.93-.41-1.7-1.5-1.72-1.11-.06-1.5.71-1.64 1.65-.14.84-.06 1.81-.12 2.43"/><path fill="#2f2e41" d="m589.789 376.459 3.19.12c-.01-1.3.67-4.16-1.43-4.2-2.1-.13-1.64 2.77-1.76 4.08"/><path fill="#2f2e41" d="m583.418 376.201 3.19.13c-.01-1.31.67-4.17-1.43-4.21-2.1-.12-1.64 2.78-1.76 4.08"/><path fill="#2f2e41" d="m577.049 375.947 3.19.12c-.01-.93.34-2.65-.23-3.57a1.33 1.33 0 0 0-1.2-.63 1.4 1.4 0 0 0-.93.23c-1.02.67-.73 2.79-.83 3.85"/><path fill="#2f2e41" d="m570.68 375.69 3.19.13c-.01-.93.33-2.64-.22-3.57a1.329 1.329 0 0 0-1.21-.64 1.4 1.4 0 0 0-.93.23c-1.02.69-.73 2.8-.83 3.85"/><path fill="#2f2e41" d="m564.309 375.439 3.19.12c-.01-.93.34-2.65-.23-3.57a1.32 1.32 0 0 0-1.2-.63 1.4 1.4 0 0 0-.93.23c-1.02.67-.73 2.79-.83 3.85"/><path fill="#2f2e41" d="m557.939 375.182 3.19.13c-.009-.93.33-2.64-.22-3.57a1.31 1.31 0 0 0-1.21-.64 1.4 1.4 0 0 0-.93.23c-1.02.69-.73 2.8-.83 3.85"/><path fill="#2f2e41" d="m551.568 374.932 3.19.12c-.01-.93.33-2.64-.23-3.57a1.3 1.3 0 0 0-1.2-.63 1.4 1.4 0 0 0-.93.23c-1.02.68-.73 2.79-.83 3.85"/><path fill="#ffd4af" d="m587.596 365.683 24.313-51.421 9.192-21.45-14.447-8.226s-4.922 15.919-10.065 24.067c-5.075 8.041-18.718 52.287-19.006 53.497a7.96 7.96 0 0 0-4.924 7.565 7.965 7.965 0 0 0 5.309 7.301 7.962 7.962 0 0 0 10.567-6.701 7.97 7.97 0 0 0-.939-4.632"/><path fill="#3f3d56" d="m587.448 318.082 18.387 11.093 4.17-6.303 2.778-1.432 11.494-19.737 10.163-10.354 13.427-42.919-17.47 2.621-.023.007c-3.112 1.651-5.896 4.602-9.713 7.203-12.026 8.195-22.395 34.752-27.335 49.559-.081.243-.414.412-.801.578a8.65 8.65 0 0 0-5.077 9.684"/><path fill="#ccc" d="m242.125 333.078-12.389 33.749.011 153.759 15.096 4.329Z"/><path fill="#ccc" d="m301.996 333.805 13.261 33.416 3.979 153.708-14.979 4.719Z"/><path fill="#0c9017" d="M741.354 511.247q-19.368 0-42.456-1.464c-79.614-5.055-182.738-22.633-290.376-49.492s-206.931-59.794-279.586-92.734C93.543 351.51 66.38 336.32 48.201 322.409c-19.247-14.727-27.666-27.564-25.024-38.153 5.148-20.629 50.73-25.142 88.064-25.295l.013 3c-51.269.21-81.514 8.387-85.166 23.022-4.652 18.64 33.287 47.741 104.087 79.841 72.496 32.868 171.605 65.739 279.073 92.557 107.467 26.816 210.402 44.363 289.84 49.408 77.579 4.928 124.743-2.937 129.395-21.578 3.861-15.477-21.599-38.275-71.69-64.198l1.379-2.664c36.397 18.836 78.646 45.851 73.222 67.589-2.643 10.588-16.106 17.964-40.015 21.922-13.63 2.256-30.371 3.387-50.025 3.387"/><path fill="#df1523" d="M56.058 491.596c-10.246 0-16.908-2.546-19.856-7.608-5.814-9.98 3.924-27.493 28.941-52.05l2.102 2.14c-23.239 22.813-33.343 40.001-28.45 48.401 3.095 5.312 12.308 7.216 26.647 5.504 14.236-1.7 33.101-6.765 56.072-15.055 47.291-17.067 106.623-45.857 167.065-81.065 60.441-35.207 114.751-72.616 152.927-105.335 7.333-6.285 13.987-12.332 19.779-17.971a197 197 0 0 0 20.976-23.377c8.563-11.627 11.453-20.581 8.358-25.895-5.17-8.874-26.888-8.04-61.156 2.353l-.871-2.871c36.767-11.149 58.508-11.483 64.619-.992 3.798 6.519.926 16.338-8.534 29.184a200 200 0 0 1-21.299 23.748c-5.837 5.683-12.539 11.772-19.92 18.099-38.309 32.834-92.777 70.354-153.369 105.649-60.594 35.297-120.1 64.168-167.556 81.295-23.185 8.367-42.274 13.485-56.735 15.211a83 83 0 0 1-9.74.635"/></g><defs><clipPath id="clip0_200_99"><path fill="#fff" d="M0 0h855.157v581.907H0Z"/></clipPath></defs></svg>