<svg xmlns="http://www.w3.org/2000/svg" id="flag-icons-tw" viewBox="0 0 640 480"><clipPath id="tw-a"><path d="M0 0h640v480H0Z"/></clipPath><g clip-path="url(#tw-a)"><path fill="red" d="M0 0h720v480H0Z"/><path fill="#000095" d="M0 0h360v240H0Z"/><g fill="#fff"><path d="m154 126.9-2.5 9.6 9.4 2.6-1.8-7.1Zm46.9 5.1-1.8 7.1 9.4-2.6-2.5-9.6Zm-41.8-24-5.1 5.1 1.9 6.9Z"/><path d="m155.9 120-1.9 6.9 5.1 5.1Z"/><path d="m154 113.1-6.9 6.9 6.9 6.9 1.9-6.9Zm14 27.8 5.1 5.1 6.9-1.9Zm18.9 5.1 9.6 2.5 2.6-9.4-7.1 1.8Z"/><path d="m192 140.9 7.1-1.8 1.8-7.1Zm-31.1-1.8 2.6 9.4 9.6-2.5-5.1-5.1Zm19.1 5 6.9 1.9 5.1-5.1Z"/><path d="m173.1 146 6.9 6.9 6.9-6.9-6.9-1.9Zm-12.2-45.1-9.4 2.6 2.5 9.6 5.1-5.1Zm-1.8 31.1 1.8 7.1 7.1 1.8Zm45-12 1.9-6.9-5.1-5.1Z"/><path d="m168 99.1-7.1 1.8-1.8 7.1Zm32.9 8.9-1.8-7.1-7.1-1.8Zm5.1 18.9 6.9-6.9-6.9-6.9-1.9 6.9Z"/><path d="m200.9 108-8.9-8.9-12-3.2-12 3.2-8.9 8.9-3.2 12 3.2 12 8.9 8.9 12 3.2 12-3.2 8.9-8.9 3.2-12Z"/><path d="m200.9 132 5.1-5.1-1.9-6.9Zm5.1-18.9 2.5-9.6-9.4-2.6 1.8 7.1Zm-6.9-12.2-2.6-9.4-9.6 2.5 5.1 5.1Zm-26-6.9-9.6-2.5-2.6 9.4 7.1-1.8Zm6.9 1.9-6.9-1.9-5.1 5.1Z"/><path d="m186.9 94-6.9-6.9-6.9 6.9 6.9 1.9Z"/><path d="m192 99.1-5.1-5.1-6.9 1.9ZM173.1 146l-9.6 2.5 4.5 16.6 12-12.2Zm-5.1 19.1 12 44.9 12-44.9-12-12.2Zm-7.1-26-9.4-2.6-4.4 16.4 16.4-4.4Z"/><path d="m147.1 152.9-12 45.1 32.9-32.9-4.5-16.6Zm-12-20.9L102 165.1l45.1-12.2 4.4-16.4Z"/><path d="m154 126.9-6.9-6.9-12 12 16.4 4.5Zm0-13.8-2.5-9.6-16.4 4.5 12 12Z"/><path d="M135.1 108 90 120l45.1 12 12-12Zm90 24-16.6 4.5 4.4 16.4 45.1 12.2Z"/><path d="m199.1 139.1-2.6 9.4 16.4 4.4-4.4-16.4Zm-12.2 6.9-6.9 6.9 12 12.2 4.5-16.6Zm19.1-19.1 2.5 9.6 16.6-4.5-12.2-12Z"/><path d="m192 165.1 33.1 32.9-12.2-45.1-16.4-4.4Zm7.1-64.2 9.4 2.6 4.4-16.4-16.4 4.4Z"/><path d="M225.1 108 258 75.1l-45.1 12-4.4 16.4Zm-12.2-20.9L225.1 42 192 75.1l4.5 16.4Zm12.2 44.9 44.9-12-44.9-12-12.2 12Z"/><path d="m206 113.1 6.9 6.9 12.2-12-16.6-4.5Zm-38-38L135.1 42l12 45.1 16.4 4.4Z"/><path d="m160.9 100.9 2.6-9.4-16.4-4.4 4.4 16.4Z"/><path d="m147.1 87.1-45.1-12 33.1 32.9 16.4-4.5Zm39.8 6.9 9.6-2.5-4.5-16.4-12 12Z"/><path d="M192 75.1 180 30l-12 45.1 12 12Z"/><path d="m173.1 94 6.9-6.9-12-12-4.5 16.4Z"/></g><circle cx="180" cy="120" r="51.1" fill="#000095"/><circle cx="180" cy="120" r="45.1" fill="#fff"/></g></svg>