<svg xmlns="http://www.w3.org/2000/svg" id="flag-icons-tw" viewBox="0 0 512 512"><clipPath id="tw-a"><path d="M0 0h512v512H0Z"/></clipPath><g clip-path="url(#tw-a)"><path fill="red" d="M0 0h768v512H0Z"/><path fill="#000095" d="M0 0h384v256H0Z"/><g fill="#fff"><path d="m164.3 135.4-2.7 10.2 10.1 2.7-2-7.4Zm50 5.5-2 7.4 10.1-2.7-2.7-10.2Zm-44.6-25.8-5.4 5.5 2 7.4Z"/><path d="m166.3 128-2 7.4 5.4 5.5Z"/><path d="m164.3 120.6-7.4 7.4 7.4 7.4 2-7.4Zm14.8 29.7 5.5 5.4 7.4-2Zm20.3 5.4 10.2 2.7 2.7-10.1-7.4 2Z"/><path d="m204.9 150.3 7.4-2 2-7.4Zm-33.2-2 2.7 10.1 10.2-2.7-5.5-5.4Zm20.3 5.4 7.4 2 5.5-5.4Z"/><path d="m184.6 155.7 7.4 7.4 7.4-7.4-7.4-2Zm-12.9-48-10.1 2.7 2.7 10.2 5.4-5.5Zm-2 33.2 2 7.4 7.4 2Zm48-12.9 2-7.4-5.4-5.5Z"/><path d="m179.1 105.7-7.4 2-2 7.4Zm35.2 9.4-2-7.4-7.4-2Zm5.4 20.3 7.4-7.4-7.4-7.4-2 7.4Z"/><path d="m214.3 115.1-9.4-9.4-12.9-3.4-12.9 3.4-9.4 9.4-3.4 12.9 3.4 12.9 9.4 9.4 12.9 3.4 12.9-3.4 9.4-9.4 3.4-12.9Z"/><path d="m214.3 140.9 5.4-5.5-2-7.4Zm5.4-20.3 2.7-10.2-10.1-2.7 2 7.4Zm-7.4-12.9-2.7-10.1-10.2 2.7 5.5 5.4Zm-27.7-7.4-10.2-2.7-2.7 10.1 7.4-2Z"/><path d="m192 102.3-7.4-2-5.5 5.4Z"/><path d="m199.4 100.3-7.4-7.4-7.4 7.4 7.4 2Z"/><path d="m204.9 105.7-5.5-5.4-7.4 2Zm-20.3 50-10.2 2.7 4.7 17.6 12.9-12.9Zm-5.5 20.3 12.9 48 12.9-48-12.9-12.9Zm-7.4-27.7-10.1-2.7-4.7 17.5 17.5-4.7Z"/><path d="m156.9 163.1-12.9 48 35.1-35.1-4.7-17.6ZM144 140.9 108.9 176l48-12.9 4.7-17.5Z"/><path d="m164.3 135.4-7.4-7.4-12.9 12.9 17.6 4.7Zm0-14.8-2.7-10.2-17.6 4.7 12.9 12.9Z"/><path d="M144 115.1 96 128l48 12.9 12.9-12.9Zm96 25.8-17.6 4.7 4.7 17.5 48 12.9Z"/><path d="m212.3 148.3-2.7 10.1 17.5 4.7-4.7-17.5Zm-12.9 7.4-7.4 7.4 12.9 12.9 4.7-17.6Zm20.3-20.3 2.7 10.2 17.6-4.7-12.9-12.9ZM204.9 176l35.1 35.1-12.9-48-17.5-4.7Zm7.4-68.3 10.1 2.7 4.7-17.5-17.5 4.7Zm27.7 7.4L275.1 80l-48 12.9-4.7 17.5Zm-12.9-22.2 12.9-48L204.9 80l4.7 17.6Zm12.9 48 48-12.9-48-12.9-12.9 12.9Z"/><path d="m219.7 120.6 7.4 7.4 12.9-12.9-17.6-4.7ZM179.1 80 144 44.9l12.9 48 17.5 4.7Zm-7.4 27.7 2.7-10.1-17.5-4.7 4.7 17.5Z"/><path d="m156.9 92.9-48-12.9 35.1 35.1 17.6-4.7Zm42.5 7.4 10.2-2.7-4.7-17.6L192 92.9Z"/><path d="M204.9 80 192 32l-12.9 48L192 92.9Z"/><path d="m184.6 100.3 7.4-7.4L179.1 80l-4.7 17.6Z"/></g><circle cx="192" cy="128" r="54.4" fill="#000095"/><circle cx="192" cy="128" r="48" fill="#fff"/></g></svg>