<svg width="350" height="72" viewBox="0 0 350 72" fill="none" xmlns="http://www.w3.org/2000/svg">
<path d="M48.195 3.83954C61.0223 0.944114 73.3931 2.05749 83.002 6.1002C92.6154 10.1448 99.3108 17.0344 101.258 25.6602C103.205 34.286 100.118 43.3837 93.1743 51.1656C86.2337 58.944 75.5406 65.2634 62.7133 68.1588C49.886 71.0542 37.5152 69.9409 27.9063 65.8982C18.293 61.8536 11.5975 54.9639 9.65047 46.3382C7.70344 37.7124 10.7902 28.6147 17.734 20.8328C24.6746 13.0544 35.3677 6.735 48.195 3.83954Z" stroke="white" stroke-width="4"/>
<ellipse cx="55.5677" cy="36.0903" rx="17.1891" ry="12.2779" transform="rotate(-12.7198 55.5677 36.0903)" fill="#FDC500"/>
<ellipse cx="91.102" cy="11.7352" rx="8.59453" ry="8.59454" fill="#DF1423"/>
<ellipse cx="18.9079" cy="60.7254" rx="8.59453" ry="8.59454" fill="#0C9017"/>
<path d="M129.042 46.5V26.5H135.086C136.479 26.5 137.657 26.7074 138.62 27.1222C139.598 27.537 140.383 28.0852 140.975 28.7667C141.568 29.4333 141.998 30.1667 142.264 30.9667C142.546 31.7519 142.686 32.5296 142.686 33.3C142.686 34.0556 142.553 34.8333 142.286 35.6333C142.02 36.4185 141.583 37.1519 140.975 37.8333C140.383 38.5 139.605 39.0407 138.642 39.4556C137.679 39.8704 136.494 40.0778 135.086 40.0778H132.909V46.5H129.042ZM132.909 36.6111H134.864C135.812 36.6111 136.561 36.4481 137.109 36.1222C137.672 35.7815 138.072 35.3593 138.309 34.8556C138.561 34.3519 138.686 33.8333 138.686 33.3C138.686 32.7815 138.568 32.2704 138.331 31.7667C138.094 31.2481 137.694 30.8185 137.131 30.4778C136.583 30.137 135.827 29.9667 134.864 29.9667H132.909V36.6111ZM145.48 46.5V26.5H149.346V32.9H155.124V26.5H158.991V46.5H155.124V36.5H149.346V46.5H145.48ZM172.905 46.9C171.439 46.9 170.068 46.6333 168.794 46.1C167.52 45.5519 166.394 44.8037 165.416 43.8556C164.453 42.9074 163.698 41.8037 163.15 40.5444C162.602 39.2852 162.327 37.937 162.327 36.5C162.327 35.063 162.602 33.7148 163.15 32.4556C163.698 31.1963 164.453 30.0926 165.416 29.1444C166.394 28.1963 167.52 27.4556 168.794 26.9222C170.068 26.3741 171.439 26.1 172.905 26.1C174.372 26.1 175.742 26.3741 177.016 26.9222C178.29 27.4556 179.409 28.1963 180.372 29.1444C181.35 30.0926 182.113 31.1963 182.661 32.4556C183.209 33.7148 183.483 35.063 183.483 36.5C183.483 37.937 183.209 39.2852 182.661 40.5444C182.113 41.8037 181.35 42.9074 180.372 43.8556C179.409 44.8037 178.29 45.5519 177.016 46.1C175.742 46.6333 174.372 46.9 172.905 46.9ZM172.905 43.0333C174.105 43.0333 175.187 42.7444 176.15 42.1667C177.113 41.5741 177.876 40.7815 178.439 39.7889C179.016 38.7963 179.305 37.7 179.305 36.5C179.305 35.2852 179.016 34.1889 178.439 33.2111C177.876 32.2185 177.113 31.4333 176.15 30.8556C175.187 30.263 174.105 29.9667 172.905 29.9667C171.705 29.9667 170.616 30.263 169.639 30.8556C168.676 31.4333 167.913 32.2185 167.35 33.2111C166.787 34.1889 166.505 35.2852 166.505 36.5C166.505 37.7 166.787 38.7963 167.35 39.7889C167.913 40.7815 168.676 41.5741 169.639 42.1667C170.616 42.7444 171.705 43.0333 172.905 43.0333ZM183.623 30.1V26.5H197.534V30.1H192.645V46.5H188.512V30.1H183.623ZM208.249 46.9C206.782 46.9 205.412 46.6333 204.138 46.1C202.864 45.5519 201.738 44.8037 200.76 43.8556C199.797 42.9074 199.042 41.8037 198.493 40.5444C197.945 39.2852 197.671 37.937 197.671 36.5C197.671 35.063 197.945 33.7148 198.493 32.4556C199.042 31.1963 199.797 30.0926 200.76 29.1444C201.738 28.1963 202.864 27.4556 204.138 26.9222C205.412 26.3741 206.782 26.1 208.249 26.1C209.716 26.1 211.086 26.3741 212.36 26.9222C213.634 27.4556 214.753 28.1963 215.716 29.1444C216.693 30.0926 217.456 31.1963 218.005 32.4556C218.553 33.7148 218.827 35.063 218.827 36.5C218.827 37.937 218.553 39.2852 218.005 40.5444C217.456 41.8037 216.693 42.9074 215.716 43.8556C214.753 44.8037 213.634 45.5519 212.36 46.1C211.086 46.6333 209.716 46.9 208.249 46.9ZM208.249 43.0333C209.449 43.0333 210.53 42.7444 211.493 42.1667C212.456 41.5741 213.219 40.7815 213.782 39.7889C214.36 38.7963 214.649 37.7 214.649 36.5C214.649 35.2852 214.36 34.1889 213.782 33.2111C213.219 32.2185 212.456 31.4333 211.493 30.8556C210.53 30.263 209.449 29.9667 208.249 29.9667C207.049 29.9667 205.96 30.263 204.982 30.8556C204.019 31.4333 203.256 32.2185 202.693 33.2111C202.13 34.1889 201.849 35.2852 201.849 36.5C201.849 37.7 202.13 38.7963 202.693 39.7889C203.256 40.7815 204.019 41.5741 204.982 42.1667C205.96 42.7444 207.049 43.0333 208.249 43.0333ZM237.9 47.1667L225.9 35.1889V46.5H222.167V25.8333L234.167 37.7889V26.5H237.9V47.1667ZM248.823 46.5V26.5H255.623C257.223 26.5 258.675 26.7593 259.979 27.2778C261.297 27.7963 262.431 28.5148 263.379 29.4333C264.342 30.337 265.083 31.3963 265.601 32.6111C266.12 33.8259 266.379 35.1222 266.379 36.5C266.379 37.8778 266.12 39.1741 265.601 40.3889C265.083 41.6037 264.342 42.6704 263.379 43.5889C262.431 44.4926 261.297 45.2037 259.979 45.7222C258.675 46.2407 257.223 46.5 255.623 46.5H248.823ZM252.69 42.9H255.268C256.394 42.9 257.386 42.737 258.245 42.4111C259.105 42.0704 259.823 41.6111 260.401 41.0333C260.994 40.4407 261.438 39.7593 261.734 38.9889C262.045 38.2185 262.201 37.3889 262.201 36.5C262.201 35.6111 262.045 34.7815 261.734 34.0111C261.438 33.2259 260.994 32.5444 260.401 31.9667C259.823 31.3741 259.105 30.9148 258.245 30.5889C257.386 30.263 256.394 30.1 255.268 30.1H252.69V42.9ZM269.832 46.5V26.5H273.965V46.5H269.832ZM288.221 46.9C286.71 46.9 285.295 46.6481 283.977 46.1444C282.673 45.6259 281.525 44.9 280.532 43.9667C279.555 43.0333 278.792 41.937 278.243 40.6778C277.695 39.4185 277.421 38.0407 277.421 36.5444C277.421 35.0481 277.695 33.6704 278.243 32.4111C278.792 31.137 279.555 30.0333 280.532 29.1C281.525 28.1519 282.666 27.4185 283.955 26.9C285.258 26.3667 286.666 26.1 288.177 26.1C289.54 26.1 290.814 26.3148 291.999 26.7444C293.184 27.1741 294.236 27.7815 295.155 28.5667L294.021 33.1444C293.458 32.2259 292.68 31.4556 291.688 30.8333C290.71 30.1963 289.54 29.8778 288.177 29.8778C286.917 29.8778 285.792 30.1667 284.799 30.7444C283.806 31.3222 283.021 32.1148 282.443 33.1222C281.88 34.1296 281.599 35.2704 281.599 36.5444C281.599 37.8481 281.88 39.0037 282.443 40.0111C283.021 41.0037 283.806 41.7889 284.799 42.3667C285.792 42.9296 286.91 43.2111 288.155 43.2111C288.762 43.2111 289.325 43.1519 289.843 43.0333C290.362 42.9148 290.829 42.737 291.243 42.5V38.6333H287.177V35.3H294.888V45.0111C293.969 45.6037 292.94 46.0704 291.799 46.4111C290.673 46.737 289.48 46.9 288.221 46.9ZM298.925 46.5V26.5H303.059V46.5H298.925ZM306.248 30.1V26.5H320.159V30.1H315.27V46.5H311.137V30.1H306.248ZM318.707 46.5L327.529 25.7889H327.573L336.395 46.5H332.373L330.884 42.9444H324.084L322.595 46.5H318.707ZM325.418 39.7444H329.551L328.684 37.7C328.447 37.1519 328.225 36.6259 328.018 36.1222C327.825 35.6037 327.64 35.0037 327.462 34.3222C327.299 34.9889 327.121 35.5815 326.929 36.1C326.736 36.6185 326.521 37.1519 326.284 37.7L325.418 39.7444ZM338.792 46.5V26.5H342.925V42.9H348.925V46.5H338.792Z" fill="white"/>
</svg>
